SplineFontDB: 3.0
FontName: Purisa-Bold
FullName: Purisa Bold
FamilyName: Purisa
Weight: Bold
Copyright: Purisa, Thai handwriting outline font.\n\nCopyright (C) 2003, 2004 Poonlap Veerathanabutr <poonlap@linux.thai.net>
UComments: "2003-11-27: Created.+AAoACgAA-Acknowlegement:+AAoA-Hanwriting by Ms.Purisa Cholasueksa. +AAoA-Co-operated by Mr.Teeratep Sosakul.+AAoACgAA-2004-02-14:+AAoA-Modified most characters. Make numbers bigger." 
Version: 002.012: 2011-03-11
ItalicAngle: 0
UnderlinePosition: -100
UnderlineWidth: 50
Ascent: 800
Descent: 200
LayerCount: 2
Layer: 0 0 "Back"  1
Layer: 1 0 "Fore"  0
NeedsXUIDChange: 1
FSType: 8
OS2Version: 0
OS2_WeightWidthSlopeOnly: 0
OS2_UseTypoMetrics: 0
CreationTime: 1153666222
ModificationTime: 1299825675
PfmFamily: 65
TTFWeight: 700
TTFWidth: 5
LineGap: 113
VLineGap: 0
OS2TypoAscent: 0
OS2TypoAOffset: 1
OS2TypoDescent: 0
OS2TypoDOffset: 1
OS2TypoLinegap: 0
OS2WinAscent: 0
OS2WinAOffset: 1
OS2WinDescent: 0
OS2WinDOffset: 1
HheadAscent: 0
HheadAOffset: 1
HheadDescent: 0
HheadDOffset: 1
OS2Vendor: 'PfEd'
Lookup: 4 8 1 "'liga' Standard Ligatures lookup 2"  {"'liga' Standard Ligatures lookup 2 subtable"  } ['liga' ('latn' <'dflt' > ) ]
Lookup: 6 0 0 "'ccmp' Thai General Composition"  {"'ccmp' Thai Below Vowel Tone Reordering"  "'ccmp' Thai General Composition"  } ['ccmp' ('DFLT' <'dflt' > 'thai' <'KUY ' 'PAL ' 'THA ' 'dflt' > ) ]
Lookup: 6 0 0 "'ccmp' Thai Conditional Descender Removal"  {"'ccmp' Thai Conditional Descender Removal"  } ['ccmp' ('DFLT' <'dflt' > 'thai' <'KUY ' 'PAL ' 'THA ' 'dflt' > ) ]
Lookup: 5 0 0 "Required Thai Descender Removal"  {"Required Thai Descender Removal"  } [' RQD' ('thai' <'PAL ' > ) ]
Lookup: 1 0 0 "Thai Descender Removal Single Substitution"  {"Thai Descender Removal Single Substitution" ("descless" ) } []
Lookup: 2 0 0 "Thai Sara Am Decomposition"  {"Thai Sara Am Decomposition"  } []
Lookup: 2 0 0 "Thai Tone Nikhahit Attachment"  {"Thai Tone Nikhahit Attachment"  } []

StartChar: uni0E34
Encoding: 301 3636 0
Width: 0
Flags: W
HStem: 566 76<-356.19 -151.661> 713 66<-327.682 -206.809>
AnchorPoint: "AboveMark" -97 780 basemark 0
AnchorPoint: "AboveBase" -62 560 mark 0
LayerCount: 2
Back
SplineSet
-465 621 m 0
 -465 655 -388 766 -255 766 c 0
 -205 766 -131 735 -127 713 c 0
 -125 704 -116 688 -106 676 c 0
 -91 659 -65 591 -65 572 c 0
 -65 569 -74 566 -85 566 c 0
 -96 566 -105 570 -105 575 c 0
 -105 580 -151 584 -223 584 c 0
 -437 585 -465 599 -465 621 c 0
-131 619 m 0
 -129 619 -128 619 -128 621 c 0
 -128 634 -193 704 -217 714 c 0
 -236 722 -253 726 -269 726 c 0
 -299 726 -327 712 -362 682 c 2
 -411 639 l 1
 -377 633 l 2
 -364 630 -347 629 -333 629 c 0
 -312 629 -317 631 -292 631 c 0
 -239 631 -157 619 -131 619 c 0
EndSplineSet
Fore
SplineSet
-52 572 m 1
 -53 570 -53 553 -84 553 c 0
 -98 553 -110 558 -115 566 c 1
 -171 578 -397 563 -457 591 c 0
 -471 597 -478 607 -478 621 c 0
 -478 662 -395 779 -255 779 c 0
 -192 779 -120 745 -114 716 c 0
 -113 711 -107 697 -96 684 c 0
 -79 664 -52 595 -52 572 c 1
-382 647 m 1
 -372 645 -358 642 -333 642 c 0
 -314 642 -318 644 -292 644 c 0
 -248 644 -185 636 -150 633 c 1
 -198 695 -232 713 -269 713 c 0
 -295 713 -319 701 -353 672 c 2
 -382 647 l 1
EndSplineSet
EndChar

StartChar: uni0E35
Encoding: 302 3637 1
Width: 0
Flags: W
HStem: 628 83<-347.592 -274> 718 65<-350.396 -276.172>
AnchorPoint: "AboveMark" -83 780 basemark 0
AnchorPoint: "AboveBase" -62 560 mark 0
LayerCount: 2
Back
SplineSet
-122 681 m 0xb0
 -117 681 -113 693 -113 738 c 0
 -113 763 -110 791 -105 799 c 0
 -100 808 -87 814 -74 814 c 2
 -52 814 l 1
 -58 725 l 2
 -65 637 -69 591 -94 591 c 0xa8
 -117 591 -172 641 -172 641 c 1
 -173 641 -249 644 -342 647 c 0x68
 -495 651 -523 653 -523 676 c 0
 -523 694 -477 731 -467 731 c 0
 -445 731 -466 748 -376 764 c 0
 -352 768 -330 770 -310 770 c 0
 -186 770 -153 681 -122 681 c 0xb0
-222 702 m 0
 -222 707 -270 731 -317 731 c 0
 -361 731 -355 714 -394 714 c 0
 -408 714 -419 711 -419 706 c 0
 -419 701 -380 698 -321 698 c 0x70
 -266 698 -222 700 -222 702 c 0
EndSplineSet
Fore
SplineSet
-128 697 m 1
 -120 750 -142 827 -74 827 c 2
 -38 827 l 1
 -45 724 l 1
 -52 639 -55 578 -94 578 c 0
 -118 578 -155 609 -177 628 c 1
 -493 639 -536 631 -536 676 c 1
 -532 709 -482 744 -467 744 c 0
 -457 744 -462 762 -378 777 c 0
 -354 781 -333 783 -314 783 c 0
 -195 783 -156 714 -128 697 c 1
-351 711 m 1
 -340 711 -329 711 -318 711 c 0
 -300 711 -284 712 -274 712 c 1
 -287 715 -301 718 -317 718 c 0
 -334 718 -343 715 -351 711 c 1
EndSplineSet
EndChar

StartChar: uni0E36
Encoding: 303 3638 2
Width: 0
Flags: W
HStem: 533 21G<-266.5 -232.5> 578 60<-487 -309.01> 695 66<-452.223 -320.588>
AnchorPoint: "AboveMark" -148 780 basemark 0
AnchorPoint: "AboveBase" -92 560 mark 0
LayerCount: 2
Back
SplineSet
-136 708 m 0x9c
 -109 708 -89 704 -89 665 c 0
 -89 635 -129 571 -161 571 c 0xdc
 -173 571 -188 590 -207 590 c 0
 -225 590 -220 546 -248 546 c 0
 -258 546 -268 555 -271 573 c 0
 -273 591 -275 596 -294 596 c 0
 -310 596 -326 593 -453 591 c 2
 -553 589 l 1xbc
 -556 613 l 2
 -558 642 -545 648 -529 673 c 0
 -525 681 -499 701 -472 718 c 0
 -430 743 -415 748 -380 748 c 0
 -327 748 -293 728 -266 682 c 0
 -255 663 -243 647 -239 647 c 0
 -221 647 -178 708 -136 708 c 0x9c
-508 631 m 0
 -508 626 -496 625 -489 625 c 0xb8
 -472 625 -429 628 -385 632 c 0
 -320 640 -294 644 -294 657 c 0
 -294 664 -302 673 -316 687 c 0
 -333 703 -343 708 -366 708 c 0
 -434 708 -446 700 -480 664 c 0
 -499 644 -508 635 -508 631 c 0
-156 617 m 0xda
 -145 617 -129 651 -129 658 c 0
 -129 663 -134 663 -144 663 c 0
 -160 663 -170 654 -170 641 c 0
 -170 632 -164 617 -156 617 c 0xda
EndSplineSet
Fore
SplineSet
-160 558 m 0
 -178 558 -192 576 -206 577 c 1
 -211 569 -217 533 -248 533 c 1
 -285 537 -283 575 -286 582 c 0
 -287 582 -289 583 -294 583 c 0
 -310 583 -326 581 -453 578 c 2
 -564 576 l 1
 -569 612 l 1
 -569 619 l 2
 -569 633 -570 643 -538 684 c 0
 -528 697 -499 717 -479 729 c 0
 -433 757 -416 761 -380 761 c 0
 -278 761 -259 687 -236 661 c 1
 -220 671 -178 721 -136 721 c 0
 -106 721 -76 716 -76 665 c 0
 -76 626 -121 558 -160 558 c 0
-155 633 m 1
 -151 637 -148 645 -145 650 c 1
 -154 650 -157 646 -157 641 c 0
 -157 638 -156 635 -155 633 c 1
-308 659 m 1
 -310 662 -314 667 -325 678 c 0
 -341 694 -349 695 -366 695 c 0
 -429 695 -438 690 -471 655 c 2
 -487 638 l 1
 -448 638 -328 649 -308 659 c 1
EndSplineSet
EndChar

StartChar: uni0E37
Encoding: 304 3639 3
Width: 0
Flags: W
HStem: 586 71<-482.157 -309.378> 711 68<-456.36 -333.94>
VStem: -264 96<735.351 848.439> -145 98<648.686 846.419>
AnchorPoint: "AboveMark" -156 780 basemark 0
AnchorPoint: "AboveBase" -62 560 mark 0
LayerCount: 2
Back
SplineSet
-132 776 m 0x89
 -132 837 -112 851 -102 851 c 0
 -96 851 -88 846 -78 837 c 0
 -66 826 -61 803 -61 748 c 0
 -61 680 -73 646 -95 646 c 0
 -98 646 -101 647 -105 648 c 0
 -120 653 -132 722 -132 776 c 0x89
-551 647 m 0
 -551 695 -492 766 -392 766 c 0x5d
 -350 766 -310 753 -279 727 c 2
 -256 709 l 1
 -251 772 l 2
 -247 810 -239 839 -231 843 c 0
 -222 848 -216 851 -211 851 c 0
 -206 851 -181 843 -181 810 c 0x8b
 -181 777 -200 687 -200 646 c 0
 -200 630 -203 609 -206 601 c 0
 -210 592 -221 587 -232 587 c 0x8d
 -265 587 -256 614 -285 614 c 0x2d
 -304 614 -363 599 -433 599 c 0x4d
 -492 599 -551 608 -551 647 c 0
-296 661 m 0
 -296 686 -353 724 -397 724 c 0
 -442 724 -496 683 -496 666 c 0
 -496 653 -487 644 -338 644 c 0
 -300 644 -296 648 -296 661 c 0
EndSplineSet
Fore
SplineSet
-397 711 m 0
 -433 711 -478 679 -483 667 c 1
 -471 661 -405 657 -358 657 c 0
 -333 657 -313 657 -309 659 c 1
 -309 674 -350 711 -397 711 c 0
-281 601 m 1
 -306 601 -354 586 -433 586 c 0
 -481 586 -564 591 -564 647 c 0
 -564 705 -497 779 -392 779 c 0
 -329 779 -294 755 -267 734 c 1
 -264 773 l 1
 -259 813 -253 864 -211 864 c 0
 -202 864 -168 853 -168 810 c 0
 -168 773 -187 687 -187 646 c 0
 -187 601 -198 574 -230 574 c 0
 -269 574 -267 599 -281 601 c 1
-47 751 m 0
 -47 693 -57 633 -95 633 c 0
 -102 633 -112 635 -118 641 c 0
 -138 662 -145 742 -145 773 c 0
 -145 835 -127 863 -104 863 c 0
 -93 863 -81 858 -69 847 c 0
 -54 833 -47 792 -47 751 c 0
EndSplineSet
EndChar

StartChar: uni0E38
Encoding: 305 3640 4
Width: 0
Flags: W
HStem: -146 52<-273 -241.004> -81 56<-271.913 -241.114>
VStem: -233 64<-293.626 -145.63>
AnchorPoint: "BelowBase" -182 -38 mark 0
LayerCount: 2
Back
SplineSet
-323 -106 m 0
 -323 -87 -283 -38 -246 -38 c 0
 -227 -38 -210 -49 -199 -71 c 0
 -191 -88 -188 -113 -186 -191 c 2
 -183 -289 l 1
 -197 -285 l 2
 -218 -276 -220 -279 -220 -200 c 2
 -220 -132 l 1
 -267 -133 l 2
 -294 -133 -323 -139 -323 -106 c 0
-276 -107 m 0
 -228 -107 -228 -102 -228 -87 c 0
 -228 -74 -229 -68 -254 -68 c 0
 -282 -68 -289 -102 -289 -102 c 1
 -289 -106 -285 -107 -276 -107 c 0
EndSplineSet
Fore
SplineSet
-336 -108 m 0
 -336 -76 -286 -25 -246 -25 c 0
 -230 -25 -203 -31 -187 -65 c 0
 -177 -86 -175 -117 -173 -191 c 2
 -169 -306 l 1
 -201 -297 l 2
 -230 -289 -233 -285 -233 -200 c 2
 -233 -145 l 1
 -267 -146 l 2
 -274 -146 -281 -146 -288 -146 c 0
 -330 -146 -336 -121 -336 -108 c 0
-241 -86 m 0
 -241 -83 -242 -81 -251 -81 c 0
 -258 -81 -267 -83 -273 -94 c 1
 -259 -94 l 2
 -246 -94 -241 -93 -241 -86 c 0
EndSplineSet
Substitution2: "Thai Sara U Mai Ek Reordering" uni0E48.low
Substitution2: "Thai Sara U Mai Tho Reordering" uni0E49.low
Substitution2: "Thai Sara U Mai Tri Reordering" uni0E4A.low
Substitution2: "Thai Sara U Mai Chattawa Reordering" uni0E4B.low
Substitution2: "Thai Sara U Thanthakhat Reordering" uni0E4C.low
Substitution2: "Thai Sara U Nikhahit Reordering" uni0E4D
EndChar

StartChar: uni0E39
Encoding: 306 3641 5
Width: 0
Flags: W
HStem: -137 43<-339 -293.099> -82 44<-319.905 -293.101>
VStem: -220 68<-126.792 -46.5183>
AnchorPoint: "BelowBase" -182 -38 mark 0
LayerCount: 2
Back
SplineSet
-369 -103 m 0
 -369 -86 -328 -51 -296 -51 c 0
 -276 -51 -247 -70 -247 -84 c 0
 -247 -88 -244 -92 -241 -92 c 0
 -238 -92 -235 -99 -235 -106 c 0
 -235 -114 -232 -135 -228 -152 c 2
 -221 -183 l 1
 -214 -165 l 2
 -201 -120 -204 -53 -183 -53 c 0
 -176 -53 -165 -59 -165 -81 c 0
 -165 -117 -195 -242 -220 -242 c 0
 -232 -242 -247 -222 -247 -203 c 0
 -247 -177 -264 -115 -272 -115 c 0
 -279 -115 -299 -125 -318 -125 c 0
 -338 -125 -369 -116 -369 -103 c 0
-280 -88 m 0
 -280 -81 -290 -69 -301 -69 c 0
 -310 -69 -334 -78 -334 -91 c 0
 -334 -99 -323 -107 -309 -107 c 0
 -296 -107 -280 -100 -280 -88 c 0
EndSplineSet
Fore
SplineSet
-382 -103 m 0
 -382 -77 -334 -38 -296 -38 c 0
 -265 -38 -238 -60 -234 -81 c 1
 -226 -84 -222 -95 -222 -106 c 0
 -222 -110 -221 -119 -220 -127 c 1
 -214 -90 -211 -40 -184 -40 c 0
 -158 -40 -152 -66 -152 -80 c 0
 -152 -94 -174 -255 -221 -255 c 0
 -227 -255 -234 -253 -241 -246 c 0
 -271 -219 -251 -189 -277 -129 c 1
 -293 -134 -308 -137 -322 -137 c 0
 -356 -137 -382 -123 -382 -103 c 0
-320 -91 m 1
 -317 -93 -314 -94 -310 -94 c 0
 -302 -94 -294 -90 -293 -88 c 1
 -295 -83 -299 -82 -303 -82 c 0
 -310 -82 -318 -89 -320 -91 c 1
EndSplineSet
Substitution2: "Thai Sara UU Mai Ek Reordering" uni0E48.low
Substitution2: "Thai Sara UU Mai Tho Reordering" uni0E49.low
Substitution2: "Thai Sara UU Mai Tri Reordering" uni0E4A.low
Substitution2: "Thai Sara UU Mai Chattawa Reordering" uni0E4B.low
Substitution2: "Thai Sara UU Thanthakhat Reordering" uni0E4C.low
Substitution2: "Thai Sara UU Nikhahit Reordering" uni0E4D
EndChar

StartChar: uni0E3A
Encoding: 307 3642 6
Width: 0
Flags: W
HStem: -212 171<-306.515 -225.139>
VStem: -354 171<-169.226 -89.375>
AnchorPoint: "BelowBase" -182 -38 mark 0
LayerCount: 2
Back
SplineSet
-341 -151 m 0
 -341 -107 -300 -54 -245 -54 c 0
 -212 -54 -196 -78 -196 -107 c 0
 -196 -148 -228 -199 -289 -199 c 0
 -325 -199 -341 -178 -341 -151 c 0
EndSplineSet
Fore
SplineSet
-245 -41 m 0
 -208 -41 -183 -67 -183 -107 c 0
 -183 -154 -220 -212 -289 -212 c 0
 -334 -212 -354 -183 -354 -151 c 0
 -354 -100 -308 -41 -245 -41 c 0
EndSplineSet
Substitution2: "Thai Phinthu Maitaikhu Reordering" uni0E47
Substitution2: "Thai Phinthu Mai Ek Reordering" uni0E48.low
Substitution2: "Thai Phinthu Mai Tho Reordering" uni0E49.low
Substitution2: "Thai Phinthu Mai Tri Reordering" uni0E4A.low
Substitution2: "Thai Phinthu Mai Chattawa Reordering" uni0E4B.low
Substitution2: "Thai Phinthu Thanthakhat Reordering" uni0E4C.low
Substitution2: "Thai Phinthu Nikhahit Reordering" uni0E4D
EndChar

StartChar: uni0E48
Encoding: 317 3656 7
Width: 0
Flags: W
VStem: -141 65<833.317 963.875> -133 57<849.125 983>
AnchorPoint: "AboveMark" -108 780 mark 0
LayerCount: 2
Back
SplineSet
-121 970 m 1
 -89 970 l 1
 -89 877 l 2
 -89 873 -88 868 -88 863 c 0
 -88 853 -93 844 -127 843 c 1
 -121 970 l 1
EndSplineSet
Fore
SplineSet
-133 983 m 1x40
 -76 983 l 1x40
 -76 866 l 2
 -76 847 -80 830 -127 830 c 2
 -141 830 l 1x80
 -133 983 l 1x40
EndSplineSet
MultipleSubs2: "Thai Tone Nikhahit Attachment" uni0E4D uni0E48
Substitution2: "Thai Tone Low Variant" uni0E48.low
Substitution2: "Thai Sara U Mai Ek Reordering" uni0E38
Substitution2: "Thai Sara UU Mai Ek Reordering" uni0E39
Substitution2: "Thai Phinthu Mai Ek Reordering" uni0E3A
EndChar

StartChar: uni0E49
Encoding: 318 3657 8
Width: 0
Flags: W
VStem: -183 108<942.938 993.32>
AnchorPoint: "AboveMark" -100 780 mark 0
LayerCount: 2
Back
SplineSet
-88 945 m 0x70
 -88 911 -100 905 -100 898 c 2
 -100 897 l 1
 -97 897 -13 992 -11 996 c 0
 -7 1002 -0 1005 6 1005 c 0
 12 1005 18 1003 18 993 c 0
 18 968 -49 916 -49 906 c 0
 -49 902 -143 813 -156 813 c 0
 -166 813 -186 786 -200 786 c 0xb0
 -205 786 -212 788 -212 797 c 0
 -212 810 -197 834 -169 864 c 2
 -147 889 l 1
 -153 901 l 2
 -166 924 -170 927 -170 959 c 0
 -170 974 -168 989 -165 992 c 0
 -163 995 -151 997 -139 997 c 0
 -119 997 -116 996 -103 982 c 0
 -89 969 -88 966 -88 945 c 0x70
-115 947 m 0
 -115 955 -135 969 -139 969 c 0x70
 -141 969 -142 965 -142 959 c 0
 -142 946 -132 922 -126 922 c 0
 -122 922 -115 941 -115 947 c 0
EndSplineSet
Fore
SplineSet
-75 942 m 1
 -14 1010 -15 1018 6 1018 c 0
 26 1018 31 1003 31 993 c 1
 27 957 -26 920 -37 902 c 1
 -40 890 -135 802 -154 800 c 1
 -162 797 -181 773 -200 773 c 0
 -213 773 -225 780 -225 795 c 0
 -225 811 -213 836 -179 873 c 2
 -163 891 l 1
 -176 917 -183 919 -183 957 c 0
 -183 997 -179 1010 -139 1010 c 0
 -112 1010 -110 1007 -94 991 c 0
 -79 976 -75 975 -75 942 c 1
EndSplineSet
MultipleSubs2: "Thai Tone Nikhahit Attachment" uni0E4D uni0E49
Substitution2: "Thai Tone Low Variant" uni0E49.low
Substitution2: "Thai Sara U Mai Tho Reordering" uni0E38
Substitution2: "Thai Sara UU Mai Tho Reordering" uni0E39
Substitution2: "Thai Phinthu Mai Tho Reordering" uni0E3A
EndChar

StartChar: uni0E4B
Encoding: 320 3659 9
Width: 0
Flags: W
HStem: 864 74<-206.913 -128.218> 884 55<-49 1>
VStem: -131 54<808 838> -124 58<939 1009.12>
AnchorPoint: "AboveMark" -103 780 mark 0
LayerCount: 2
Back
SplineSet
-109 958 m 2x90
 -113 994 -111 997 -96 997 c 1x90
 -84 995 -80 985 -79 948 c 2
 -79 926 l 1
 -12 924 l 1
 -12 899 l 1
 -45 897 l 2x50
 -84 896 -83 911 -87 839 c 2
 -89 821 l 1
 -117 821 l 1xa0
 -116 841 l 2
 -115 867 -114 879 -113 886 c 2
 -110 898 l 1
 -133 895 l 2
 -172 892 -201 858 -203 891 c 0
 -205 903 -203 905 -185 914 c 0
 -173 920 -155 924 -136 925 c 2
 -106 927 l 1
 -109 958 l 2x90
EndSplineSet
Fore
SplineSet
-195 864 m 0xa0
 -213 864 -217 884 -217 898 c 0
 -217 922 -174 936 -137 938 c 2xa0
 -120 939 l 1
 -122 957 l 2
 -123 967 -124 974 -124 981 c 0
 -124 1007 -110 1010 -95 1010 c 0
 -74 1010 -66 992 -66 948 c 2
 -66 939 l 1
 1 937 l 1
 1 887 l 1
 -44 884 l 1
 -49 884 l 1x50
 -74 838 l 1
 -77 808 l 1
 -131 808 l 1
 -129 842 l 2
 -128 863 -128 875 -127 883 c 1
 -153 880 -178 864 -195 864 c 0xa0
EndSplineSet
MultipleSubs2: "Thai Tone Nikhahit Attachment" uni0E4D uni0E4B
Substitution2: "Thai Tone Low Variant" uni0E4B.low
Substitution2: "Thai Sara U Mai Chattawa Reordering" uni0E38
Substitution2: "Thai Sara UU Mai Chattawa Reordering" uni0E39
Substitution2: "Thai Phinthu Mai Chattawa Reordering" uni0E3A
EndChar

StartChar: uni0E4C
Encoding: 321 3660 10
Width: 0
Flags: W
HStem: 811 92<-132.504 -70.0972> 928 59<-129.832 -43.9576>
VStem: -200 142<833.844 891.602> -41 82<979.514 1034.01>
AnchorPoint: "AboveMark" -60 780 mark 0
LayerCount: 2
Back
SplineSet
-131 824 m 0x86
 -153 824 -187 851 -187 879 c 0
 -187 914 -131 974 -95 974 c 0x18
 -76 974 -51 969 -43 963 c 0
 -41 961 -39 960 -38 960 c 0x28
 -29 960 -8 1033 1 1045 c 0
 5 1050 10 1052 14 1052 c 0x88
 21 1052 28 1047 28 1038 c 0
 28 1012 -14 911 -25 911 c 0x28
 -37 911 -53 941 -85 941 c 0x18
 -112 941 -148 914 -148 901 c 0
 -148 893 -137 888 -115 886 c 0
 -76 882 -71 879 -71 862 c 0
 -71 831 -113 824 -131 824 c 0x86
-127 855 m 0
 -127 853 -120 843 -109 843 c 0
 -101 843 -94 848 -94 855 c 0x42
 -94 862 -100 866 -108 866 c 0
 -117 866 -127 859 -127 855 c 0
EndSplineSet
Fore
SplineSet
-24 898 m 0
 -46 898 -57 928 -85 928 c 0
 -107 928 -127 911 -133 903 c 1
 -110 894 -58 906 -58 862 c 0
 -58 821 -107 811 -131 811 c 0
 -163 811 -200 846 -200 879 c 0
 -200 922 -138 987 -95 987 c 0
 -75 987 -53 982 -41 977 c 1
 -22 1016 -19 1065 14 1065 c 0
 36 1065 41 1047 41 1039 c 0
 41 1012 0 898 -24 898 c 0
EndSplineSet
MultipleSubs2: "Thai Tone Nikhahit Attachment" uni0E4D uni0E4C
Substitution2: "Thai Tone Low Variant" uni0E4C.low
Substitution2: "Thai Sara U Thanthakhat Reordering" uni0E38
Substitution2: "Thai Sara UU Thanthakhat Reordering" uni0E39
Substitution2: "Thai Phinthu Thanthakhat Reordering" uni0E3A
EndChar

StartChar: exclam
Encoding: 1 33 12
Width: 519
Flags: W
HStem: 6 130<223.76 297.244> 545 20G<216.5 240>
VStem: 188 144<12.1261 103.299>
LayerCount: 2
Back
SplineSet
274 2 m 0
 260 2 238 17 229 17 c 0
 217 17 201 36 201 50 c 0
 201 69 228 112 244 119 c 0
 250 122 258 123 267 123 c 0
 315 123 319 100 319 83 c 0
 319 60 304 2 274 2 c 0
212 534 m 0
 212 552 219 552 232 552 c 0
 247 552 278 546 309 544 c 2
 344 540 l 1
 341 503 l 2
 336 447 302 376 279 251 c 0
 276 233 270 224 262 224 c 0
 235 224 242 284 225 429 c 0
 223 440 222 455 222 468 c 0
 222 485 227 510 219 516 c 0
 215 518 212 526 212 534 c 0
EndSplineSet
Fore
SplineSet
211 499 m 0
 211 513 199 509 199 535 c 0
 199 536 199 537 199 538 c 0
 199 547 201 565 232 565 c 0
 248 565 279 559 310 557 c 1
 358 551 l 1
 354 502 l 2
 349 442 316 379 292 249 c 0
 287 222 274 211 261 211 c 0
 220 211 229 286 212 427 c 0
 210 439 209 454 209 468 c 0
 209 478 211 490 211 499 c 0
229 4 m 1
 205 7 188 32 188 50 c 0
 188 82 220 122 238 131 c 0
 248 136 261 136 267 136 c 0
 320 136 332 109 332 84 c 0
 332 46 310 -11 276 -11 c 0
 257 -11 242 6 234 6 c 0
 232 6 231 6 229 4 c 1
EndSplineSet
EndChar

StartChar: quotedbl
Encoding: 2 34 13
Width: 572
Flags: W
VStem: 173 125<516.087 641.721> 173 114<527.94 676.93> 295 98<488.946 707.666>
LayerCount: 2
Back
SplineSet
194 695 m 0xc0
 202 705 210 709 218 709 c 0
 247 709 258 663 274 594 c 0
 282 567 285 544 285 525 c 0xa0
 285 491 274 470 254 470 c 0
 246 470 238 473 229 478 c 0
 208 490 186 591 186 652 c 0
 186 672 189 688 194 695 c 0xc0
308 677 m 0x90
 308 704 311 735 328 735 c 0
 336 735 345 726 357 708 c 0
 374 678 380 579 380 522 c 0xc0
 380 485 376 470 360 470 c 0
 349 470 337 478 330 492 c 0
 319 515 308 618 308 677 c 0x90
EndSplineSet
Fore
SplineSet
393 531 m 0x20
 393 487 390 457 361 457 c 0
 345 457 327 468 318 486 c 0
 304 515 295 623 295 676 c 0
 295 703 297 748 328 748 c 0
 348 748 365 721 368 715 c 0
 385 686 393 591 393 531 c 0x20
173 654 m 0x40
 173 677 179 722 219 722 c 0
 256 722 268 678 287 597 c 1x40
 295 570 298 547 298 527 c 0x80
 298 483 281 457 254 457 c 0
 239 457 223 465 215 474 c 0
 189 504 173 604 173 654 c 0x40
EndSplineSet
EndChar

StartChar: numbersign
Encoding: 3 35 14
Width: 655
Flags: W
HStem: 132 86<84.5 181.969> 353 85<98.4021 230.021> 395 84<331.109 382.313>
VStem: 174 92<2.83925 131.172> 251 80<479.617 577.485> 344 85<87.1333 151.068>
LayerCount: 2
Back
SplineSet
338 466 m 0xa4
 456 466 412 582 458 582 c 0
 480 582 482 567 482 552 c 0
 482 538 480 531 480 517 c 0
 480 493 487 494 510 494 c 0
 523 494 537 490 537 473 c 0
 537 452 509 422 491 422 c 0
 485 422 484 424 480 424 c 0
 468 424 466 410 449 305 c 2
 441 261 l 1
 506 267 l 2
 527 269 542 270 551 270 c 0
 566 270 569 267 569 260 c 0x98
 569 224 548 218 504 207 c 0
 422 185 417 182 416 131 c 0
 415 58 405 35 373 31 c 2
 344 28 l 1
 351 97 l 1
 359 165 l 1x92
 324 165 l 2
 273 165 266 156 253 82 c 0
 243 21 230 -9 214 -9 c 0
 209 -9 187 -5 187 36 c 0
 187 47 188 60 190 78 c 2
 197 145 l 1
 140 145 l 2
 83 145 75 152 75 163 c 0
 75 181 109 201 154 205 c 0
 210 211 217 219 229 286 c 0
 232 309 238 339 242 353 c 2
 248 378 l 1
 175 370 l 2
 151 368 135 366 125 366 c 0
 103 366 102 372 102 388 c 0
 102 408 111 414 148 425 c 0
 174 432 205 437 218 437 c 0xc8
 250 437 256 448 264 515 c 0
 269 559 273 572 300 572 c 0
 314 572 315 562 318 519 c 0
 320 475 321 466 338 466 c 0xa4
358 235 m 0
 385 242 397 381 397 383 c 0
 397 401 391 407 379 407 c 0xa0
 372 407 362 405 350 402 c 0
 304 392 305 393 289 272 c 2
 282 217 l 1
 312 223 l 2
 328 227 349 232 358 235 c 0
EndSplineSet
Fore
SplineSet
309 236 m 2xa4
 322 239 345 244 354 247 c 1
 369 256 383 355 383 388 c 0
 383 392 383 395 377 395 c 0
 373 395 365 393 353 389 c 1
 315 380 317 387 302 270 c 2
 297 233 l 1
 309 236 l 2xa4
215 -22 m 0
 196 -22 174 -7 174 36 c 0xb4
 174 48 175 61 177 79 c 2
 183 132 l 1
 140 132 l 2
 96 132 62 135 62 162 c 0
 62 199 120 215 153 218 c 0
 202 223 205 226 216 288 c 1
 221 326 227 348 231 363 c 1
 176 357 l 2
 155 355 137 353 124 353 c 0
 100 353 89 360 89 386 c 0
 89 407 90 423 144 438 c 0
 245 466 240 423 251 517 c 0
 255 550 259 585 297 585 c 0
 324 585 331 563 331 526 c 2
 331 502 l 2xcc
 331 489 332 479 338 479 c 0
 421 480 409 537 427 574 c 0
 433 587 448 596 462 596 c 0
 479 596 495 583 495 552 c 1
 505 507 l 1
 510 507 l 2
 530 507 550 498 550 473 c 1
 547 435 510 409 491 409 c 0
 485 409 483 410 482 410 c 0
 479 402 474 379 462 303 c 1
 457 276 l 1
 505 280 l 2
 526 282 541 283 551 283 c 0
 568 283 582 278 582 260 c 0
 582 211 544 204 507 194 c 0
 430 174 430 174 429 131 c 0
 428 55 415 23 374 18 c 2
 329 13 l 1
 344 152 l 1
 324 152 l 2
 281 152 278 148 266 80 c 0xb4
 262 59 251 -22 215 -22 c 0
EndSplineSet
EndChar

StartChar: dollar
Encoding: 4 36 15
Width: 706
Flags: W
VStem: 153 97<415.257 470.271> 248 73<-144.962 -20.4977> 290 80<183.156 313.629> 444 82<173.749 292.808>
LayerCount: 2
Back
SplineSet
459 474 m 0xc0
 432 474 380 527 366 527 c 0
 364 527 358 486 355 458 c 2
 349 391 l 1
 381 375 l 2
 436 347 466 300 466 247 c 0x88
 466 190 423 94 349 72 c 0
 298 58 291 44 279 -57 c 0
 274 -101 268 -139 266 -141 c 1
 264 -142 242 -147 229 -147 c 0
 217 -147 214 -143 214 -125 c 0
 214 -84 224 -16 229 11 c 2
 241 82 l 1
 205 113 l 2
 159 152 126 219 126 255 c 0xc0
 126 271 132 281 146 281 c 0
 174 281 186 226 227 173 c 2
 246 149 l 1
 253 188 l 2
 263 243 278 282 278 312 c 0
 278 331 271 340 254 344 c 0
 214 355 171 395 171 430 c 0xb0
 171 475 224 555 270 576 c 0
 305 592 308 597 319 657 c 0
 325 693 333 730 336 739 c 0
 339 750 351 756 367 756 c 0
 384 756 390 755 390 743 c 0
 390 723 372 647 372 599 c 0
 372 585 374 578 378 578 c 0
 391 578 472 501 472 488 c 0
 472 479 467 474 459 474 c 0xc0
281 380 m 0
 288 380 298 446 298 493 c 0
 298 508.977 294.573 541.136 294 544 c 1
 261 500 l 2
 243 476 228 449 228 439 c 0xa0
 228 422 266 380 281 380 c 0
410 246 m 0x98
 410 309 351 331 351 331 c 1
 335 331 310 185 310 123 c 0
 310 104 313 95 319 95 c 0
 334 95 410 171 410 246 c 0x98
EndSplineSet
Fore
SplineSet
370 112 m 1x30
 390 127 444 182 444 246 c 0
 444 286 408 307 390 315 c 1
 375 287 370 178 370 131 c 2
 370 112 l 1x30
250 439 m 0x90
 250 430 282 407 296 397 c 1
 300 414 306 454 306 491 c 0
 306 497 305 503 305 509 c 1
 292 492 l 1
 258 459 250 441 250 439 c 0x90
429 591 m 2
 429 581 l 1
 452 573 532 504 532 483 c 0
 532 467 522 457 506 457 c 1
 475 459 440 490 416 503 c 1
 413 490 409 470 407 453 c 2
 401 396 l 1
 431 384 l 1
 492 355 526 305 526 249 c 0
 526 186 478 89 400 67 c 0
 357 55 351 47 339 -48 c 0
 331 -116 328 -132 321 -139 c 1
 317 -141 297 -147 280 -147 c 0
 251 -147 248 -132 248 -113 c 0x50
 248 -73 258 -6 263 21 c 2
 274 83 l 1
 244 109 l 2
 198 148 162 179 126 236 c 0
 119 247 117 255 117 262 c 0
 117 276 126 283 126 287 c 0
 126 293 134 294 141 294 c 0
 144 294 152 294 163 286 c 0
 188 267 245 232 285 183 c 1
 287 193 l 2
 289 204 290 220 290 235 c 0x30
 290 275 285 320 285 320 c 1
 283 326 277 329 264 331 c 0
 197 344 153 388 153 426 c 0
 153 475 209 558 285 580 c 1
 313 593 317 591 330 649 c 0
 350 737 351 745 380 753 c 0
 387 755 399 757 411 757 c 0
 430 757 450 752 450 731 c 0
 450 710 429 636 429 591 c 2
EndSplineSet
EndChar

StartChar: percent
Encoding: 5 37 16
Width: 786
Flags: W
HStem: 329 170<175.131 255.495> 544 20G<640 666.5>
VStem: 154 129<358.25 472.303>
LayerCount: 2
Back
SplineSet
440 78 m 0
 440 104 492 195 530 195 c 0
 554 195 579 156 579 140 c 0
 579 121 542 42 486 42 c 0
 461 42 440 64 440 78 c 0
154 408 m 0
 154 457 181 486 200 486 c 0
 212 486 255 467 255 419 c 0
 255 381 230 342 194 342 c 0
 169 342 154 374 154 408 c 0
100 -47 m 0
 97 -47 76 -43 76 -25 c 0
 76 -5 103 28 160 85 c 0
 251 175 381 323 449 415 c 0
 497 480 591 564 618 564 c 0
 628 564 632 555 632 538 c 0
 632 484 464 337 368 208 c 0
 348 180 283 110 223 52 c 0
 151 -20 117 -47 100 -47 c 0
EndSplineSet
Fore
SplineSet
655 564 m 0
 678 564 684 547 684 527 c 0
 684 467 513 334 406 203 c 0
 379 170 299 95 249 52 c 0
 184 -5 140 -47 113 -47 c 0
 95 -47 76 -33 76 -13 c 0
 76 10 101 41 164 101 c 1
 259 187 396 329 470 416 c 0
 526 482 625 564 655 564 c 0
212 499 m 0
 237 499 283 469 283 419 c 0
 283 377 253 329 207 329 c 0
 175 329 154 365 154 408 c 0
 154 461 182 499 212 499 c 0
522 29 m 0
 494 29 459 51 459 78 c 0
 459 109 518 208 569 208 c 0
 611 208 631 156 631 140 c 0
 631 114 589 29 522 29 c 0
EndSplineSet
EndChar

StartChar: ampersand
Encoding: 6 38 17
Width: 734
Flags: W
HStem: -58 96<190.95 248.706> 21 108<538.61 629.26>
VStem: 103 87<38.9227 151.877> 144 102<411.418 524.26>
DStem2: 188 303 223 176 0.438835 0.898567<-206.693 -45.0956>
LayerCount: 2
Back
SplineSet
208 -45 m 0xd8
 184 -45 116 -23 116 65 c 0xe8
 116 105 129 152 158 211 c 2
 202 302 l 1
 184 357 l 2
 166 409 157 448 157 479 c 0
 157 527 180 556 229 586 c 0
 256 602 284 613 296 613 c 0
 299 613 314 608 329 608 c 0
 344 608 365 555 365 527 c 0
 365 473 285 346 285 311 c 0
 285 285 377 199 408 199 c 0
 457 199 502 352 559 352 c 0
 574 352 592 335 592 323 c 0
 592 294 483 183 483 154 c 0
 483 150 486 148 492 148 c 0
 514 148 527 116 562 116 c 0
 599 116 651 84 651 61 c 0
 651 43 638 34 616 34 c 0
 584 34 533 54 484 90 c 2
 446 117 l 1
 389 67 l 2
 355 37 244 -45 208 -45 c 0xd8
233 460 m 0xd8
 233 446 234 395 245 395 c 0
 252 395 265 405 276 417 c 0
 294 437 301 458 301 498 c 0
 301 535 299 551 289 551 c 0
 283 551 273 545 259 535 c 0
 237 521 233 508 233 460 c 0xd8
177 71 m 0xe8
 177 45 187 25 203 25 c 0
 232 25 329 100 364 106 c 0
 379 109 386 114 386 121 c 0
 386 146 304 178 266 222 c 2
 245 248 l 1
 211 182 l 2
 189 140 177 100 177 71 c 0xe8
EndSplineSet
Fore
SplineSet
190 71 m 0xa0
 190 59 193 39 203 38 c 1
 226 38 321 110 362 119 c 0
 367 120 371 121 373 122 c 1
 366 138 293 172 256 214 c 2
 247 224 l 1
 223 176 l 2
 198 128 190 92 190 71 c 0xa0
408 212 m 1
 449 216 493 365 559 365 c 0
 579 365 605 346 605 323 c 0
 605 289 515 197 498 160 c 1
 522 156 535 130 562 129 c 0
 615 128 664 88 664 62 c 0
 664 46 656 21 616 21 c 0x50
 579 21 524 44 476 79 c 2
 447 100 l 1
 398 57 l 2
 365 28 250 -58 208 -58 c 0
 178 -58 103 -31 103 65 c 0xa0
 103 108 117 157 146 217 c 2
 188 303 l 1
 172 353 l 2
 154 406 144 445 144 479 c 0x90
 144 532 169 565 222 597 c 0
 244 610 278 626 296 626 c 1
 296 626 335 621 341 617 c 0
 364 602 378 546 378 527 c 0
 378 469 298 342 298 311 c 0
 298 292 384 212 408 212 c 1
250 411 m 1
 286 436 288 473 288 493 c 0
 288 515 288 529 286 537 c 1
 282 535 275 530 266 524 c 0
 249 513 246 504 246 460 c 0
 246 446 247 423 250 411 c 1
EndSplineSet
EndChar

StartChar: quotesingle
Encoding: 7 39 18
Width: 613
Flags: W
HStem: 440 274<277.882 357.403>
VStem: 225 194<596.902 695.674> 242 116<478.681 558.698>
LayerCount: 2
Back
SplineSet
250 684 m 0xc0
 257 697 262 701 282 701 c 0
 308 701 392 690 401 685 c 0
 404 683 406 677 406 669 c 0xc0
 406 649 395 614 382 599 c 0
 374 590 363 554 358 519 c 0
 350 463 344 453 323 453 c 0
 289 453 257 498 255 551 c 0xa0
 252 619 238 596 238 632 c 0
 238 649 242 670 250 684 c 0xc0
EndSplineSet
Fore
SplineSet
267 713 m 0xc0
 270 714 276 714 281 714 c 0
 319 714 398 701 408 696 c 1
 415 689 419 685 419 669 c 0xc0
 419 648 409 609 392 590 c 0
 376 571 370 486 358 461 c 0
 350 443 336 440 323 440 c 0
 284 440 245 486 242 550 c 0xa0
 239 616 225 591 225 632 c 0
 225 659 234 707 267 713 c 0xc0
EndSplineSet
EndChar

StartChar: parenleft
Encoding: 8 40 19
Width: 651
Flags: W
VStem: 170 113<194.727 423.515>
LayerCount: 2
Back
SplineSet
476 -112 m 0x40
 476 -135 450 -140 440 -140 c 0
 372 -140 220 92 191 245 c 0
 186 268 183 283 183 302 c 0
 183 343 198 402 248 597 c 0
 272 694 297 745 345 796 c 0
 374 826 405 844 423 844 c 0
 432 844 438 840 438 829 c 0
 438 820 420 783 398 749 c 0
 344 663 270 423 270 296 c 0x80
 270 230 278 202 320 121 c 0
 348 66 396 -4 426 -33 c 0
 459 -65 476 -93 476 -112 c 0x40
EndSplineSet
Fore
SplineSet
423 857 m 0
 436 857 451 851 451 829 c 0
 451 810 418 756 409 742 c 0
 355 656 283 418 283 296 c 0
 283 231 292 204 332 127 c 0
 363 67 409 1 435 -24 c 0
 478 -66 489 -94 489 -112 c 1
 488 -122 488 -132 472 -143 c 0
 464 -148 453 -153 440 -153 c 0
 347 -153 170 157 170 302 c 0
 170 346 186 405 235 600 c 0
 260 698 286 753 336 805 c 0
 374 844 406 857 423 857 c 0
EndSplineSet
EndChar

StartChar: parenright
Encoding: 9 41 20
Width: 636
Flags: W
VStem: 350 110<158.918 544.605>
LayerCount: 2
Back
SplineSet
202 816 m 0x80
 202 833 215 837 225 837 c 0
 279 837 384 725 414 624 c 0
 436 554 447 440 447 337 c 0
 447 268 442 204 431 161 c 0
 390 0 335 -57 308 -128 c 0
 298 -156 285 -167 259 -167 c 0
 242 -167 215 -161 215 -151 c 0
 215 -136 240 -78 273 -14 c 0
 312 60 363 154 363 356 c 0x40
 363 649 235 761 230 763 c 0
 215 768 202 797 202 816 c 0x80
EndSplineSet
Fore
SplineSet
225 850 m 0
 287 850 395 733 426 628 c 1
 449 556 460 441 460 337 c 0
 460 267 455 203 444 158 c 0
 403 -4 346 -62 320 -132 c 0
 306 -170 281 -181 259 -181 c 0
 245 -181 202 -174 202 -150 c 0
 202 -132 233 -62 261 -8 c 0
 299 64 350 156 350 356 c 0
 349 636 234 744 223 752 c 1
 203 761 189 792 189 816 c 0
 189 836 203 850 225 850 c 0
EndSplineSet
EndChar

StartChar: asterisk
Encoding: 10 42 21
Width: 772
Flags: W
HStem: 305 116<547 639.109>
VStem: 171 101<521.628 604.696>
LayerCount: 2
Back
SplineSet
600 408 m 0
 630 408 646 405 646 362 c 0
 646 339 632 333 564 318 c 2
 517 308 l 1
 561 273 l 2
 586 253 597 243 597 230 c 0
 597 220 577 173 557 173 c 0
 527 173 443 254 421 254 c 0
 415 254 414 248 414 237 c 0
 414 198 442 187 442 168 c 0
 442 147 416 126 384 126 c 0
 372 126 366 129 354 129 c 0
 300 129 294 85 249 85 c 0
 228 85 212 98 212 123 c 0
 212 162 288 221 288 246 c 0
 288 259 269 263 231 263 c 0
 180 263 140 284 140 302 c 0
 140 308 145 315 159 319 c 0
 222 339 306 377 306 386 c 0
 306 404 184 507 184 568 c 0
 184 591 202 603 218 603 c 0
 238 603 259 585 259 560 c 0
 259 535 284 503 298 503 c 0
 304 503 306 513 306 535 c 0
 306 569 321 631 351 631 c 0
 383 631 379 569 393 514 c 0
 396 497 398 487 402 487 c 0
 408 487 417 500 437 529 c 0
 480 592 527 631 555 631 c 0
 570 631 585 619 585 601 c 0
 585 587 577 571 561 558 c 0
 539 539 477 431 477 411 c 0
 477 407 497 405 525 405 c 0
 555 405 578 408 600 408 c 0
EndSplineSet
Fore
SplineSet
199 123 m 0
 199 172 275 231 275 245 c 1
 261 256 173 239 136 281 c 0
 131 286 127 294 127 302 c 0
 127 306 128 322 155 331 c 0
 212 349 271 377 290 389 c 1
 270 418 171 507 171 568 c 0
 171 599 196 616 218 616 c 0
 246 616 272 593 272 560 c 1
 273 541 284 526 292 519 c 1
 292 519 294 644 350 644 c 0
 392 644 391 593 407 509 c 1
 422 528 494 644 555 644 c 0
 577 644 598 627 598 601 c 0
 598 582 587 563 569 548 c 1
 549 529 503 449 492 419 c 1
 499 418 510 418 525 418 c 0
 557 418 572 421 604 421 c 0
 640 421 659 409 659 362 c 0
 659 327 633 319 567 305 c 2
 547 301 l 1
 569 283 l 2
 589 267 610 251 610 232 c 0
 610 215 589 160 556 160 c 0
 526 160 454 224 427 238 c 1
 428 197 455 196 455 168 c 0
 455 136 418 113 384 113 c 0
 372 113 363 116 354 116 c 0
 307 116 299 72 249 72 c 0
 220 72 199 92 199 123 c 0
EndSplineSet
EndChar

StartChar: plus
Encoding: 11 43 22
Width: 715
Flags: W
HStem: 310 122<409.531 570.048>
VStem: 279 121<414 479> 288 104<419 583.117> 291 108<44.25 305> 299 92<7 267.75>
DStem2: 189 396 238 296 0.980581 0.196116<-76.46 82.1727>
LayerCount: 2
Back
SplineSet
586 419 m 0x80
 616 419 618 380 618 374 c 0
 618 336 546 343 421 323 c 2
 386 316 l 1x80
 378 20 l 1
 312 20 l 1x40
 304 320 l 1
 236 309 l 2
 187 302 154 298 131 298 c 0
 97 298 89 307 89 330 c 0
 89 361 96 365 191 383 c 2
 292 403 l 1
 292 471 l 2
 292 508 296 548 300 560 c 0
 305 572 322 581 339 581 c 0
 367 581 371 574 379 488 c 2
 388 395 l 1
 462 403 l 2
 537 410 574 419 586 419 c 0x80
EndSplineSet
Fore
SplineSet
586 432 m 0xc0
 616 430 631 403 631 379 c 0
 631 320 556 338 423 310 c 2
 399 305 l 1x90
 391 7 l 1
 299 7 l 1x88
 291 305 l 1x90
 238 296 l 2
 193 288 158 285 132 285 c 0
 94 285 76 295 76 329 c 0
 76 374 95 377 189 396 c 2
 279 414 l 1
 279 471 l 2xc0
 279 499 282 548 288 565 c 1
 298 584 320 595 340 595 c 0
 387 595 387 546 392 489 c 2xa0
 400 409 l 1
 461 416 l 2
 536 425 574 432 586 432 c 0xc0
EndSplineSet
EndChar

StartChar: comma
Encoding: 12 44 23
Width: 496
Flags: W
LayerCount: 2
Back
SplineSet
215 45 m 0
 272 159 296 196 315 196 c 0
 336 196 347 188 347 168 c 0
 347 140 326 90 283 8 c 0
 201 -146 192 -160 170 -160 c 0
 155 -160 147 -152 147 -134 c 0
 147 -105 169 -47 215 45 c 0
EndSplineSet
Fore
SplineSet
318 209 m 0
 335 209 360 201 360 168 c 0
 360 135 335 79 294 2 c 0
 210 -158 199 -173 170 -173 c 0
 154 -173 134 -165 134 -134 c 0
 134 -99 161 -33 203 51 c 0
 267 178 288 209 318 209 c 0
EndSplineSet
EndChar

StartChar: hyphen
Encoding: 13 45 24
Width: 931
Flags: W
HStem: 329 140<219.232 765.406>
LayerCount: 2
Back
SplineSet
229 447 m 0x80
 278 452 405 456 524 456 c 0
 746 456 802 452 820 423 c 0
 827 412 831 402 831 394 c 0
 831 357 747 349 459 342 c 2x40
 118 334 l 1
 123 385 l 2
 128 432 136 437 229 447 c 0x80
EndSplineSet
Fore
SplineSet
524 469 m 0
 766 469 810 463 831 430 c 0
 837 420 844 407 844 394 c 0
 844 342 748 336 459 329 c 2
 104 321 l 1
 110 386 l 2
 116 443 132 450 228 460 c 0
 278 465 405 469 524 469 c 0
EndSplineSet
EndChar

StartChar: period
Encoding: 14 46 25
Width: 545
Flags: W
LayerCount: 2
Back
SplineSet
137 16 m 0xa0
 137 71 239 157 255 157 c 0
 267 157 276 164 276 173 c 0
 276 181 288 189 301 189 c 0
 314 189 325 181 325 173 c 0x90
 325 164 338 157 354 157 c 0
 390 157 415 117 415 73 c 0x88
 415 5 338 -93 246 -93 c 0
 159 -93 137 -8 137 16 c 0xa0
266 12 m 0x48
 293 12 319 44 319 51 c 0
 319 55 315 56 306 56 c 0
 272 56 252 39 252 23 c 0
 252 16 258 12 266 12 c 0x48
EndSplineSet
Fore
SplineSet
124 16 m 1
 127 82 231 170 255 170 c 0
 268 170 260 176 269 188 c 0
 277 198 289 202 301 202 c 0
 319 202 337 192 338 175 c 1
 340 173 346 170 354 170 c 0
 398 170 428 124 428 73 c 0
 428 -1 346 -106 246 -106 c 0
 154 -106 124 -18 124 16 c 1
265 25 m 1
 266 25 l 2
 278 25 290 35 298 43 c 1
 277 41 266 31 265 25 c 1
EndSplineSet
EndChar

StartChar: slash
Encoding: 15 47 26
Width: 772
Flags: W
DStem2: 247 155 317 78 0.426745 0.904372<-259.879 345.831>
LayerCount: 2
Back
SplineSet
603 866 m 0
 623 866 644 851 644 828 c 0
 644 797 615 767 579 661 c 0
 543 562 357 216 357 197 c 0
 357 191 334 140 305 84 c 2
 219 -88 l 2
 193 -140 177 -159 159 -159 c 0
 139 -159 129 -152 129 -134 c 0
 129 -89 188 -7 259 150 c 2
 519 700 l 2
 565 795 546 866 603 866 c 0
EndSplineSet
Fore
SplineSet
157 -172 m 0
 138 -172 116 -164 116 -134 c 0
 116 -84 173 -9 247 155 c 1
 507 706 l 1
 553 800 533 879 603 879 c 0
 629 879 657 860 657 828 c 0
 657 794 626 761 591 657 c 1
 551 548 378 232 369 193 c 0
 366 178 339 121 317 78 c 2
 231 -94 l 2
 203 -149 186 -172 157 -172 c 0
EndSplineSet
EndChar

StartChar: zero
Encoding: 16 48 27
Width: 616
Flags: W
HStem: -4 87<198.65 308.531> 524 103<354.788 459.156>
VStem: 81 97<103.392 244.375> 472 81<313.898 512.122>
LayerCount: 2
Back
SplineSet
194 473 m 0
 194 497 331 627 384 627 c 0
 420 627 501 566 501 433 c 0
 501 351 472 253 415 148 c 0
 368 61 323 20 257 2 c 0
 242 -2 228 -4 215 -4 c 0
 167 -4 131 24 103 85 c 0
 87 118 81 134 81 152 c 0
 81 231 194 429 194 473 c 0
446 447 m 0
 446 507 432 550 381 550 c 0
 364 550 345 544 328 533 c 0
 257 487 152 257 152 145 c 0
 152 97 188 57 232 57 c 0
 261 57 280 68 321 107 c 0
 349 134 372 163 372 171 c 0
 372 199 446 298 446 447 c 0
EndSplineSet
Fore
SplineSet
390 180 m 1
 392 214 472 295 472 441 c 0
 472 507 448 524 414 524 c 0
 399 524 381 520 364 510 c 0
 295 472 178 262 178 154 c 0
 178 115 210 83 250 83 c 0
 277 83 296 93 338 127 c 0
 367 151 388 174 390 180 c 1
194 467 m 0
 194 500 353 627 418 627 c 0
 465 627 553 564 553 428 c 0
 553 316 498 205 465 149 c 0
 445 116 371 -4 231 -4 c 0
 179 -4 137 22 104 89 c 0
 88 121 81 137 81 158 c 0
 81 237 194 429 194 467 c 0
EndSplineSet
EndChar

StartChar: one
Encoding: 17 49 28
Width: 378
Flags: W
VStem: 226 87<33.7494 343.072>
LayerCount: 2
Back
SplineSet
86 370 m 0x40
 77 370 64 377 64 393 c 0
 64 418 84 424 118 472 c 2
 151 516 l 2
 174 544 211 631 240 631 c 0
 254 631 263 610 268 567 c 0
 277 492 286 224 286 92 c 0x80
 286 51 285 24 283 19 c 0
 278 8 272 2 265 2 c 0
 256 2 247 14 239 37 c 0
 231 60 226 140 226 287 c 0
 225 443 221 503 214 503 c 0
 193 503 125 370 86 370 c 0x40
EndSplineSet
Fore
SplineSet
279 2 m 0
 237 2 227 45 226 287 c 0
 226 371 224 443 220 473 c 1
 193 444 140 357 99 357 c 0
 82 357 64 371 64 393 c 0
 64 421 87 430 120 472 c 2
 154 516 l 2
 190 561 210 631 254 631 c 0
 256 631 258 630 261 630 c 0
 282 624 290 598 294 567 c 0
 301 512 313 230 313 94 c 0
 313 55 311 28 309 21 c 1
 302 10 293 2 279 2 c 0
EndSplineSet
EndChar

StartChar: two
Encoding: 18 50 29
Width: 850
Flags: W
HStem: 520 86<294.791 471.811>
VStem: 475 89<381.097 514.129>
LayerCount: 2
Back
SplineSet
605 84 m 0
 685 84 686 74 686 52 c 0
 686 16 632 46 466 13 c 0
 346 -11 271 -10 254 -27 c 0
 248 -32 240 -34 232 -34 c 0
 211 -34 189 -21 189 -4 c 0
 189 13 246 88 284 121 c 0
 320 151 449 367 449 489 c 0
 449 534 425 546 367 546 c 0
 293 546 225 512 150 436 c 0
 113 400 81 370 78 370 c 0
 76 370 73 386 73 404 c 0
 73 430 80 443 99 453 c 0
 114 460 126 472 126 480 c 0
 126 498 170 524 210 554 c 0
 228 569 293 606 375 606 c 0
 430 606 476 588 493 556 c 0
 501 542 504 519 504 492 c 0
 504 444 493 382 474 333 c 0
 446 265 345 100 306 63 c 0
 299 56 295 52 295 49 c 0
 295 48 296 48 299 48 c 0
 309 48 470 84 605 84 c 0
EndSplineSet
Fore
SplineSet
670 105 m 0
 724 105 765 101 765 65 c 0
 765 8 705 44 519 12 c 0
 373 -13 304 -11 287 -24 c 0
 277 -31 264 -34 251 -34 c 0
 221 -34 189 -16 189 6 c 0
 189 37 274 117 301 136 c 0
 339 163 475 366 475 478 c 0
 475 508 464 520 399 520 c 0
 225 520 124 344 91 344 c 1
 85 351 73 338 73 391 c 0
 73 458 121 446 126 472 c 0
 130 496 164 513 217 551 c 0
 238 567 313 606 408 606 c 0
 468 606 522 589 547 552 c 0
 563 528 564 491 564 484 c 0
 564 436 553 383 525 327 c 24
 472 222 412 128 359 75 c 1
 423 85 574 105 670 105 c 0
EndSplineSet
EndChar

StartChar: three
Encoding: 19 51 30
Width: 620
Flags: W
HStem: -10 82<238.394 363.902> 290 75<207.221 257.384> 335 88<412 449.218>
VStem: 143 96<74.9844 137.114> 464 94<162.602 323.047>
LayerCount: 2
Back
SplineSet
367 539 m 0xc8
 319 539 118 500 110 500 c 0
 100 500 97 504 97 513 c 0
 97 523 92 531 85 531 c 0
 79 531 74 535 74 541 c 0xe0
 74 565 393 615 415 620 c 0
 442.896 625.072 456.991 629 462 629 c 0
 475 629 495 603 495 587 c 0xc8
 495 565 358 427 358 416 c 0
 358 413 373 410 391 410 c 0
 429 410 490 351 502 304 c 0
 505 293 506 280 506 266 c 0xe0
 506 217 489 155 463 114 c 0
 415 38 314 -10 240 -10 c 0
 202 -10 170 2 157 31 c 0
 147 51 143 74 143 93 c 0
 143 116 149 134 162 134 c 0
 185 134 210 102 210 71 c 0
 211 49 216 46 256 46 c 0
 310 46 378 83 414 132 c 0
 432 157 438 181 438 235 c 0xd4
 438 317 420 348 368 348 c 0
 283 348 270 303 234 303 c 0
 214 303 201 316 201 336 c 0
 201 348 205 355 213 355 c 0
 221 355 239 369 254 385 c 0
 339 483 373 527 373 537 c 0
 373 539 372 539 367 539 c 0xc8
EndSplineSet
Fore
SplineSet
258 -10 m 0xb8
 198 -10 143 13 143 107 c 0
 143 136 152 160 175 160 c 0
 209 160 239 117 239 84 c 0
 239 72 241 72 264 72 c 0
 370 72 430 137 440 149 c 0
 458 170 464 189 464 240 c 0
 464 325 438 335 400 335 c 0xb8
 309 335 298 290 251 290 c 0
 216 290 201 313 201 334 c 0
 201 350 210 365 227 365 c 1xd8
 253 371 372 502 383 516 c 1
 298 510 136 480 123 480 c 0
 93 480 99 506 96 510 c 1
 85 511 74 519 74 531 c 1
 75 537 75 541 84 547 c 0
 126 574 418 614 450 620 c 0
 477 625 491 629 501 629 c 0
 525 629 547 595 547 578 c 0
 547 553 469 482 412 423 c 1
 426 423 l 2
 473 423 540 363 554 311 c 0
 557 299 558 285 558 271 c 0
 558 221 541 159 513 116 c 0
 463 39 346 -10 258 -10 c 0xb8
EndSplineSet
EndChar

StartChar: four
Encoding: 20 52 31
Width: 616
Flags: W
HStem: -17 21G<361.5 404.5> 255 83<444.39 552.463>
VStem: 62 339<205.071 461>
LayerCount: 2
Back
SplineSet
331 584 m 0xe0
 354 584 350 612 370 612 c 0
 385 612 395 597 395 587 c 0
 395 577 386 557 373 544 c 0
 351 519 349 511 349 417 c 0xc8
 349 298 357 298 371 298 c 0
 392 298 442 317 450 323 c 0
 453 326 458 327 464 327 c 0
 482 327 511 315 511 294 c 0xe0
 511 281 499 268 477 266 c 0
 462 264 428 256 403 248 c 2
 358 233 l 1
 362 149 l 2
 366 45 386 30 386 14 c 0
 386 1 367 -17 354 -17 c 0
 331 -17 315 34 306 141 c 0xc4
 300 202 298 214 287 214 c 0
 277 214 148 180 98 180 c 0
 73 180 62 187 62 202 c 0
 62 218 75 244 100 282 c 0
 196 425 316 583 331 584 c 0xe0
221 253 m 0
 294 269 301 271 301 305 c 0
 301 324 298 356 295 385 c 2
 288 452 l 1
 246 401 l 2
 208 354 143 253 143 240 c 0xd8
 143 239 143 239 144 239 c 0
 149 239 183 245 221 253 c 0
EndSplineSet
Fore
SplineSet
182 255 m 1
 323 276 326 281 326 303 c 0
 326 324 323 345 319 384 c 2
 315 420 l 1
 289 393 l 2
 256 358 203 288 182 255 c 1
110 172 m 0
 75 172 62 186 62 206 c 0
 62 228 81 260 102 290 c 1
 197 416 330 563 359 581 c 0
 363 583 367 585 370 585 c 0
 384 586 380 612 409 612 c 0
 433 612 447 590 447 575 c 0
 447 559 433 537 421 525 c 0
 402 504 401 497 401 425 c 0
 401 332 405 310 410 310 c 0
 449 310 481 338 502 338 c 0
 536 338 562 316 562 292 c 0
 562 274 548 258 517 255 c 0
 504 254 470 245 446 238 c 2
 410 227 l 1
 414 155 l 2
 419 57 438 42 438 25 c 0
 438 8 416 -17 393 -17 c 0
 330 -17 338 168 322 204 c 1
 281 198 166 172 110 172 c 0
EndSplineSet
EndChar

StartChar: five
Encoding: 21 53 32
Width: 549
Flags: W
HStem: -12 84<143.422 317.016> 355 77<279.757 368.865>
VStem: 112 78<346.835 500.658> 381 83<159.597 347.477>
LayerCount: 2
Back
SplineSet
355 260 m 0
 355 323 338 368 311 368 c 0
 283 368 215 333 188 301 c 0
 171 282 162 273 153 273 c 0
 146 273 139 279 130 288 c 0
 119 299 113 375 113 445 c 0
 113 508 118 566 127 572 c 0
 147 584 331 581 392 595 c 0
 413 600 429 602 440 602 c 0
 459 602 464 594 464 588 c 0
 464 567 320 526 245 526 c 2
 229 526 l 2
 186 526 161 508 161 476 c 0
 161 456 170 449 170 413 c 0
 170 405 169 397 168 390 c 2
 162 359 l 1
 196 380 l 2
 236 405 282 419 316 419 c 0
 328 419 339 418 347 414 c 0
 384 398 412 325 412 252 c 0
 412 235 410 218 407 202 c 0
 379 53 311 -12 183 -12 c 0
 140 -12 132 -8 104 27 c 0
 77 60 64 86 64 111 c 0
 64 120 67 136 71 136 c 0
 74 136 79 129 87 113 c 0
 114 63 149 46 218 46 c 0
 280 46 308 70 336 147 c 0
 349 182 355 223 355 260 c 0
EndSplineSet
Fore
SplineSet
381 266 m 0
 381 317 365 355 346 355 c 0
 320 355 246 322 217 292 c 0
 196 271 182 260 168 260 c 0
 157 260 147 266 134 279 c 1
 120 296 112 368 112 436 c 0
 112 502 119 564 133 571 c 0
 163 587 356 580 428 595 c 0
 448 600 465 601 477 601 c 0
 507 601 516 590 516 578 c 0
 516 575 516 569 510 563 c 0
 483 536 341 507 271 507 c 2
 253 507 l 2
 212 507 190 495 190 473 c 0
 190 455 201 449 201 413 c 0
 201 404 199 392 198 386 c 1
 208 391 l 1
 267 423 323 432 352 432 c 0
 360 432 378 432 391 426 c 0
 438 406 464 323 464 257 c 0
 464 239 462 222 459 206 c 0
 430 54 352 -12 201 -12 c 0
 149 -12 138 -7 107 32 c 0
 83 61 63 94 63 125 c 0
 63 137 67 162 84 162 c 1
 96 158 96 161 112 132 c 0
 137 85 169 72 240 72 c 0
 306 72 331 93 360 160 c 0
 374 192 381 231 381 266 c 0
EndSplineSet
EndChar

StartChar: six
Encoding: 22 54 33
Width: 495
Flags: W
HStem: -7 66<168.279 247.232> 249 76<217.653 338.118>
VStem: 60 90<73.3188 195.804> 352 82<148.522 232.958>
LayerCount: 2
Back
SplineSet
160 272 m 0
 178 272 209 312 248 312 c 0
 283 312 337 288 359 264 c 0
 374 247 382 220 382 195 c 0
 382 155 367 150 348 108 c 0
 336 80 262 14 232 2 c 0
 218 -3 190 -7 170 -7 c 0
 109 -7 60 64 60 151 c 0
 60 228 164 566 164 566 c 2
 170 590 180 619 204 619 c 0
 215 619 225 612 225 600 c 0
 225 543 149 344 149 288 c 0
 149 276 153 272 160 272 c 0
121 155 m 0
 121 64 161 46 171 46 c 0
 184 46 205 57 257 87 c 0
 286 103 326 169 326 201 c 0
 326 224 320 235 297 246 c 0
 282 255 260 262 250 262 c 0
 223 261 177 237 146 207 c 0
 127 188 121 179 121 155 c 0
EndSplineSet
Fore
SplineSet
352 201 m 0
 352 234 299 249 281 249 c 0
 258 248 210 229 174 198 c 0
 152 179 150 172 150 155 c 0
 150 71 189 59 192 59 c 0
 198 59 209 61 282 98 c 0
 310 112 352 174 352 201 c 0
182 286 m 1
 200 292 235 325 279 325 c 0
 321 325 382 302 408 275 c 0
 428 253 434 222 434 200 c 0
 434 157 418 153 399 111 c 0
 386 83 306 16 266 3 c 0
 252 -2 221 -7 191 -7 c 0
 112 -7 60 70 60 157 c 0
 60 232 167 548 170 559 c 0
 178 583 191 619 229 619 c 0
 248 619 267 606 267 588 c 0
 267 528 182 343 182 286 c 1
EndSplineSet
EndChar

StartChar: seven
Encoding: 23 55 34
Width: 491
Flags: W
HStem: 529 95<227 344>
VStem: 104 82<340.992 521.406>
LayerCount: 2
Back
SplineSet
132 360 m 0xb0
 101 360 104 380 104 473 c 2
 104 583 l 1
 266 614 l 2
 297 620 320 624 338 624 c 0
 370 624 383 610 383 572 c 0xc0
 383 482 317 195 283 25 c 0
 277 -3 272 -8 252 -8 c 0
 233 -8 229 -6 229 13 c 0
 229 55 252 162 266 225 c 0
 285 308 318 519 318 550 c 0
 318 556 318 555 295 555 c 0
 279 555 257 555 232 553 c 2
 151 547 l 1
 155 496 l 2
 156 487 156 476 156 465 c 0
 156 442 155 418 152 402 c 0
 148 369 144 360 132 360 c 0xb0
EndSplineSet
Fore
SplineSet
146 334 m 0
 111 334 104 350 104 420 c 2
 104 581 l 1
 296 614 l 2
 332 620 357 624 377 624 c 0
 420 624 435 601 435 562 c 0
 435 475 373 217 333 34 c 0
 326 4 315 -8 283 -8 c 0
 252 -8 241 -2 241 24 c 0
 241 65 267 168 284 229 c 0
 306 308 340 484 344 529 c 1
 332 529 l 2
 313 529 288 529 260 527 c 2
 182 522 l 1
 185 484 l 2
 186 474 186 463 186 452 c 0
 186 355 169 334 146 334 c 0
EndSplineSet
EndChar

StartChar: eight
Encoding: 24 56 35
Width: 578
Flags: W
HStem: -22 83<257.942 339.601> 554 58<271.956 391.662>
VStem: 90 104<392.754 492.432> 108 93<113.622 198.764> 351 77<71.3505 157.213> 448 70<468.557 509.074>
LayerCount: 2
Back
SplineSet
200 590 m 0xf0
 237 590 207 612 286 612 c 0
 406 612 440 517 440 490 c 0xf0
 440 428 282 334 282 291 c 0xe2
 282 256 376 192 376 94 c 0
 376 21 314 -22 275 -22 c 0
 205 -22 108 113 108 132 c 0xe5
 108 167 162 251 162 279 c 0xe2
 162 320 90 357 90 443 c 0
 90 519 153 590 200 590 c 0xf0
396 486 m 0xe880
 396 510 325 567 284 567 c 0
 264 567 271 565 207 535 c 0
 151 508 142 448 142 438 c 0
 142 402 208 331 212 331 c 0
 224 331 323 433 367 455 c 0
 386 466 396 475 396 486 c 0xe880
273 35 m 0
 299 35 325 68 325 97 c 0
 325 125 306 158 265 204 c 0
 249 223 237 232 226 232 c 0
 207 232 171 182 171 147 c 0xe5
 171 97 240 35 273 35 c 0
EndSplineSet
Fore
SplineSet
250 231 m 0xdc
 240 231 203 194 201 160 c 1
 201 116 276 61 305 61 c 0
 323 61 351 84 351 110 c 0
 351 150 270 231 250 231 c 0xdc
448 486 m 0
 448 497 380 554 321 554 c 0
 309 554 312 551 252 523 c 0
 203 500 194 446 194 438 c 0xec
 194 416 234 364 253 346 c 1
 278 364 368 443 421 466 c 0
 439 474 448 482 448 486 c 0
308 -22 m 1
 213 -19 108 112 108 138 c 0xdc
 108 175 162 258 188 280 c 1
 188 312 90 351 90 437 c 0
 90 518 182 591 239 591 c 0
 265 591 246 612 329 612 c 0
 478 612 518 515 518 482 c 1
 515 411 340 322 340 290 c 0
 340 262 428 197 428 102 c 0
 428 26 361 -22 308 -22 c 1
EndSplineSet
EndChar

StartChar: nine
Encoding: 25 57 36
Width: 514
Flags: W
HStem: 285 70<155.119 268.077> 546 70<264.728 360.896>
VStem: 69 83<358.355 457.661> 335 80<8.88372 318.115> 362 88<441.303 544.397>
LayerCount: 2
Back
SplineSet
309 80 m 0xf0
 309 172 316 264 316 310 c 0
 316 339 313 350 305 350 c 0
 297 350 284 338 262 322 c 0
 236 302 220 298 176 298 c 0
 128 299 119 302 99 324 c 0
 79 347 69 370 69 395 c 0
 69 406 71 418 75 430 c 0
 99 513 153 563 252 600 c 0
 282 611 298 616 312 616 c 0
 321 616 398 611 398 534 c 0xe8
 398 468 363 451 363 151 c 0
 363 18 372 40 372 19 c 0
 372 -3 360 -22 341 -22 c 0
 317 -22 309 -5 309 80 c 0xf0
172 342 m 0
 219 342 336 396 336 519 c 0
 336 556 337 559 296 559 c 0
 246 559 211 546 180 515 c 0
 143 477 122 429 122 393 c 0
 122 368 132 342 172 342 c 0
EndSplineSet
Fore
SplineSet
330 546 m 0xe8
 201 546 152 435 152 393 c 0
 152 371 161 355 194 355 c 0
 242 355 362 405 362 519 c 0
 362 524 362 539 361 544 c 1
 361 544 348 546 330 546 c 0xe8
380 -22 m 0
 334 -22 335 37 335 88 c 0xf0
 335 169 342 265 342 311 c 0
 342 321 342 330 341 334 c 1
 305 311 l 2
 273 291 253 285 205 285 c 0
 135 285 122 293 102 315 c 0
 83 336 69 360 69 391 c 0
 69 403 72 416 76 429 c 0
 102 512 162 563 280 600 c 0
 322 613 338 616 351 616 c 0
 376 616 450 602 450 525 c 0xe8
 450 458 415 447 415 157 c 0xf0
 415 30 424 53 424 31 c 0
 424 -10 398 -22 380 -22 c 0
EndSplineSet
EndChar

StartChar: colon
Encoding: 26 58 37
Width: 401
Flags: W
HStem: -15 163<153.249 216.63>
VStem: 131 113<16.6164 125.375 400.67 506.125>
LayerCount: 2
Back
SplineSet
144 75 m 0
 144 105 175 135 195 135 c 0
 224 135 231 91 231 84 c 0
 231 71 220 56 214 33 c 0
 208 10 197 -2 185 -2 c 0
 161 -2 144 48 144 75 c 0
138 444 m 0
 138 462 155 519 181 519 c 0
 190 519 200 512 213 497 c 0
 227 480 231 468 231 444 c 0
 231 419 229 413 220 413 c 0
 213 413 206 404 203 391 c 0
 199 374 194 369 181 369 c 0
 167 369 161 376 149 404 c 0
 141 423 138 433 138 444 c 0
EndSplineSet
Fore
SplineSet
180 532 m 0
 208 532 245 493 245 442 c 0
 245 405 232 400 222 400 c 1
 212 392 219 356 182 356 c 0
 163 356 152 363 137 399 c 0
 129 417 125 429 125 442 c 0
 125 471 146 532 180 532 c 0
185 -15 m 0
 146 -15 131 54 131 75 c 1
 133 112 164 148 195 148 c 0
 234 148 244 97 244 84 c 0
 244 65 234 58 227 30 c 0
 219 0 202 -15 185 -15 c 0
EndSplineSet
EndChar

StartChar: semicolon
Encoding: 27 59 38
Width: 367
Flags: W
HStem: 282 169<159.902 247.674>
VStem: 135 127<305.813 431.19>
LayerCount: 2
Back
SplineSet
202 126 m 0x80
 208 132 215 135 221 135 c 0
 235 135 238 121 238 117 c 0
 238 95 163 -89 150 -95 c 0
 147 -96 144 -97 141 -97 c 0
 131 -97 120 -88 120 -76 c 0
 120 -56 189 113 202 126 c 0x80
218 295 m 0
 193 295 148 306 148 370 c 0x40
 148 409 156 422 184 431 c 0
 200 436 209 438 216 438 c 0
 229 438 249 423 249 369 c 0
 249 347 243 295 218 295 c 0
EndSplineSet
Fore
SplineSet
216 451 m 0
 253 451 262 398 262 367 c 0
 262 325 247 282 218 282 c 0
 186 282 135 298 135 370 c 0
 135 409 143 431 180 443 c 0
 196 448 208 451 216 451 c 0
221 148 m 0
 244 148 251 128 251 118 c 0
 251 89 175 -100 154 -107 c 0
 152 -108 147 -110 141 -110 c 0
 119 -110 107 -97 107 -71 c 1
 111 -49 177 121 193 135 c 0
 200 142 209 148 221 148 c 0
EndSplineSet
EndChar

StartChar: less
Encoding: 28 60 39
Width: 545
Flags: W
DStem2: 161 452 224 386 0.741874 0.67054<-80.0482 327.296>
LayerCount: 2
Back
SplineSet
430 19 m 0x40
 430 8 404 -20 389 -20 c 0
 383 -20 378 -16 373 -7 c 0
 369 1 338 26 304 50 c 0
 198 124 74 276 74 329 c 0
 74 352 136 411 170 442 c 2
 326 583 l 2
 373 626 401 646 418 646 c 0
 436 646 440 625 440 619 c 0x80
 440 593 398 571 323 496 c 2
 215 395 l 2
 184 366 158 332 158 321 c 0
 158 295 295 137 351 99 c 0
 387 74 430 35 430 19 c 0x40
EndSplineSet
Fore
SplineSet
416 659 m 0
 425 659 453 652 453 620 c 0
 453 584 417 566 332 487 c 2
 224 386 l 2
 193 356 174 329 171 321 c 1
 176 296 303 148 358 110 c 0
 384 92 443 47 443 19 c 0
 443 3 416 -33 390 -33 c 0
 380 -33 370 -27 362 -13 c 0
 357 -6 335 13 297 39 c 0
 191 113 61 267 61 329 c 0
 61 354 98 394 161 452 c 2
 317 593 l 2
 361 632 397 659 416 659 c 0
EndSplineSet
EndChar

StartChar: equal
Encoding: 29 61 40
Width: 515
Flags: W
HStem: 187 89<115.867 378.211> 325 94<109.354 344.729> 325 86<103.562 312.679>
LayerCount: 2
Back
SplineSet
275 262 m 0
 379 262 400 257 400 241 c 0
 400 219 318 200 205 200 c 0
 115 200 108 202 108 221 c 0
 108 244 123 246 173 256 c 0
 190 260 232 262 275 262 c 0
312 406 m 0
 357 406 366 402 366 384 c 0
 366 359 339 352 208 341 c 0
 179 339 159 338 146 338 c 0
 120 338 117 343 113 357 c 0
 110 366 109 374 109 379 c 0
 109 386 107 386 194 398 c 0
 234 402 283 406 312 406 c 0
EndSplineSet
Fore
SplineSet
286 276 m 0x80
 398 276 413 261 413 241 c 0
 413 186 215 187 199 187 c 0
 124 187 95 188 95 222 c 0
 95 235 102 249 119 256 c 0
 151 269 222 276 286 276 c 0x80
314 419 m 0xc0
 358 419 379 413 379 385 c 0
 379 373 374 360 359 352 c 0
 326 334 190 325 145 325 c 0xc0
 118 325 108 330 101 353 c 0
 100 358 96 369 96 379 c 0
 96 401 119 401 192 411 c 1xa0
 246 416 286 419 314 419 c 0xc0
EndSplineSet
EndChar

StartChar: greater
Encoding: 30 62 41
Width: 594
Flags: W
VStem: 179 101<-35.7241 18.285>
LayerCount: 2
Back
SplineSet
125 566 m 0x80
 125 580.894 156.856 588 164 588 c 0
 171 588 219 555 243 532 c 0
 380 408 489 357 489 319 c 0
 489 298 463 263 373 143 c 0
 318 69 271 0 268 -9 c 0
 263 -23 241 -33 223 -33 c 0
 202 -33 192 -21 192 -13 c 0
 192 -0 225 49 239 55 c 0
 251 59 269 84 377 244 c 0
 397 274 414 305 414 313 c 0x40
 414 320 367 360 309 401 c 0
 182 492 125 542 125 566 c 0x80
EndSplineSet
Fore
SplineSet
400 311 m 1
 355 363 112 507 112 565 c 0
 112 589 145 601 163 601 c 0
 184 601 250 544 252 542 c 0
 399 409 502 366 502 319 c 0
 502 292 470 252 383 135 c 0
 325 57 284 -9 280 -13 c 1
 270 -34 245 -46 222 -46 c 0
 199 -46 179 -33 179 -14 c 0
 179 12 220 61 234 67 c 0
 247 73 389 279 400 311 c 1
EndSplineSet
EndChar

StartChar: question
Encoding: 31 63 42
Width: 632
Flags: W
HStem: -32 145<261.579 335.033> 533 21G<238 304> 635 71<267.605 294> 781 74<262.381 358.876>
VStem: 130 69<630.977 722.513> 250 118<4.86215 81.7903> 258 101<637.186 694.959> 268 74<225.475 398> 404 72<577.116 736.173>
LayerCount: 2
Back
SplineSet
263 36 m 0xe4
 263 90 285 100 290 100 c 0
 301 100 355 63 355 55 c 1
 355 55 332 -19 292 -19 c 0
 275 -19 263 -5 263 36 c 0xe4
186 685 m 0xea80
 186 665 228 577 252 577 c 0
 284 577 308 630 308 639 c 0
 308 646 302 648 289 648 c 0
 277 648 271 654 271 661 c 0
 271 680 299 693 311 693 c 0
 325 693 346 675 346 639 c 0xe980
 346 611 331 546 267 546 c 0
 217 546 143 617 143 687 c 0
 143 760 246 842 315 842 c 0
 393 842 463 745 463 656 c 0xf0
 463 598 433 538 363 448 c 2
 328 402 l 1
 329 327 l 2
 329 317 330 308 330 300 c 0
 330 252 324 231 310 231 c 0
 288 231 281 258 281 338 c 0
 281 413 284 444 338 493 c 0
 387 536 417 607 417 667 c 0
 417 687 414 706 407 722 c 0
 396 751 345 794 317 794 c 0
 271 794 186 726 186 685 c 0xea80
EndSplineSet
Fore
SplineSet
250 34 m 0xfc80
 250 93 273 113 289 113 c 0
 311 113 368 72 368 55 c 0
 368 52 345 -32 293 -32 c 0
 256 -32 250 9 250 34 c 0xfc80
311 218 m 0
 272 218 268 265 268 338 c 0xf980
 268 418 273 452 329 503 c 1
 378 546 404 616 404 667 c 0
 404 692 399 708 395 717 c 0
 384 745 336 781 317 781 c 0
 277 781 199 717 199 685 c 1
 200 665 237 594 252 590 c 1
 272 592 289 622 294 635 c 1
 293 635 258 636 258 660 c 0
 258 688 292 706 311 706 c 0
 334 706 359 681 359 639 c 0xfa80
 359 606 341 533 267 533 c 0
 209 533 130 610 130 687 c 0
 130 769 241 855 315 855 c 0
 403 855 476 749 476 656 c 0
 476 593 443 531 373 440 c 2
 341 398 l 1
 342 327 l 1
 342 295 l 2xf980
 342 258 339 218 311 218 c 0
EndSplineSet
EndChar

StartChar: at
Encoding: 32 64 43
Width: 704
Flags: W
HStem: -34 74<249.737 422.437> 160 66<228.5 307.358> 425 72<298.412 372.818> 580 63<316.555 456.829>
VStem: 67 81<141.809 414.371> 172 73<237.825 349.469> 327 114<276.095 364.424> 532 70<304.646 505.097>
LayerCount: 2
Back
SplineSet
555 252 m 0x9e40
 555 239 590 252 590 220 c 0x9e20
 590 191 540 30 435 -13 c 0
 421 -18 378 -21 337 -21 c 0
 307 -21 277 -20 259 -16 c 0
 221 -9 136 47 130 69 c 0
 126 81 121 90 117 90 c 0
 101 90 80 198 80 282 c 0
 80 393 97 447 157 523 c 0
 201 577 226 593 307 616 c 0
 338 625 382 630 419 630 c 0
 446 630 468 627 479 622 c 0
 514 604 563 547 578 506 c 0
 586 486 589 456 589 422 c 0x9e10
 589 303 555 267 555 252 c 0x9e40
441 366 m 0xde80
 441 336 428 323 428 280 c 0
 428 250 437 228 451 228 c 0
 464 228 507 270 507 283 c 0xbf40
 507 288 513 292 519 292 c 0
 532 292 545 357 545 405 c 0xbe10
 545 418 544 430 542 439 c 0
 516 539 517 538 467 567 c 0
 437 584 415 593 390 593 c 0
 361 593 329 580 276 554 c 0
 213 522 197 505 162 430 c 0
 138 379 135 362 135 288 c 0
 135 209 140 181 165 116 c 0
 176 87 239 27 364 27 c 0
 388 27 400 32 428 50 c 0
 463 72 477 88 503 142 c 0
 521 179 535 211 535 214 c 0
 535 223 502 182 451 182 c 0
 422 182 412 187 396 208 c 0
 386 223 377 239 377 245 c 0xbf20
 377 252 375 255 372 255 c 0
 366 255 356 245 344 227 c 0
 323 195 286 173 253 173 c 0
 212 173 185 220 185 274 c 0
 185 296 189 319 199 340 c 0
 220 387 310 484 332 484 c 0
 367 484 441 418 441 366 c 0xde80
299 213 m 0xde80
 319 213 321 242 321 248 c 0
 321 257 325 264 330 264 c 0
 336 264 340 276 340 292 c 0
 340 326 351 333 362 367 c 0
 365 376 375 383 385 383 c 0
 397 383 404 385 404 390 c 0
 404 402 348 438 329 438 c 0
 308 438 256 386 256 365 c 0
 256 337 232 347 232 281 c 0
 232 222 292 213 299 213 c 0xde80
EndSplineSet
Fore
SplineSet
299 226 m 0
 314 226 300 269 325 276 c 1
 326 278 327 281 327 292 c 0
 327 330 340 340 350 371 c 0
 355 386 368 395 383 396 c 1
 368 408 341 425 329 425 c 1
 307 419 269 374 269 365 c 0
 269 329 245 344 245 281 c 0
 245 233 295 226 299 226 c 0
366 235 m 1
 362 230 322 160 253 160 c 0
 204 160 172 212 172 274 c 0
 172 298 176 322 187 345 c 0
 209 393 300 497 332 497 c 0
 376 497 454 424 454 366 c 0
 454 332 441 323 441 280 c 0
 441 259 447 242 451 241 c 1
 462 245 490 272 494 283 c 1
 494 297 506 303 515 305 c 1
 524 320 532 370 532 406 c 0
 532 418 531 429 529 436 c 0
 504 533 507 529 461 556 c 0
 432 573 412 580 390 580 c 0
 368 580 343 572 282 542 c 0
 222 512 208 497 174 424 c 0
 151 375 148 363 148 288 c 0
 148 209 153 183 177 121 c 0
 185 100 241 40 364 40 c 0
 387 40 396 45 421 61 c 0
 455 82 467 99 491 148 c 2
 508 184 l 1
 494 177 476 169 451 169 c 0
 415 169 402 178 385 200 c 0
 375 213 369 226 366 235 c 1
603 220 m 0
 603 185 550 19 440 -25 c 0
 422 -32 369 -34 337 -34 c 0
 297 -34 272 -32 256 -29 c 0
 216 -20 129 32 118 65 c 0
 115 74 113 76 112 78 c 1
 76 87 67 255 67 282 c 0
 67 397 86 454 147 531 c 0
 191 587 217 604 303 628 c 0
 336 637 381 643 419 643 c 0
 451 643 474 640 485 634 c 0
 525 614 574 553 590 511 c 0
 598 489 602 459 602 426 c 0
 602 322 579 279 570 257 c 1
 581 255 603 250 603 220 c 0
EndSplineSet
EndChar

StartChar: A
Encoding: 33 65 44
Width: 816
Flags: W
VStem: 529 98<415.743 520.671>
DStem2: 368 375 396 290 0.995828 0.0912512<0 163.054>
LayerCount: 2
Back
SplineSet
68 -6 m 0
 68 24 110 55 110 84 c 0
 110 95 116 105 124 108 c 0
 145 116 157 195 186 229 c 0
 205 250 218 280 283 449 c 0
 324 555 420 752 437 764 c 0
 444 768 448 771 453 771 c 0
 458 771 464 768 473 762 c 0
 488 752 549 555 549 514 c 0
 552 473 580 393 593 312 c 0
 604 230 650 116 650 73 c 0
 650 58 646 52 636 52 c 0
 629 52 618 56 605 63 c 0
 569 84 576 102 543 243 c 2
 524 322 l 1
 475 316 l 2
 448 312 395 306 356 303 c 2
 286 297 l 1
 257 242 l 2
 205 145 167 69 148 23 c 0
 132 -15 118 -31 99 -31 c 0
 89 -31 68 -26 68 -6 c 0
503 406 m 0
 503 434 463 640 447 640 c 0
 436 640 361 487 325 391 c 2
 313 360 l 1
 392 366 l 2
 483 374 503 376 503 406 c 0
EndSplineSet
Fore
SplineSet
111 -31 m 0
 100 -31 68 -26 68 -6 c 0
 68 29 110 61 110 84 c 0
 110 103 117 124 132 132 c 1
 143 136 161 215 189 246 c 0
 206 264 219 282 292 454 c 0
 336 556 437 742 461 763 c 1
 470 766 478 771 490 771 c 0
 498 771 509 769 523 761 c 1
 543 738 627 555 627 514 c 1
 630 473 658 395 671 314 c 1
 681 236 728 119 728 73 c 0
 728 61 725 52 701 52 c 0
 689 52 675 58 664 63 c 0
 621 86 632 113 594 243 c 2
 575 308 l 1
 532 303 l 2
 501 299 441 293 396 290 c 2
 324 285 l 1
 295 242 l 2
 231 148 192 68 173 23 c 0
 164 2 146 -31 111 -31 c 0
529 406 m 0
 529 430 499 567 481 611 c 1
 421 525 368 375 368 375 c 1
 434 379 l 2
 509 384 529 385 529 406 c 0
EndSplineSet
EndChar

StartChar: B
Encoding: 34 66 45
Width: 707
Flags: W
HStem: 12 81<368.2 458.3> 24 70<310.75 407.625> 718 69<264.247 495.999>
VStem: 497 80<642.599 710.811> 547 79<186.784 371.464>
DStem2: 292 238 184 411 0.0938463 -0.995587<-427.453 -415.457 -83.1115 69.3755>
LayerCount: 2
Back
SplineSet
328 24 m 0x7a
 303 24 278 7 256 7 c 0
 195 7 216 170 184 413 c 0
 179 458 171 537 167 587 c 2
 160 677 l 1
 121 677 l 2
 90 677 71 686 71 699 c 0
 71 728 171 757 225 771 c 0
 260 780 334 787 407 787 c 0
 469 787 479 783 500 761 c 0
 513 746 525 724 525 714 c 0x7c
 525 609 423 507 423 485 c 0
 423 480 428 479 437 479 c 0
 464 479 534 436 550 410 c 0
 566 384 574 341 574 295 c 0
 574 121 448 12 382 12 c 0xba
 361 12 352 24 328 24 c 0x7a
457 715 m 0
 447 726 419 731 384 731 c 0
 364 731 342 730 318 726 c 0
 230 711 225 714 225 672 c 2
 225 652 l 2
 225 620 230 557 237 509 c 0
 247 436 252 424 270 424 c 0
 299 424 413 556 446 628 c 0
 463 666 471 682 471 692 c 0
 471 700 466 705 457 715 c 0
521 281 m 0xba
 521 347 502 412 424 412 c 0
 368 412 318 380 273 364 c 0
 260 359 256 354 256 317 c 0
 256 297 257 270 259 230 c 0
 267 80 272 71 355 68 c 0x7a
 364 68 372 67 379 67 c 0
 414 67 421 75 462 123 c 0
 502 168 521 194 521 281 c 0xba
EndSplineSet
Fore
SplineSet
487 142 m 1xa8
 526 181 547 204 547 286 c 0
 547 370 514 399 460 399 c 0
 402 399 343 369 298 354 c 0
 292 352 289 351 289 322 c 0
 289 305 290 280 292 238 c 0
 300 98 304 96 382 94 c 0x68
 392 94 400 93 408 93 c 0
 440 93 444 97 487 142 c 1xa8
497 692 m 0x30
 497 699 486 718 422 718 c 0
 362 718 281 705 265 698 c 0
 258 695 257 693 257 672 c 2
 257 652 l 2
 257 579 276 463 283 445 c 0
 286 438 287 437 291 437 c 0
 313 440 430 553 471 633 c 0
 493 678 497 689 497 692 c 0x30
134 655 m 2
 121 655 71 656 71 689 c 0
 71 722 147 749 239 771 c 0
 278 780 360 787 441 787 c 0
 507 787 512 781 549 758 c 24
 569 746 577 715 577 704 c 0x70
 575 607 495 520 476 489 c 1
 512 487 583 443 600 416 c 0
 625 377 626 316 626 298 c 0
 626 125 493 12 411 12 c 0xa8
 387 12 373 24 353 24 c 0x68
 330 24 302 7 275 7 c 0
 192 7 218 167 184 411 c 0
 178 455 171 530 167 579 c 2
 161 655 l 1
 134 655 l 2
EndSplineSet
EndChar

StartChar: C
Encoding: 35 67 46
Width: 779
Flags: W
HStem: 10 96<286.784 422.525> 723 87<420.079 546.052>
VStem: 121 88<190.168 531.354>
LayerCount: 2
Back
SplineSet
651 307 m 0
 651 269 501 10 327 10 c 0
 250 10 181 62 131 164 c 0
 124 178 121 233 121 300 c 0
 121 404 129 537 141 579 c 0
 176 707 339 810 450 810 c 0
 511 810 573 763 573 715 c 0
 573 706 566 702 558 702 c 0
 544 702 525 712 517 727 c 0
 510 743 503 749 486 749 c 0
 417 749 300 693 248 636 c 0
 208 593 181 515 181 298 c 0
 181 240 186 214 200 181 c 0
 225 121 278 80 329 80 c 0
 363 80 443 117 468 145 c 2
 519 196 l 2
 579 253 615 336 640 336 c 0
 647 336 651 326 651 307 c 0
EndSplineSet
Fore
SplineSet
625 702 m 0
 625 694 622 676 597 676 c 0
 556 676 536 718 536 718 c 1
 533 722 529 723 521 723 c 0
 454 723 332 673 277 619 c 0
 236 579 209 503 209 303 c 0
 209 248 214 225 228 195 c 0
 252 144 303 106 353 106 c 0
 384 106 466 142 492 167 c 2
 547 218 l 2
 611 277 644 362 679 362 c 1
 687 360 703 359 703 321 c 0
 703 270 541 10 351 10 c 0
 262 10 184 64 132 166 c 0
 122 186 121 262 121 303 c 0
 121 398 128 533 141 577 c 0
 178 705 356 810 482 810 c 0
 557 810 625 756 625 702 c 0
EndSplineSet
EndChar

StartChar: D
Encoding: 36 68 47
Width: 907
Flags: W
HStem: 611 116<75.729 130.311> 685 107<325.304 549.363>
VStem: 226 99<595.667 667.258> 284 98<76.7812 324.309> 735 98<367.204 589.935>
LayerCount: 2
Back
SplineSet
58 671 m 0
 58 689 80 725 95 725 c 0
 103 725 116 736 125 749 c 0
 136 766 166 776 223 782 c 0
 286 788 327 792 361 792 c 0
 397 792 425 788 464 781 c 0
 694 741 781 675 781 516 c 0
 781 221 565 36 415 0 c 0
 340 -18 386 -76 328 -76 c 0
 311 -76 297 -70 297 -64 c 0
 297 -42 246 -53 246 -5 c 0
 246 10 252 24 265 29 c 0
 278 34 284 66 284 114 c 0
 284 210 265 261 241 518 c 2
 225 691 l 1
 189 688 l 2
 135 683 109 631 91 631 c 0
 82 631 58 655 58 671 c 0
297 668 m 0
 297 595 354 281 354 167 c 0
 354 150 353 137 352 127 c 2
 344 76 l 1
 398 76 l 2
 460 76 522 115 600 202 c 0
 690 303 709 395 709 525 c 0
 709 585 703 596 673 629 c 0
 642 662 615 674 526 691 c 0
 508.108 694.393 417.4 711 345 711 c 0
 311 711 297 709 297 668 c 0
EndSplineSet
Fore
SplineSet
362 685 m 0x58
 328 685 325 682 325 654 c 0x68
 325 580 382 270 382 154 c 0
 382 136 381 122 380 112 c 2
 374 76 l 1
 415 76 l 2
 475 76 539 112 622 198 c 0
 716 296 735 385 735 512 c 0
 735 569 730 576 700 607 c 0
 669 638 643 649 552 665 c 0
 533 668 438 685 362 685 c 0x58
58 662 m 1
 61 694 88 727 108 727 c 1xa8
 108 727 118 730 127 744 c 0
 143 768 186 777 235 782 c 0
 298 788 342 792 379 792 c 0
 418 792 449 788 491 781 c 0
 741 741 833 673 833 512 c 0
 833 220 603 36 437 0 c 1
 371 -17 409 -58 362 -73 c 0
 355 -75 348 -76 341 -76 c 0
 319 -76 298 -68 297 -52 c 1
 289 -45 246 -40 246 7 c 0
 246 32 257 46 273 52 c 1
 280 57 284 90 284 123 c 0x58
 284 214 265 264 241 513 c 2
 226 668 l 1
 203 666 l 1
 147 659 133 611 104 611 c 0xa8
 87 611 58 640 58 662 c 1
EndSplineSet
EndChar

StartChar: E
Encoding: 37 69 48
Width: 631
Flags: W
HStem: -11 101<195.21 371.527> 710 83<325.899 517.799>
VStem: 66 96<398.136 635.881>
LayerCount: 2
Back
SplineSet
66 623 m 0
 66 689 97 707 105 707 c 0
 142 707 215 793 394 793 c 0
 448 793 485 783 485 764 c 0
 485 756 446 743 389 733 c 0
 284 716 181 679 149 648 c 0
 138 637 134 624 134 605 c 0
 134 590 140 543 148 451 c 0
 153 387 156 368 165 368 c 0
 167 368 169 369 172 371 c 0
 195 385 376 427 409 427 c 0
 433 427 439 412 439 402 c 0
 439 378 405 364 269 330 c 0
 169 306 159 301 159 275 c 0
 159 250 159.725 212.493 161 150 c 2
 164 64 l 1
 215 64 l 2
 275 64 383 93 445 126 c 0
 467 138 478 143 487 143 c 0
 500 143 517 123 517 109 c 0
 517 64 339 -11 196 -11 c 0
 158 -11 129 -5 120 8 c 0
 96 38 97 263 73 513 c 0
 68 565 66 599 66 623 c 0
EndSplineSet
Fore
SplineSet
66 598 m 0
 66 686 97 710 118 710 c 0
 148 710 237 793 432 793 c 0
 509 793 537 774 537 753 c 0
 537 736 510 722 429 710 c 0
 308 692 204 656 175 631 c 0
 165 622 162 612 162 599 c 0
 162 597 181 402 186 386 c 1
 215 398 394 439 450 439 c 0
 481 439 491 418 491 404 c 0
 491 395 487 385 479 378 c 0
 438 340 232 315 196 294 c 0
 191 291 190 290 190 281 c 0
 190 257 190 208 192 161 c 2
 195 90 l 1
 237 90 l 2
 298 90 413 117 478 150 c 0
 496 160 511 169 525 169 c 0
 549 169 569 141 569 122 c 0
 569 56 349 -11 216 -11 c 0
 185 -11 135 -7 120 18 c 0
 96 61 97 270 73 508 c 0
 72 520 66 558 66 598 c 0
EndSplineSet
EndChar

StartChar: F
Encoding: 38 70 49
Width: 654
Flags: W
HStem: 343 104<281.846 426.75> 662 127<374.354 442.058>
VStem: 124 98<440.114 643> 165 91<15.1201 261.697>
LayerCount: 2
Back
SplineSet
314 765 m 0x40
 388 765 360 789 461 789 c 0
 515 789 537 784 537 757 c 0
 537 726 487 726 294 687 c 2
 193 666 l 1
 193 586 l 2x40
 193 542 196 487 200 463 c 2
 207 419 l 1
 271 426 l 2
 314 432 355 434 388 434 c 0
 421 434 465 432 465 419 c 0
 465 401 396 374 300 356 c 2
 216 341 l 1x80
 224 182 l 2
 226 142 227 111 227 86 c 0
 227 27 221 10 202 10 c 0
 197 10 190 11 182 14 c 0
 162 20 159 32 159 96 c 0x20
 159 219 124 300 124 544 c 2
 124 713 l 1
 197 739 l 2
 237 753 289 765 314 765 c 0x40
EndSplineSet
Fore
SplineSet
256 92 m 0xd0
 256 26 250 10 215 10 c 0
 205 10 174 14 165 30 c 1xd0
 160 44 159 69 159 96 c 0
 159 219 124 298 124 544 c 2
 124 710 l 1
 207 739 l 1
 258 755 314 765 341 765 c 0
 416 765 393 789 500 789 c 0
 537 789 589 787 589 757 c 0
 589 695 540 705 322 662 c 1
 222 643 l 1
 222 586 l 2xe0
 222 543 225 487 229 465 c 2
 235 433 l 1
 292 439 l 2
 317 442 375 447 425 447 c 0
 483 447 517 442 517 419 c 0
 517 374 340 345 326 343 c 2
 244 330 l 1
 253 183 l 2
 254 158 256 123 256 92 c 0xd0
EndSplineSet
EndChar

StartChar: G
Encoding: 39 71 50
Width: 752
Flags: W
HStem: -6 101<204.814 354.045> 352 120<384.963 501.268> 693 95<478.409 568.615>
VStem: 85 100<114.14 382.786> 563 103<5.57086 207.489>
LayerCount: 2
Back
SplineSet
378 344 m 0
 348 344 284 354 284 395 c 0
 284 435 344 428 357 451 c 0
 360 456 374 459 392 459 c 0
 442 459 530 441 554 421 c 0
 595 387 614 233 614 77 c 0
 614 24 609 8 596 -1 c 0
 590 -6 584 -8 578 -8 c 0
 571 -8 565 -5 557 2 c 0
 542 16 537 45 537 132 c 2
 537 246 l 1
 505 193 l 2
 428 67 326 -6 237 -6 c 0
 212 -6 187 0 164 13 c 0
 129 32 118 49 100 115 c 0
 89 153 85 179 85 210 c 0
 85 232 87 256 91 289 c 0
 104 396 120 435 192 541 c 0
 303 706 424 709 444 744 c 0
 451 756 471 761 495 761 c 0
 558 761 596 727 596 705 c 0
 596 694 579 646 559 646 c 0
 535 646 548 693 519 693 c 0
 476 693 319 647 201 422 c 0
 161 345 157 328 157 238 c 0
 157 107 175 69 238 69 c 0
 304 69 359 97 403 155 c 0
 446 213 481 289 481 324 c 0
 481 347 460 365 443 365 c 0
 420 365 430 344 378 344 c 0
EndSplineSet
Fore
SplineSet
477 352 m 0
 462 352 464 331 407 331 c 0
 368 331 293 344 293 395 c 1
 297 447 354 439 373 458 c 0
 379 464 382 472 422 472 c 0
 467 472 570 457 601 432 c 0
 652 390 666 213 666 86 c 0
 666 39 664 4 632 -5 c 0
 629 -6 624 -8 618 -8 c 0
 565 -8 563 52 563 142 c 2
 563 209 l 1
 555 196 l 1
 472 71 359 -6 256 -6 c 0
 231 -6 202 0 172 15 c 0
 131 37 119 57 100 124 c 0
 89 163 85 191 85 223 c 0
 85 246 87 271 91 304 c 0
 104 412 119 453 197 561 c 0
 317 726 444 735 465 764 c 0
 478 781 502 788 529 788 c 0
 583 788 648 757 648 720 c 0
 648 700 629 646 598 646 c 0
 563 647 572 693 558 693 c 0
 519 693 355 652 230 429 c 0
 187 352 185 337 185 251 c 0
 185 122 201 95 257 95 c 0
 323 95 380 120 423 172 c 0
 473 231 503 298 503 325 c 0
 503 339 489 352 477 352 c 0
EndSplineSet
EndChar

StartChar: H
Encoding: 40 72 51
Width: 718
Flags: W
VStem: 96 112<133.608 315> 530 119<159.182 348.13>
LayerCount: 2
Back
SplineSet
597 71 m 0
 597 39 566 37 562 37 c 0
 529 37 519 95 515 267 c 0
 513 371 506 456 500 456 c 0
 480 456 402 409 264 356 c 2
 180 324 l 1
 186 143 l 2
 187 108 188 78 188 52 c 0
 188 -28 181 -60 165 -60 c 0
 160 -60 155 -57 149 -53 c 0
 121 -33 112 47 96 405 c 0
 90 542 88 634 88 695 c 0
 88 756 90 787 96 801 c 0
 104 821 118 837 127 837 c 0
 159 837 159 420 191 420 c 0
 198 420 221 437 404 494 c 0
 440 506 477 521 484 528 c 0
 492 535 501 575 506 617 c 0
 516 713 524 738 547 738 c 0
 576 738 583 682 585 407 c 0
 590 71 597 96 597 71 c 0
EndSplineSet
Fore
SplineSet
216 50 m 0
 216 -52 201 -60 179 -60 c 0
 115 -60 111 59 96 404 c 0
 90 541 88 634 88 695 c 0
 88 744 89 783 97 801 c 1
 111 827 128 837 142 837 c 0
 148 837 153 835 157 832 c 1
 183 785 187 486 210 435 c 1
 227 441 279 461 431 506 c 1
 466 513 501 522 511 526 c 1
 531 553 532 687 554 725 c 0
 560 735 573 738 585 738 c 0
 627 738 632 731 637 407 c 0
 642 71 649 96 649 71 c 0
 649 49 625 37 602 37 c 0
 591 37 580 40 572 46 c 1
 529 96 549 339 530 441 c 1
 499 431 422 391 289 344 c 2
 208 315 l 1
 214 144 l 2
 215 108 216 77 216 50 c 0
EndSplineSet
EndChar

StartChar: I
Encoding: 41 73 52
Width: 664
Flags: W
HStem: -18 99<155.282 283.328> 677 103<438 537.308>
VStem: 315 125<286.656 665>
LayerCount: 2
Back
SplineSet
390 117 m 0xd0
 394 117 405 132 428 132 c 0
 448 132 467 120 467 101 c 0
 467 72 432 51 309 5 c 0
 267 -11 245 -18 223 -18 c 0
 210 -18 197 -15 180 -10 c 0
 142 1 129 11 129 30 c 0
 129 50 137 55 168 55 c 0
 189 55 229 66 257 78 c 2
 307 101 l 1
 298 288 l 2
 293 392 289 524 289 584 c 2
 289 691 l 1xd0
 260 683 l 2
 225 673 192 669 165 669 c 0
 131 669 107 676 107 691 c 0
 107 721 249 753 301 775 c 0
 310 779 337 780 366 780 c 0
 403 780 443 777 454 773 c 0
 464 769 473 753 473 741 c 0xe0
 473 717 455 708 390 700 c 2
 360 696 l 1
 362 522 l 2
 363 464 368 117 390 117 c 0xd0
EndSplineSet
Fore
SplineSet
460 144 m 1
 467 148 479 153 493 153 c 0
 520 153 545 136 545 110 c 0
 545 69 487 45 353 6 c 1
 309 -10 276 -18 240 -18 c 0
 232 -18 129 -10 129 42 c 0
 129 74 145 81 181 81 c 0
 198 81 237 86 281 102 c 2
 333 121 l 1
 324 292 l 2
 319 392 315 520 315 578 c 2
 315 665 l 1
 297 662 l 2
 245 653 207 648 179 648 c 0
 119 648 107 666 107 680 c 0
 107 725 229 740 335 774 c 1
 347 779 377 780 431 780 c 0
 480 780 518 778 532 767 c 0
 543 758 551 743 551 728 c 0
 551 695 522 684 457 677 c 2
 438 675 l 1
 440 518 l 2
 442 389 447 194 460 144 c 1
EndSplineSet
EndChar

StartChar: J
Encoding: 42 74 53
Width: 741
Flags: W
HStem: -53 103<305.489 376>
VStem: 98 122<193.063 317.295> 412 92<269.868 622.752>
LayerCount: 2
Back
SplineSet
346 644 m 0
 300 644 149 594 103 594 c 0
 89 594 83 597 79 604 c 0
 73 615 69 624 69 632 c 0
 69 663 128 680 354 734 c 2
 591 793 l 1
 592 793 l 2
 596 793 638 770 638 753 c 0
 638 718 482 694 461 677 c 0
 456 673 452 628 452 571 c 2
 452 527 l 2
 452 394 431 159 412 83 c 0
 394 14 352 -53 325 -53 c 0
 291 -53 233 -22 233 -3 c 0
 233 6 226 19 217 25 c 0
 196 38 98 200 98 263 c 0
 98 296 116 315 147 315 c 0
 187 315 189 299 191 238 c 0
 193 183 203 153 232 107 c 0
 269 49 288 25 304 25 c 0
 312 25 319 30 327 40 c 0
 355 74 386 310 386 494 c 2
 386 547 l 2
 386 619 383 644 346 644 c 0
EndSplineSet
Fore
SplineSet
335 50 m 0
 381 50 412 356 412 491 c 2
 412 542 l 2
 412 613 407 624 381 624 c 0
 333 624 162 575 116 575 c 0
 109 575 90 575 81 591 c 0
 74 603 69 614 69 625 c 0
 69 666 129 681 387 736 c 1
 631 793 l 1
 651 789 690 764 690 742 c 1
 685 692 542 677 510 659 c 1
 508 650 504 619 504 565 c 2
 504 522 l 2
 504 392 484 165 464 89 c 0
 440 2 393 -53 359 -53 c 0
 312 -53 239 -19 239 10 c 0
 239 18 230 25 224 29 c 0
 192 52 98 204 98 267 c 0
 98 307 123 330 160 330 c 0
 218 330 218 296 220 244 c 0
 222 192 235 164 265 123 c 0
 297 80 321 50 335 50 c 0
EndSplineSet
EndChar

StartChar: K
Encoding: 43 75 54
Width: 831
Flags: W
VStem: 94 110<488.149 783.432> 115 124<-2.75 228.805>
LayerCount: 2
Back
SplineSet
94 740 m 0xc0
 94 802 92 831 118 831 c 0
 130 831 144 822 153 805 c 0
 160 791 166 732 167 672 c 0xc0
 167 611 171 538 176 507 c 2
 185 451 l 1
 283 556 l 2
 337 613 389 661 397 661 c 0
 421 661 450 713 474 713 c 0
 501 713 513 751 549 751 c 0
 571 751 591 736 591 709 c 0
 591 692 580 685 547 675 c 0
 484 657 216 389 216 346 c 0
 216 342 216 341 385 249 c 0
 597 135 607 112 631 112 c 0
 655 112 730 46 730 26 c 0
 730 15 726 7 720 7 c 0
 694 7 573 51 532 75 c 0
 444 127 216 243 203 243 c 0
 196 243 193 235 193 217 c 0
 193 184 212 72 212 -6 c 0
 212 -51 204 -66 186 -66 c 0
 132 -66 132 -10 115 199 c 0xa0
 104 341 94 609 94 740 c 0xc0
EndSplineSet
Fore
SplineSet
239 10 m 0x40
 239 -39 231 -66 199 -66 c 0
 129 -66 131 13 115 203 c 0x40
 104 341 94 601 94 729 c 2
 94 752 l 2
 94 802 98 831 131 831 c 0
 150 831 167 818 178 798 c 0
 200 758 190 585 204 508 c 2x80
 209 479 l 1
 293 561 l 2
 410 675 416 664 426 667 c 0
 445 673 476 716 505 716 c 0
 525 716 541 753 584 753 c 0
 621 753 642 726 642 702 c 0
 642 673 615 663 586 655 c 0
 521 636 266 400 245 354 c 1
 255 348 283 333 416 268 c 0
 628 164 652 138 670 138 c 1
 707 135 781 66 781 41 c 0
 781 30 780 7 759 7 c 0
 726 7 596 56 558 77 c 0
 461 131 260 227 220 242 c 1
 220 239 219 235 219 230 c 0
 219 206 239 86 239 10 c 0x40
EndSplineSet
EndChar

StartChar: L
Encoding: 44 76 55
Width: 760
Flags: W
HStem: -10 100<172 381.498>
VStem: 97 76<523.239 775.596>
LayerCount: 2
Back
SplineSet
97 752 m 0xc0
 97 764 94 788 112 788 c 0
 123 788 137 775 147 751 c 0xc0
 154 734 166 593 173 436 c 0
 190 73 190 67 234 67 c 0
 294.484 67 607.165 153 617 153 c 0
 643 153 655 126 655 119 c 0
 655 112 649 106 636 94 c 0
 596.777 61.9083 333.496 -10 204 -10 c 0
 124 -10 125 -2 108 396 c 0xa0
 101 555 97 695 97 752 c 0xc0
EndSplineSet
Fore
SplineSet
97 749 m 0
 97 772 103 788 125 788 c 0
 154 788 171 747 173 740 c 0
 200 652 202 144 231 96 c 0
 234 90 238 90 252 90 c 0
 322 91 644 173 656 173 c 0
 676 173 707 154 707 127 c 0
 707 114 697 104 684 94 c 0
 641 60 359 -10 220 -10 c 0
 124 -10 125 9 108 395 c 0
 101 558 97 681 97 749 c 0
EndSplineSet
EndChar

StartChar: M
Encoding: 45 77 56
Width: 779
Flags: W
VStem: 71 115<189.297 459> 580 109<374.458 640.551> 614 105<2.89087 170.339>
LayerCount: 2
Back
SplineSet
112 -71 m 0
 79 -71 71 4 71 467 c 0
 71 680 74 778 83 789 c 0
 91 800 107 808 120 808 c 0
 137 808 151 779 178 687 c 0
 219 540 281 403 304 403 c 0
 327 403 407 539 502 741 c 0
 520 779 551 803 577 803 c 0
 585 803 593 801 599 795 c 0
 628 768 634 712 637 413 c 0
 641 17 667 71 667 19 c 0
 667 -6 653 -12 639 -12 c 0
 619 -12 595 2 587 24 c 0
 572 63 566 664 550 664 c 0
 544 664 528 635 511 597 c 0
 478 522 472 510 418 416 c 0
 390 366 323 320 280 320 c 0
 269 320 237 358 209 407 c 2
 158 494 l 1
 158 236 l 2
 157 -18 149 -71 112 -71 c 0
EndSplineSet
Fore
SplineSet
128 -71 m 0xc0
 74 -71 71 11 71 464 c 0
 71 688 73 767 86 784 c 0
 93 793 112 808 131 808 c 0
 161 808 178 770 206 678 c 0
 253 522 308 419 327 404 c 1
 347 417 412 511 524 734 c 0
 543 772 583 803 616 803 c 0
 627 803 638 799 647 791 c 0
 684 758 686 679 689 412 c 0xc0
 693 30 719 86 719 32 c 0
 719 -3 698 -12 678 -12 c 0
 652 -12 623 5 614 32 c 0xa0
 598 76 592 529 580 646 c 1
 543 582 566 598 460 423 c 0
 430 374 355 320 301 320 c 0
 279 320 241 368 214 413 c 2
 186 459 l 1
 186 249 l 2
 186 -23 172 -71 128 -71 c 0xc0
EndSplineSet
EndChar

StartChar: N
Encoding: 46 78 57
Width: 881
Flags: W
VStem: 82 114<118.075 525.099>
LayerCount: 2
Back
SplineSet
170 314 m 0
 170 225 178 211 178 177 c 0
 178 110 157 33 135 33 c 0
 93 34 82 41 82 189 c 0
 82 350 94 740 102 761 c 0
 109 777 125 786 143 786 c 0
 154 786 166 782 177 775 c 0
 194 764 313 595 313 582 c 0
 313 567 374 495 486 275 c 0
 516 216 592 70 622 70 c 0
 633 70 649 75 663 329 c 0
 685 675 687 714 742 714 c 0
 764 714 774 700 774 656 c 0
 774 602 755 493 734 222 c 0
 720 24 710 -21 659 -21 c 0
 569 -21 506 51 435 195 c 0
 351 363 350 338 337 391 c 0
 325 443 222 582 201 622 c 0
 200 624 199 624 198 624 c 0
 185 624 170 443 170 314 c 0
EndSplineSet
Fore
SplineSet
196 316 m 0
 196 232 204 219 204 185 c 0
 204 110 182 31 148 31 c 0
 92 31 82 57 82 194 c 0
 82 323 92 718 102 752 c 1
 102 752 113 786 156 786 c 0
 170 786 184 781 197 773 c 0
 220 757 346 595 346 575 c 1
 353 557 416 484 527 284 c 0
 592 166 640 100 658 93 c 1
 669 110 678 186 688 331 c 0
 710 656 711 716 781 716 c 0
 825 716 826 670 826 647 c 0
 826 592 807 488 786 226 c 0
 771 40 764 -21 698 -21 c 0
 594 -21 524 55 449 195 c 0
 362 357 359 334 345 388 c 0
 334 429 251 536 215 589 c 1
 205 540 196 415 196 316 c 0
EndSplineSet
EndChar

StartChar: O
Encoding: 47 79 58
Width: 707
Flags: W
HStem: -26 94<265.891 403.089> 650 123<419.639 517.505>
VStem: 61 103<217.06 432.705> 578 81<407.41 567.573>
LayerCount: 2
Back
SplineSet
607 473 m 0
 607 244 481 14 428 14 c 0
 419 14 410 7 407 -2 c 0
 403 -14 337 -26 279 -26 c 0
 242 -26 227 -18 194 7 c 0
 125 62 61 200 61 307 c 0
 61 427 121 564 206 624 c 0
 239 647 275 666 286 666 c 0
 314 666 339 720 372 720 c 0
 412 720 393 747 440 747 c 0
 540 747 607 640 607 473 c 0
552 492 m 0
 552 536 495 635 484 642 c 0
 475 648 463 650 446 650 c 0
 419 650 381 643 332 627 c 0
 233 596 168 507 146 374 c 0
 140 337 136 314 136 293 c 0
 136 263 144 240 160 193 c 0
 196 92 244 42 307 42 c 0
 324 42 343 46 363 54 c 0
 410 72 497 200 507 265 c 0
 518 348 552 452 552 492 c 0
EndSplineSet
Fore
SplineSet
530 280 m 1
 542 368 578 466 578 505 c 0
 578 543 524 632 512 644 c 1
 507 647 499 650 479 650 c 0
 456 650 418 645 362 628 c 0
 215 584 183 435 174 385 c 0
 168 348 164 325 164 306 c 0
 164 279 170 257 188 210 c 0
 225 110 274 68 332 68 c 0
 348 68 366 72 386 79 c 0
 428 95 520 217 530 280 c 1
460 14 m 0
 452 14 452 3 443 -3 c 0
 422 -17 352 -26 302 -26 c 0
 261 -26 242 -18 203 10 c 1
 125 69 61 212 61 320 c 0
 61 442 121 585 216 648 c 0
 260 677 292 691 312 692 c 1
 335 697 361 746 401 746 c 0
 434 746 417 773 473 773 c 0
 587 773 659 661 659 488 c 0
 659 255 531 14 460 14 c 0
EndSplineSet
EndChar

StartChar: P
Encoding: 48 80 59
Width: 703
Flags: W
HStem: 320 89<256.063 379.472> 706 106<273.733 509.108>
VStem: 131 100<419.009 630.447> 564 87<583.719 666.151>
LayerCount: 2
Back
SplineSet
229 795 m 0xe8
 292 795 323 812 384 812 c 0
 391 812 397 812 402 811 c 0
 524.21 795.332 599 786.245 599 666 c 0
 599 609 579 527 563 527 c 0
 555 527 550 519 550 508 c 0
 550 477 442 378 396 368 c 0
 374 362 353 353 349 346 c 0
 345 339 316 333 284 333 c 2
 225 333 l 1
 235 153 l 2
 238 101 239 62 239 32 c 0
 239 -16 235 -38 228 -48 c 0
 217 -61 207 -68 199 -68 c 0
 185 -68 175 -53 171 -23 c 0xd8
 157 80 131 459 131 558 c 2
 131 665 l 1
 101 644 l 2
 88 635 75 630 66 630 c 0
 59 630 47 639 47 654 c 0
 47 673 66 702 104 742 c 0
 145 785 161 798 185 798 c 0
 199 798 203 795 229 795 c 0xe8
447 720 m 0
 412 728 394 732 374 732 c 0
 353 732 330 727 282 717 c 0
 211 703 203 694 203 617 c 0xe8
 203 543 214 426 225 414 c 0
 228 410 236 409 248 409 c 0
 290 409 376 431 421 456 c 0
 447 471 468 494 470 510 c 0
 476 557 538 593 538 644 c 0
 538 679 507 707 447 720 c 0
EndSplineSet
Fore
SplineSet
564 631 m 0
 564 657 539 681 477 694 c 0
 439 702 420 706 401 706 c 0
 382 706 362 702 305 691 c 0
 238 678 231 676 231 604 c 0
 231 531 242 427 251 410 c 1
 254 409 258 409 263 409 c 0
 299 409 391 426 445 454 c 0
 472 468 490 489 491 499 c 0
 498 550 564 587 564 631 c 0
245 795 m 0
 312 795 345 812 412 812 c 0
 417 812 426 812 434 811 c 0
 565 795 651 786 651 658 c 0
 651 617 637 511 603 509 c 1
 601 505 602 497 601 494 c 0
 587 453 479 364 428 354 c 1
 380 341 389 339 380 333 c 0
 369 326 341 320 304 320 c 2
 256 320 l 1
 265 159 l 2
 268 108 270 69 270 39 c 0
 270 -26 260 -50 227 -65 c 0
 222 -67 217 -68 212 -68 c 0
 192 -68 176 -50 171 -12 c 0
 157 89 131 456 131 553 c 2
 131 632 l 1
 121 626 l 2
 114 621 96 610 79 610 c 0
 66 610 47 623 47 646 c 0
 47 672 76 707 108 740 c 0
 148 781 168 798 198 798 c 0
 217 798 217 795 245 795 c 0
EndSplineSet
EndChar

StartChar: Q
Encoding: 49 81 60
Width: 813
Flags: W
HStem: -55 104<236.241 402.354> -18 21G<754 771> 661 124<389.32 591>
VStem: 50 105<161.546 439.481> 617 80<434.503 600.192>
DStem2: 653 174 609 73 0.821065 -0.570835<-27.5487 138.228>
LayerCount: 2
Back
SplineSet
116 547 m 0
 184 685 301 743 528 759 c 0
 531 759 l 0
 565 759 603 715 630 643 c 0
 640 616 645 579 645 536 c 0
 645 463 630 371 602 279 c 2
 571 177 l 1
 606 151 l 2
 680 95 738 23 738 -6 c 0
 738 -14 733 -18 724 -18 c 0
 709 -18 664 5 643 24 c 0
 635 31 606 51 578 71 c 2
 528 106 l 1
 508 74 l 2
 457 -9 372 -55 289 -55 c 0
 242 -55 195 -40 156 -8 c 0
 107 32 50 176 50 259 c 0
 50 353 76 467 116 547 c 0
506 237 m 0
 525 237 591 475 591 532 c 0
 591 571 575 590 546 620 c 0
 515 652 503 661 384 661 c 0
 352 661 325 659 318 657 c 0
 273 641 165 526 165 494 c 0
 165 482 159 465 152 457 c 0
 143 448 128 334 128 252 c 0
 128 208 134 183 151 138 c 0
 184 52 220 23 292 23 c 0
 369 23 468 87 469 138 c 0
 469 154 418 207 349 260 c 0
 328 276 319 284 319 292 c 0
 319 300 338 324 352 324 c 0
 380 324 485 237 506 237 c 0
EndSplineSet
Fore
SplineSet
117 566 m 1xb8
 228 780 502 785 567 785 c 0
 615 785 656 728 681 661 c 0
 689 640 697 605 697 549 c 0
 697 474 681 381 653 288 c 2
 625 195 l 1
 653 174 l 2
 714 128 790 48 790 7 c 0
 790 -8 779 -18 763 -18 c 0x78
 745 -18 697 5 673 27 c 0
 667 33 644 49 609 73 c 2
 568 100 l 1
 555 80 l 2
 498 -6 405 -55 312 -55 c 0
 259 -55 207 -39 163 -5 c 0
 110 37 50 183 50 272 c 0
 50 368 76 484 117 566 c 1xb8
330 305 m 0
 330 319 350 350 378 350 c 0
 411 350 512 274 537 264 c 1
 560 299 617 489 617 546 c 0
 617 580 601 597 573 624 c 0
 542 654 532 661 412 661 c 0
 373 661 350 659 347 658 c 0
 301 643 195 530 195 507 c 0
 195 498 190 476 178 462 c 1
 169 447 155 341 155 264 c 0
 155 221 163 197 179 156 c 0
 211 77 243 49 315 49 c 0xb8
 390 49 487 109 488 151 c 1
 484 162 448 204 367 263 c 0
 349 276 330 289 330 305 c 0
EndSplineSet
EndChar

StartChar: R
Encoding: 50 82 61
Width: 688
Flags: W
HStem: 653 114<234 396.292>
VStem: 168 94<-9.15826 206.926>
LayerCount: 2
Back
SplineSet
57 622 m 0xb0
 57 646.471 144.443 741 159 741 c 0
 210 741 445 712 478 701 c 0
 523 688 545 654 545 610 c 0
 545 512 439 431 439 413 c 0
 439 404 339 338 280 308 c 0
 260 297 244 287 244 283 c 0
 244 277 387 240 454 194 c 0
 480 176 505 162 510 162 c 0
 529 161 587 100 587 82 c 0
 587 65 582 57 569 57 c 0
 530 57 433 133 306 182 c 2
 228 213 l 1
 232 96 l 2
 233 69 233 49 233 33 c 0
 233 -0 235 -24 206 -24 c 0
 180 -24 168 14 168 98 c 0
 168 185 155 232 127 245 c 0
 107 254 97 268 97 281 c 0
 97 294 107 307 126 316 c 2
 159 331 l 1
 151 445 l 2
 143 565 136 607 121 607 c 0
 111 607 109 593 87 593 c 0
 71 593 57 604 57 622 c 0xb0
486 617 m 0
 486 623 489 626 412 647 c 0
 376 657 314 666 274 666 c 2
 202 666 l 1x70
 209 612 l 2
 216 560 231 364 236 364 c 0
 255 364 362 423 394 452 c 0
 429 483 486 588 486 617 c 0
EndSplineSet
Fore
SplineSet
57 635 m 1
 60 671 149 767 172 767 c 0
 229 767 485 737 521 726 c 0
 578 709 597 665 597 626 c 0
 597 522 500 447 489 424 c 1
 487 397 293 303 286 299 c 1
 331 285 439 255 499 218 c 0
 524 202 542 191 549 188 c 1
 581 183 639 119 639 95 c 0
 639 81 636 57 608 57 c 0
 563 57 467 129 322 183 c 2
 257 207 l 1
 260 109 l 2
 262 66 262 66 262 38 c 0
 262 9 260 -24 219 -24 c 0
 177 -24 168 34 168 111 c 0
 168 210 151 239 135 246 c 0
 112 256 97 274 97 294 c 0
 97 313 111 330 134 341 c 2
 158 352 l 1
 151 457 l 2
 145 546 140 591 133 605 c 1
 128 601 118 593 100 593 c 0
 76 593 57 610 57 635 c 1
512 614 m 1
 493 623 387 653 296 653 c 2
 234 653 l 1
 240 614 l 2
 246 570 258 424 261 380 c 1
 298 392 382 433 417 462 c 0
 454 492 508 587 512 614 c 1
EndSplineSet
EndChar

StartChar: S
Encoding: 51 83 62
Width: 631
Flags: W
HStem: 681 80<298.034 478.157>
VStem: 61 107<471.857 569.476> 92 81<101.156 166.932> 466 94<148 256.255>
LayerCount: 2
Back
SplineSet
175 188 m 0xb0
 175 152 145 150 145 127 c 0xb0
 145 120 147 112 152 101 c 0
 165 71 173 69 254 69 c 0
 323 69 350 75 382 99 c 0
 434 136 440 147 440 200 c 0
 440 240 434 247 370 277 c 0
 331 295 291 309 281 309 c 0
 223 309 61 447 61 496 c 0
 61 567 147 676 236 718 c 0
 256.256 728.128 305.705 735 365 735 c 0
 421 735 441 729 473 703 c 0
 496 684 516 656 516 642 c 0
 516 626 514 618 508 618 c 0
 482 618 453 681 363 681 c 0
 250 681 140 581 140 488 c 0
 140 438.4 268.199 388.755 346 364 c 0
 454 330 508 278 508 205 c 0
 508 189 505 172 500 154 c 0
 469 50 413 19 230 7 c 2
 140 1 l 1xd0
 113 57 l 2
 98 86 92 114 92 139 c 0
 92 183 114 215 153 215 c 0
 167 215 175 203 175 188 c 0xb0
EndSplineSet
Fore
SplineSet
167 241 m 0xb0
 184 241 206 233 206 199 c 0
 206 164 173 153 173 140 c 0xb0
 173 136 175 129 180 119 c 0
 191 96 194 95 278 95 c 0
 350 95 376 100 409 122 c 0
 460 156 466 163 466 213 c 0
 466 247 463 250 398 278 c 0
 355 297 316 308 307 309 c 1
 237 309 61 451 61 509 c 0
 61 589 156 701 252 743 c 0
 277 754 333 761 399 761 c 0
 462 761 485 754 520 726 c 0
 551 700 568 671 568 655 c 0
 568 634 563 618 547 618 c 0
 513 618 489 681 396 681 c 0
 282 681 168 588 168 501 c 0xd0
 168 471 256 426 382 389 c 0
 517 349 560 287 560 218 c 0
 560 200 557 182 551 163 c 0
 518 52 456 19 253 7 c 1
 145 0 l 1
 114 64 l 2
 98 95 92 126 92 152 c 0
 92 205 121 241 167 241 c 0xb0
EndSplineSet
EndChar

StartChar: T
Encoding: 52 84 63
Width: 884
Flags: W
HStem: 663 104<594.023 829.997>
LayerCount: 2
Back
SplineSet
221 620 m 0
 163 620 134 604 105 604 c 0
 73 604 45 617 45 636 c 0
 45 676 117 660 564 746 c 0
 638 760 679 767 708 767 c 0
 747 767 803 748 803 725 c 0
 803 706 767 689 708 689 c 0
 672 689 607 681 565 671 c 2
 488 653 l 1
 503 569 l 2
 523 434 538 106 548 24 c 0
 550 7 551 -6 551 -15 c 0
 551 -24 551 -46 524 -46 c 0
 489 -46 477 25 462 274 c 0
 450 472 429 612 410 632 c 0
 404 638 397 640 384 640 c 0
 360 640 280 620 221 620 c 0
EndSplineSet
Fore
SplineSet
744 767 m 0
 801 767 855 742 855 713 c 0
 854 664 761 663 747 663 c 0
 712 663 644 655 601 646 c 2
 533 631 l 1
 546 562 l 1
 567 432 583 115 593 37 c 0
 595 25 596 13 596 2 c 0
 596 -24 588 -46 555 -46 c 0
 506 -46 493 17 476 276 c 0
 462 494 438 605 426 615 c 0
 423 617 420 619 408 619 c 0
 383 619 301 599 237 599 c 0
 192 599 148 584 111 584 c 0
 73 584 45 603 45 628 c 0
 45 680 119 662 594 746 c 0
 670 759 712 767 744 767 c 0
EndSplineSet
EndChar

StartChar: U
Encoding: 53 85 64
Width: 729
Flags: W
HStem: -11 96<274.399 389.264> 770 4<131.234 145.766>
VStem: 95 95<442.481 760.192> 586 94<363.277 634.565>
LayerCount: 2
Back
SplineSet
628 519 m 0
 625 80 380 -11 318 -11 c 0
 279 -11 216 13 186 42 c 0
 120 106 95 556 95 663 c 0
 95 714 100 728 111 737 c 0
 120 744 127 748 133 748 c 0
 150 748 156 716 162 630 c 0
 178 415 221 121 242 90 c 0
 255 69 273 59 297 59 c 0
 321 59 351 70 387 93 c 0
 466 143 507 210 539 341 c 0
 553 397 560 444 560 489 c 0
 560 609 507 699 507 736 c 0
 507 758 536 762 541 762 c 0
 586 762 594 649 618 620 c 0
 624 614 628 568 628 519 c 0
EndSplineSet
Fore
SplineSet
530 749 m 0
 530 781 569 789 578 789 c 0
 636 789 648 666 667 642 c 0
 678 628 680 579 680 539 c 0
 680 90 418 -11 342 -11 c 0
 299 -11 228 13 192 46 c 0
 117 117 95 584 95 676 c 0
 95 733 99 754 131 770 c 0
 136 772 141 774 146 774 c 0
 181 774 185 710 190 644 c 0
 207 430 249 141 272 110 c 0
 275 106 282 85 320 85 c 0
 338 85 365 91 408 117 c 0
 489 165 531 230 564 357 c 0
 579 412 586 458 586 502 c 0
 586 619 530 709 530 749 c 0
EndSplineSet
EndChar

StartChar: V
Encoding: 54 86 65
Width: 794
Flags: W
LayerCount: 2
Back
SplineSet
60 721 m 0
 60 748 85 770 101 770 c 0
 131 770 140 705 159 705 c 0
 164 705 169 696 169 685 c 0
 169 657 215 577 282 382 c 0
 335 228 376 129 387 129 c 0
 398 129 481 334 509 430 c 0
 544.687 556.688 624.2 757 653 757 c 0
 661 757 693 751 693 720 c 0
 693 672 626 529 571 362 c 0
 554 312 512 213 478 138 c 0
 428 30 410 5 387 5 c 0
 343 5 329 27 272 183 c 2
 167 464 l 2
 138 539 114 606 114 613 c 0
 114 635 60 678 60 721 c 0
EndSplineSet
Fore
SplineSet
60 720 m 1
 63 758 101 771 114 770 c 0
 155 766 160 714 174 705 c 1
 178 705 197 705 197 685 c 0
 197 661 245 581 316 386 c 0
 355 281 393 189 413 157 c 1
 439 202 506 358 530 434 c 0
 552 502 634 728 680 755 c 1
 682 755 686 757 692 757 c 0
 705 757 745 750 745 720 c 0
 745 668 681 536 622 358 c 0
 605 308 560 211 523 138 c 0
 477 49 452 5 414 5 c 0
 357 5 339 33 279 183 c 2
 168 459 l 2
 144 519 114 598 114 613 c 1
 114 613 113 612 113 611 c 1
 105 634 60 674 60 720 c 1
EndSplineSet
EndChar

StartChar: W
Encoding: 55 87 66
Width: 930
Flags: W
DStem2: 267 187 436 341 0.374194 0.92735<4.95019 267.516>
LayerCount: 2
Back
SplineSet
693 354 m 0
 693 389 771 794 784 794 c 0
 817 794 832 785 832 744 c 0
 832 714 823 666 808 591 c 2
 756 331 l 2
 713 114 706 134 706 85 c 0
 706 52 691 35 672 35 c 0
 622 35 610 125 590 125 c 0
 585 125 576 144 571 167 c 0
 558 230 493 360 459 392 c 2
 429 421 l 1
 399 346 l 2
 261 -9 286 -42 237 -42 c 0
 213 -42 205 -32 194 19 c 0
 142 250 132 351 103 460 c 0
 96 484 89 520 89 539 c 0
 89 599 60 545 60 682 c 0
 60 714 65 724 77 724 c 0
 111 724 141 630 203 322 c 0
 222 230 242 155 249 155 c 0
 265 155 347 433 373 480 c 0
 384 501 400 511 418 511 c 0
 478 511 565 407 615 258 c 0
 623 233 640 193 649 193 c 0
 663 193 693 302 693 354 c 0
EndSplineSet
Fore
SplineSet
823 794 m 0
 861 794 884 784 884 744 c 0
 884 712 875 664 860 586 c 2
 808 328 l 2
 763 104 758 134 758 85 c 0
 758 54 738 35 709 35 c 1
 648 39 637 110 620 125 c 1
 614 126 612 125 607 128 c 1
 599 136 593 154 590 167 c 0
 576 231 507 355 476 383 c 2
 459 398 l 1
 436 341 l 1
 290 -11 317 -35 267 -41 c 0
 263 -42 258 -42 253 -42 c 0
 240 -42 225 -39 215 -31 c 1
 183 5 141 322 104 457 c 0
 95 489 89 522 89 539 c 0
 89 590 60 544 60 680 c 0
 60 699 63 712 67 718 c 1
 72 722 80 724 89 724 c 0
 97 724 106 722 113 718 c 1
 173 668 224 309 267 187 c 1
 296 249 360 445 384 486 c 1
 390 493 408 511 443 511 c 0
 520 511 613 395 662 262 c 0
 669 245 678 228 684 219 c 1
 697 244 717 312 717 354 c 1
 718 395 790 750 809 790 c 1
 811 791 814 794 823 794 c 0
EndSplineSet
EndChar

StartChar: X
Encoding: 56 88 67
Width: 813
Flags: W
LayerCount: 2
Back
SplineSet
41 739 m 0
 41 747 49 760 61 760 c 0
 84 760 131 720 242 612 c 0
 328 529 399 461 400 461 c 0
 401 461 421 493 445 532 c 0
 495 614 593 721 619 721 c 0
 637 721 645 714 645 700 c 0
 645 680 624 645 583 602 c 0
 567 585 533 527 507 473 c 2
 459 374 l 1
 503 326 l 2
 587 234 720 136 720 86 c 0
 720 61 683 54 678 54 c 0
 655 54 626 81 538 172 c 2
 418 297 l 1
 386 246 l 2
 332 158 295 72 283 65 c 1
 264 46 244 -30 192 -30 c 0
 170 -30 164 -12 164 -7 c 0
 164 45 344 323 344 361 c 0
 344 426 41 680 41 739 c 0
EndSplineSet
Fore
SplineSet
209 -30 m 0
 189 -30 164 -21 164 -7 c 0
 166 54 346 314 354 360 c 1
 354 361 l 1
 351 418 57 659 42 729 c 0
 42 732 41 736 41 739 c 0
 41 746 52 760 74 760 c 0
 108 760 170 701 270 612 c 1
 425 481 l 1
 463 532 l 2
 515 602 619 721 658 721 c 0
 689 721 697 710 697 700 c 0
 697 655 630 584 630 584 c 1
 616 571 580 523 552 467 c 2
 506 376 l 1
 546 335 l 2
 640 239 772 148 772 91 c 0
 772 63 728 54 717 54 c 0
 687 54 657 87 563 172 c 2
 448 276 l 1
 424 246 l 1
 361 149 333 82 315 66 c 1
 298 46 267 -30 209 -30 c 0
EndSplineSet
EndChar

StartChar: Y
Encoding: 57 89 68
Width: 782
Flags: W
VStem: 640 100<651.539 766.977>
LayerCount: 2
Back
SplineSet
614 726 m 0
 614 757 618 784 635 784 c 0
 641 784 650 779 667 770 c 0
 682 761 688 754 688 736 c 0
 688 642 564 426 523 376 c 0
 478 322 492 328 404 122 c 2
 323 -72 l 2
 314 -93 301 -104 287 -104 c 0
 271 -104 251 -86 251 -65 c 0
 251 -34 279 35 362 210 c 2
 421 336 l 1
 256 504 l 2
 112 650 71 694 71 721 c 0
 71 732 80 747 92 747 c 0
 114 747 160 704 310 553 c 0
 378 486 442 430 452 430 c 0
 491 430 513 506 598 657 c 0
 606 673 614 704 614 726 c 0
EndSplineSet
Fore
SplineSet
640 728 m 0
 640 774 652 784 674 784 c 0
 686 784 727 767 736 753 c 0
 739 748 740 742 740 736 c 0
 740 639 615 421 568 368 c 0
 522 317 535 327 444 122 c 2
 358 -72 l 2
 348 -94 327 -104 307 -104 c 0
 281 -104 255 -85 255 -65 c 0
 255 -27 292 63 374 221 c 2
 432 333 l 1
 264 495 l 2
 116 639 71 685 71 718 c 0
 71 732 83 747 105 747 c 0
 133 747 160 722 341 553 c 1
 412 492 469 450 484 443 c 1
 514 446 545 526 625 657 c 0
 632 669 640 700 640 728 c 0
EndSplineSet
EndChar

StartChar: Z
Encoding: 58 90 69
Width: 1010
Flags: W
HStem: -3 97<377.085 619.581> 33 100<605.75 862.278> 68 96<845.858 965.538> 559 21G<89.5 109> 641 97<353.115 620.233>
VStem: 274 103<103.961 155.469> 621 105<583.009 638.995>
LayerCount: 2
Back
SplineSet
41 588 m 0xbc
 41 628 332 712 540 712 c 0
 636 712 669 688 669 634 c 0
 669 590 619 487 577 444 c 0
 476 342 323 136 323 102 c 0
 323 81 374 68 433 68 c 0xbc
 547 68 553 101 692 107 c 0x7c
 808 110 750 119 840 135 c 0
 854 137 865 138 873 138 c 0
 889 138 902 133 902 110 c 0
 902 87 878 68 844 68 c 0xbc
 787 68 798 33 698 33 c 0x7c
 576 30 536 -3 379 -3 c 0
 248 -3 224 16 224 43 c 0
 224 61 248 86 248 105 c 0
 248 120 338 264 351 269 c 1
 356 272 360 279 360 288 c 0
 360 301 436 390 506 460 c 0
 541 494 595 591 595 620 c 0
 595 639 582 641 485 641 c 0
 326 641 331 616 196 593 c 0
 154 585 115 574 111 567 c 0
 107 561 100 559 91 559 c 0
 70 559 41 573 41 588 c 0xbc
EndSplineSet
Fore
SplineSet
44 612 m 0x9e
 73 666 383 738 577 738 c 0
 665 738 726 720 726 647 c 0
 726 595 663 491 625 448 c 0
 528 340 387 155 377 117 c 1
 377 115 l 1
 379 108 416 94 479 94 c 0x9e
 595 94 604 127 751 133 c 1x5e
 871 136 805 145 903 161 c 0
 914 163 924 164 934 164 c 0
 961 164 980 154 980 123 c 0
 980 90 947 68 909 68 c 0x3e
 856 68 867 33 758 33 c 1x5e
 632 30 590 -3 422 -3 c 0
 309 -3 243 9 243 56 c 0
 243 77 274 105 274 118 c 1
 277 146 365 281 385 293 c 0
 389 295 387 301 390 308 c 0
 400 335 475 430 531 482 c 0
 567 516 621 616 621 635 c 1
 614 639 586 641 518 641 c 0
 351 641 359 616 214 593 c 1
 166 584 139 576 134 572 c 1
 126 563 115 559 103 559 c 0
 76 559 41 577 41 597 c 0
 41 609 42 608 44 612 c 0x9e
EndSplineSet
EndChar

StartChar: bracketleft
Encoding: 59 91 70
Width: 485
Flags: W
HStem: -78 86<233.425 379.106> 605 110<183.744 250.689>
LayerCount: 2
Back
SplineSet
342 -0 m 0
 365 -0 380 -2 380 -25 c 0
 380 -32 378 -39 374 -44 c 0
 365 -56 288 -65 235 -65 c 0
 209 -65 189 -63 184 -58 c 0
 149 -29 158 215 130 503 c 0
 126 547 123 579 123 603 c 0
 123 657 137 666 180 679 c 0
 234 695 269 702 291 702 c 0
 299 702 306 701 317 698 c 0
 330 695 335 688 335 677 c 0
 335 655 325 650 277 644 c 0
 190 633 221 618 179 618 c 0
 166 618 160 615 165 611 c 0
 176 603 190 459 207 189 c 0
 217 19 214 -5 256 -5 c 0
 273 -5 307 -0 342 -0 c 0
EndSplineSet
Fore
SplineSet
291 715 m 0
 308 715 349 710 349 676 c 0
 349 639 310 635 279 631 c 0
 198 621 224 606 182 605 c 1
 195 557 208 381 220 190 c 0
 231 17 228 8 256 8 c 0
 283 8 315 13 341 13 c 0
 371 13 393 6 393 -24 c 0
 393 -43 386 -51 381 -55 c 0
 366 -68 294 -78 239 -78 c 0
 209 -78 183 -75 175 -68 c 0
 133 -28 147 186 117 502 c 0
 113 546 110 578 110 603 c 0
 110 661 125 676 176 691 c 0
 232 708 268 715 291 715 c 0
EndSplineSet
EndChar

StartChar: backslash
Encoding: 60 92 71
Width: 693
Flags: W
VStem: 39 91<613.134 674.936>
LayerCount: 2
Back
SplineSet
52 656 m 0
 52 668 65 671 74 671 c 0
 92 671 114 661 117 646 c 0
 120 612 306 425 386 289 c 0
 401 263 419 236 426 229 c 0
 448 207 520 108 541 71 c 0
 566 22 591 1 591 -13 c 0
 591 -23 575 -37 560 -37 c 0
 542 -37 521 -18 501 19 c 0
 463 87 360 218 317 281 c 0
 236 406 112 524 103 554 c 0
 100 564 94 571 90 571 c 0
 79 571 52 634 52 656 c 0
EndSplineSet
Fore
SplineSet
74 684 m 0
 99 684 128 669 130 647 c 0
 132 621 320 427 397 296 c 0
 415 265 431 242 435 238 c 0
 459 214 532 112 552 77 c 0
 579 28 604 6 604 -13 c 0
 604 -31 583 -50 560 -50 c 0
 532 -50 509 -22 490 13 c 0
 453 79 348 209 306 274 c 0
 212 418 105 508 91 550 c 0
 91 551 89 556 86 559 c 1
 64 563 39 635 39 656 c 0
 39 676 55 684 74 684 c 0
EndSplineSet
EndChar

StartChar: bracketright
Encoding: 61 93 72
Width: 538
Flags: W
HStem: 596 84<160.634 264.63> 614 71<188.244 293.191>
VStem: 318 79<42 366.034>
LayerCount: 2
Back
SplineSet
172 609 m 0xa0
 156 609 150 623 150 626 c 0
 150 636 183 662 205 667 c 0
 220 670 248 672 274 672 c 0
 305 672 333 670 339 666 c 0
 363 650 384 396 384 127 c 2xc0
 384 -9 l 1
 361 -20 l 2
 343 -27 293 -32 250 -32 c 0
 187 -32 176 -26 176 -19 c 0
 176 -8 196 -1 266 17 c 2
 328 32 l 1
 330 143 l 2
 330 157 331 173 331 190 c 0
 331 334 317 563 305 599 c 0
 298 618 288 627 266 627 c 0
 233 627 191 609 172 609 c 0xa0
EndSplineSet
Fore
SplineSet
173 596 m 0xa0
 151 596 137 612 137 626 c 0
 137 648 181 675 202 680 c 0xa0
 212 682 247 685 281 685 c 0
 313 685 344 682 352 671 c 0
 383 630 397 328 397 127 c 2
 397 -17 l 1
 366 -32 l 1
 346 -40 291 -45 245 -45 c 0
 193 -45 163 -41 163 -20 c 0
 163 6 202 16 263 30 c 2
 315 42 l 1
 317 143 l 2
 317 158 318 174 318 190 c 0
 318 352 303 565 293 595 c 0
 288 609 282 614 266 614 c 0x60
 237 614 194 596 173 596 c 0xa0
EndSplineSet
EndChar

StartChar: asciicircum
Encoding: 62 94 73
Width: 447
Flags: W
HStem: 566 21G<79 90>
LayerCount: 2
Back
SplineSet
205 795 m 0
 225 795 366 651 366 616 c 0
 366 610 364 591 352 591 c 0
 317 591 235 718 207 718 c 0
 192 718 179 694 149 644 c 0
 117 589 107 579 89 579 c 0
 75 579 70 580 70 587 c 0
 70 597 84 632 91 640 c 0
 114 667 183 795 205 795 c 0
EndSplineSet
Fore
SplineSet
353 578 m 0
 307 578 231 699 207 705 c 1
 190 704 141 586 107 570 c 0
 102 568 94 566 86 566 c 0
 72 566 57 571 57 587 c 0
 57 599 71 636 81 648 c 0
 120 695 169 808 206 808 c 0
 233 808 379 659 379 616 c 0
 379 593 367 578 353 578 c 0
EndSplineSet
EndChar

StartChar: underscore
Encoding: 63 95 74
Width: 598
Flags: W
HStem: -35 62<35.7936 295.928>
LayerCount: 2
Back
SplineSet
446 54 m 0x60
 542 54 539 49 539 34 c 0
 539 3 529 24 287 -4 c 0
 188 -16 128 -22 93 -22 c 0
 70 -22 58 -19 53 -14 c 0
 46 -7 43 -2 43 3 c 0
 43 9 51 13 68 14 c 0xa0
 86 14 393 43 401 51 c 1
 402 53 421 54 446 54 c 0x60
EndSplineSet
Fore
SplineSet
443 67 m 0
 527 67 552 66 552 37 c 0
 552 -14 534 12 289 -17 c 0
 185 -29 126 -35 92 -35 c 0
 55 -35 47 -28 37 -15 c 0
 33 -10 30 -4 30 3 c 1
 31 9 33 26 68 27 c 0
 98 28 372 54 395 62 c 1
 399 66 403 67 443 67 c 0
EndSplineSet
EndChar

StartChar: grave
Encoding: 64 96 75
Width: 420
Flags: W
HStem: 532 21G<227 250.5>
LayerCount: 2
Back
SplineSet
112 673 m 0
 112 683 130 697 137 697 c 0
 142 697 259 592 259 565 c 0
 259 561 256 545 245 545 c 0
 217 545 112 659 112 673 c 0
EndSplineSet
Fore
SplineSet
246 532 m 0
 208 532 99 649 99 672 c 0
 99 689 121 710 137 710 c 0
 140 710 143 709 146 707 c 0
 156 700 272 601 272 565 c 1
 269 539 255 532 246 532 c 0
EndSplineSet
EndChar

StartChar: a
Encoding: 65 97 76
Width: 608
Flags: W
HStem: -1 73<176.122 315.234> 227 78<243.278 418.879> 472 77<284.614 431.895>
VStem: 94 78<81.0874 171.46> 450 94<15.7526 102.75> 461 74<259 437.269>
LayerCount: 2
Back
SplineSet
362 498 m 0xe4
 256 498 161 421 115 421 c 0
 107 421 103 424 103 431 c 0
 103 479 160 485 263 528 c 0
 299 542 329 549 354 549 c 0
 400 549 432 526 457 477 c 0
 481 430 481 427 483 247 c 0xe4
 485 76 492 41 492 41 c 2
 492 20 467 -5 461 -5 c 0
 427 -5 426 122 418 122 c 0
 416 122 413 118 409 111 c 0
 384 70 285 -1 227 -1 c 0
 194 -1 140 14 120 29 c 0
 105 41 94 83 94 120 c 0xf0
 94 174 118 211 197 255 c 0
 238 279 284 292 319 292 c 0
 374 292 381 259 396 259 c 0
 404 259 427 238 431 238 c 0
 434 238 435 244 435 260 c 0
 435 450 406 498 362 498 c 0xe4
407 188 m 0
 407 198 388 240 299 240 c 0
 176 240 144 143 144 110 c 0xe8
 144 77 147 70 171 57 c 0
 185 50 197 46 211 46 c 0
 261 46 346 94 346 106 c 0
 346 123 407 164 407 188 c 0
EndSplineSet
Fore
SplineSet
364 115 m 1xf0
 364 138 428 173 431 191 c 0
 431 194 418 227 327 227 c 0
 202 227 172 144 172 119 c 0
 172 92 174 90 194 81 c 0
 204 77 216 72 231 72 c 0
 280 72 364 115 364 115 c 1xf0
544 51 m 1xf8
 541 17 511 -5 501 -5 c 0
 462 -5 456 65 450 105 c 1xf8
 410 59 310 -1 249 -1 c 0
 215 -1 150 12 125 30 c 0
 102 47 94 98 94 128 c 0
 94 184 120 224 209 268 c 0
 268 298 320 305 346 305 c 0
 409 305 423 276 433 272 c 1
 448 269 455 264 461 259 c 1
 461 443 428 472 396 472 c 0
 284 472 181 395 128 395 c 0
 108 395 103 409 103 418 c 0
 103 477 169 485 282 528 c 1
 322 542 357 549 387 549 c 0
 442 549 481 524 508 473 c 0
 533 427 532 424 535 248 c 0xf4
 537 110 540 90 544 51 c 1xf8
EndSplineSet
EndChar

StartChar: b
Encoding: 66 98 77
Width: 707
Flags: W
HStem: -23 81<253.197 360.047> 452 90<423.492 546.342> 851 4<122.234 135.812>
VStem: 563 84<254.076 437.631>
LayerCount: 2
Back
SplineSet
474 542 m 0
 506 542 595 506 595 372 c 0
 595 281 553 172 476 95 c 0
 420 39 308 -23 264 -23 c 0
 220 -23 150 16 144 43 c 0
 136 79 134 377 112 517 c 0
 99 599 85 733 85 789 c 0
 85 820 89 830 99 840 c 0
 109 850 117 855 123 855 c 0
 156 855 144 715 171 547 c 0
 178 501 186 440 189 409 c 2
 194 354 l 1
 272 431 l 2
 331 490 363 513 403 526 c 0
 435 536 457 542 474 542 c 0
537 367 m 0
 537 415 526 478 471 478 c 0
 458 478 443 476 422 472 c 0
 394 467 316 398 263 331 c 0
 229 287 209 208 209 142 c 0
 209 58 242 32 264 32 c 0
 274 32 288 36 314 44 c 0
 372 62 443 123 491 197 c 0
 521 243 537 310 537 367 c 0
EndSplineSet
Fore
SplineSet
509 542 m 0
 552 542 647 501 647 367 c 0
 647 276 604 169 521 93 c 0
 465 43 340 -23 283 -23 c 1
 212 -21 149 28 144 51 c 0
 135 90 135 373 112 511 c 0
 99 591 85 720 85 776 c 0
 85 798 85 832 122 851 c 0
 127 854 132 855 136 855 c 0
 187 855 167 725 197 536 c 0
 204 490 213 429 216 398 c 2
 218 370 l 1
 281 428 l 2
 345 487 382 513 428 526 c 0
 475 539 493 542 509 542 c 0
563 360 m 0
 563 401 553 452 506 452 c 0
 493 452 478 451 456 447 c 0
 437 444 360 393 293 319 c 0
 259 282 237 211 237 149 c 0
 237 72 271 58 283 58 c 0
 305 58 420 78 516 207 c 0
 546 247 563 309 563 360 c 0
EndSplineSet
EndChar

StartChar: c
Encoding: 67 99 78
Width: 621
Flags: W
HStem: -4 84<207.764 350.359> 464 81<244.069 433.836>
VStem: 48 85<150.513 320.091> 482 75<342 415.953>
LayerCount: 2
Back
SplineSet
505 402 m 0
 505 379 493 363 480 363 c 0
 469 363 459 373 456 392 c 0
 455 405 439 432 423 450 c 0
 405 470 391 490 287 490 c 0
 234 490 215 474 177 419 c 0
 126 347 105 294 105 235 c 0
 105 146 131 125 160 97 c 0
 199 60 211 54 248 54 c 0
 304 54 370 94 438 172 c 0
 473 211 501 232 516 232 c 0
 524 232 529 226 529 213 c 0
 529 189 446 85 400 53 c 0
 346 14 302 -4 259 -4 c 0
 227 -4 196 5 160 23 c 0
 87 59 58 113 51 230 c 0
 49 253 48 270 48 284 c 0
 48 320 55 336 75 373 c 0
 113 445 197 524 249 538 c 0
 266 542 291 545 314 545 c 0
 422 545 505 457 505 402 c 0
EndSplineSet
Fore
SplineSet
557 258 m 0
 577 258 581 237 581 227 c 0
 581 193 491 87 444 55 c 0
 385 16 334 -4 284 -4 c 0
 247 -4 212 5 172 23 c 0
 90 59 59 115 51 231 c 0
 50 253 48 269 48 283 c 0
 48 395 198 521 270 538 c 0
 290 543 317 545 343 545 c 0
 464 545 557 454 557 387 c 0
 557 366 544 337 519 337 c 1
 519 337 487 337 482 377 c 0
 481 387 463 415 450 428 c 0
 434 445 423 464 314 464 c 0
 261 464 246 450 208 403 c 0
 154 336 133 289 133 237 c 0
 133 156 161 139 188 117 c 0
 224 87 235 80 273 80 c 0
 326 80 393 116 466 194 c 0
 509 240 539 258 557 258 c 0
EndSplineSet
EndChar

StartChar: d
Encoding: 68 100 79
Width: 767
Flags: W
HStem: -10 93<222.037 379.041> 446 95<316.206 408.73>
VStem: 70 100<124.488 313.479> 576 117<-18.6559 144.396> 579 100<410 671.075>
LayerCount: 2
Back
SplineSet
641 -10 m 0xe8
 641 -58 610 -62 606 -62 c 0
 568 -62 564 -2 559 50 c 0xe8
 558 64 552 151 543 151 c 0
 537 151 522 139 508 122 c 0
 435 36 352 -10 272 -10 c 0
 247 -10 222 -5 198 4 c 0
 110 37 70 99 70 200 c 0
 70 381 204 498 279 526 c 0
 305 536 319 541 333 541 c 0
 366 541 472 485 506 441 c 0
 522 420 539 405 547 405 c 0
 548 405 548 406 549 406 c 1
 555 410 560 527 560 667 c 0
 560 807 566 935 572 952 c 0
 581 973 594 983 611 983 c 2
 638 983 l 1
 630 572 l 2xe4
 628 470 627 377 627 299 c 0xf0
 627 26 641 54 641 -10 c 0xe8
407 433 m 0
 375 454 337 472 325 472 c 0
 298 472 169 347 152 304 c 0
 145 287 142 252 142 217 c 0
 142 175 146 133 155 117 c 0
 166 97 225 57 280 57 c 0
 330 57 379 87 452 157 c 0
 499 202 534 246 534 260 c 0xf0
 534 305 463 395 407 433 c 0
EndSplineSet
Fore
SplineSet
431 412 m 0xe0
 409 425 368 446 352 446 c 0
 336 446 201 342 179 297 c 0
 172 283 170 251 170 220 c 0
 170 174 176 143 182 133 c 0
 192 117 252 83 303 83 c 0
 350 83 400 108 477 173 c 0
 539 225 558 254 560 260 c 1
 560 293 494 375 431 412 c 0xe0
576 146 m 1xf0
 557 130 451 -10 294 -10 c 0
 265 -10 238 -4 211 5 c 0
 115 38 70 100 70 203 c 0
 70 416 272 541 360 541 c 0
 400 541 517 482 555 436 c 0
 565 424 573 415 579 410 c 1
 590 496 581 901 599 944 c 0
 605 959 619 983 650 983 c 2
 690 983 l 1
 682 559 l 2
 680 462 679 372 679 298 c 0xe8
 679 37 693 67 693 3 c 0
 693 -14 685 -62 645 -62 c 0
 573 -62 591 88 576 146 c 1xf0
EndSplineSet
EndChar

StartChar: e
Encoding: 69 101 80
Width: 669
Flags: W
HStem: -10 81<240.123 398.639> 265 73<148.189 367.797> 476 73<249.483 413.719>
VStem: 51 87<166.258 265> 478 83<378.156 422.46>
LayerCount: 2
Back
SplineSet
568 215 m 0
 570 215 573 214 573 207 c 0
 573 184 531 118 490 83 c 0
 422 23 347 -10 280 -10 c 0
 178 -10 51 84 51 279 c 0
 51 306 54 331 61 352 c 0
 84 423 187 549 270 549 c 0
 282 549 297 548 318 546 c 0
 381 541 396 537 430 511 c 0
 472 479 509 421 509 387 c 0
 509 345 483 327 387 306 c 0
 337 295 253 283 203 280 c 2
 110 275 l 1
 110 235 l 2
 110 182 129 143 179 95 c 0
 213 62 248 45 287 45 c 0
 412 45 531 215 568 215 c 0
407 459 m 0
 366 496 354 502 320 502 c 0
 254 502 230 493 196 454 c 0
 139 389 120 360 120 338 c 0
 120 329 124 325 144 325 c 0
 196 325 288 337 402 363 c 0
 447 374 452 396 452 405 c 0
 452 417 440 430 407 459 c 0
EndSplineSet
Fore
SplineSet
607 241 m 0
 618 241 625 233 625 220 c 0
 625 187 573 117 538 86 c 0
 467 25 384 -10 307 -10 c 0
 189 -10 51 86 51 279 c 0
 51 306 55 330 62 352 c 0
 87 425 200 549 296 549 c 0
 310 549 326 548 349 546 c 0
 422 541 439 535 477 510 c 0
 518 483 561 423 561 383 c 0
 561 330 516 312 425 294 c 0
 370 283 280 272 225 269 c 2
 138 265 l 1
 138 239 l 2
 138 189 160 155 208 115 c 0
 245 84 281 71 316 71 c 0
 446 71 559 241 607 241 c 0
478 399 m 0
 478 407 450 428 434 440 c 0
 393 471 384 476 350 476 c 0
 285 476 262 470 227 436 c 0
 183 393 149 358 149 338 c 1
 148 339 l 1
 152 338 158 338 166 338 c 0
 212 338 324 350 435 372 c 0
 477 380 478 396 478 399 c 0
EndSplineSet
EndChar

StartChar: f
Encoding: 70 102 81
Width: 702
Flags: W
HStem: 409 91<90.6562 189.333> 463 81<405 505.943> 928 71<385.039 522.796>
VStem: 257 87<180.768 428 530 845.96> 568 77<822.033 893.028>
LayerCount: 2
Back
SplineSet
223 450 m 0xb8
 195 450 154 429 111 429 c 0
 83 429 67 439 67 457 c 0
 67 472 83 481 148 500 c 2
 229 524 l 1
 231 611 l 2
 232 658 238 751 245 816 c 0
 257 927 260 935 292 967 c 0
 317 991 327 999 360 999 c 0xb8
 377 999 399 997 432 994 c 0
 488 988 502 982 533 952 c 0
 556 929 567 910 567 890 c 0
 567 860 537 827 528 827 c 0xd8
 520 827 516 839 516 861 c 0
 516 904 498 922 431 944 c 0
 411 950 394 954 380 954 c 0
 349 954 329 938 313 904 c 0
 300 876 289 714 289 616 c 0
 289 543 290 530 318 530 c 0
 346 530 386 544 431 544 c 0
 451 544 463 536 463 529 c 0
 463 517 434 503 377 486 c 2
 291 461 l 1
 288 302 l 2
 288 279 287 259 287 241 c 0
 287 68 315 84 315 27 c 0
 315 3 300 -3 287 -3 c 0
 251 -3 234 88 234 276 c 0
 234 368 231 446 228 449 c 0
 227 450 226 450 223 450 c 0xb8
EndSplineSet
Fore
SplineSet
125 409 m 0xb8
 79 409 67 431 67 447 c 0
 67 474 104 489 157 500 c 2xb8
 254 521 l 1
 257 598 l 2
 258 646 264 738 271 804 c 0
 284 921 288 930 323 963 c 1
 357 992 371 999 411 999 c 0
 432 999 457 997 495 994 c 0
 560 988 575 979 607 948 c 0
 631 924 645 902 645 877 c 1
 643 838 613 801 591 801 c 0
 578 801 568 814 568 848 c 0
 568 880 559 897 487 919 c 0
 465 925 447 928 434 928 c 0
 409 928 389 919 371 885 c 0
 357 859 344 690 344 596 c 0
 344 530 347 530 363 530 c 0
 388 530 443 544 486 544 c 0
 531 544 541 527 541 516 c 0
 541 495 507 481 434 463 c 2x78
 347 442 l 1
 344 300 l 2
 344 278 342 259 342 242 c 0
 342 76 374 97 374 39 c 0
 374 5 346 -3 331 -3 c 0
 320 -3 307 0 300 8 c 0
 242 64 267 362 255 428 c 1
 218 426 166 409 125 409 c 0xb8
EndSplineSet
EndChar

StartChar: g
Encoding: 71 103 82
Width: 756
Flags: W
HStem: -248 85<485.749 586.21> 49 62<206.426 337.803> 518 78<381.678 565.777>
VStem: 70 90<165.27 312.036> 230 110<-96.2664 -32.6472> 568 106<390.539 510.581>
DStem2: 668 17 553 207 0.0722743 -0.997385<-194.464 135.77>
LayerCount: 2
Back
SplineSet
512 -189 m 0
 569 -189 561 -143 561 -138 c 0
 561 22 538 73 534 131 c 0
 529 207 527 233 520 233 c 0
 517 233 512 226 505 215 c 0
 471 165 380 91 331 72 c 0
 306 62 264 55 236 55 c 0
 194 55 177 62 137 97 c 0
 98 131 86 151 77 200 c 0
 73 221 70 244 70 263 c 0
 70 275 71 285 73 291 c 0
 82 327 132 421 165 464 c 0
 193 502 286 562 345 581 c 0
 376 591 413 596 450 596 c 0
 539 596 622 568 622 492 c 0
 622 432 593 405 593 341 c 0
 593 297 600 215 616 10 c 2
 631 -197 l 1
 596 -225 l 2
 575 -242 562 -248 539 -248 c 0
 428 -248 224 -150 224 -104 c 0
 224 -69 273 -2 298 -2 c 0
 313 -2 320 -7 320 -17 c 0
 320 -38 302 -48 302 -79 c 0
 302 -121 375 -149 402 -149 c 0
 436 -149 463 -189 512 -189 c 0
132 265 m 0
 132 192 174 111 237 111 c 0
 319 111 425 195 483 305 c 0
 516 369 542 463 542 508 c 0
 542 521 540 529 535 532 c 0
 520 540 492 544 462 544 c 0
 435 544 406 541 383 534 c 0
 261 499 132 340 132 265 c 0
EndSplineSet
Fore
SplineSet
160 252 m 0
 160 188 197 111 257 111 c 0
 335 111 445 187 507 298 c 0
 544 365 568 456 568 495 c 0
 568 499 567 507 566 509 c 1
 554 515 531 518 497 518 c 0
 469 518 440 515 417 509 c 0
 293 475 160 320 160 252 c 0
550 -163 m 0
 579 -163 587 -151 587 -133 c 0
 587 40 566 67 560 134 c 2
 560 134 557 181 553 207 c 1
 516 158 419 86 363 66 c 0
 334 56 288 49 256 49 c 0
 210 49 188 54 142 92 c 0
 100 127 86 151 77 199 c 0
 73 220 70 242 70 262 c 0
 70 324 151 440 170 463 c 0
 203 504 307 562 368 580 c 0
 403 591 443 596 484 596 c 0
 579 596 674 568 674 483 c 0
 674 421 645 397 645 337 c 0
 645 296 654 215 668 17 c 2
 683 -190 l 1
 643 -222 l 2
 620 -241 604 -248 578 -248 c 0
 454 -248 230 -148 230 -91 c 0
 230 -42 291 24 322 24 c 0
 339 24 360 20 360 -4 c 0
 360 -29 340 -38 340 -66 c 0
 340 -96 406 -123 433 -123 c 0
 474 -123 503 -163 550 -163 c 0
EndSplineSet
EndChar

StartChar: h
Encoding: 72 104 83
Width: 590
Flags: W
HStem: 517 20G<380 426.5>
VStem: 95 117<92.9334 283.357> 445 77<8.90683 430.08>
LayerCount: 2
Back
SplineSet
95 86 m 0
 95 250 56 563 56 743 c 0
 56 779 58 800 62 807 c 0
 70 821 78 828 85 828 c 0
 117 828 112 763 138 425 c 2
 147 307 l 1
 165 346 l 2
 192 406 333 537 368 537 c 0
 402 537 450 492 462 449 c 0
 467 432 470 324 470 206 c 0
 470 0 470 -7 448 -7 c 0
 427 -7 425 3 419 189 c 0
 415 316 406 403 395 436 c 2
 379 486 l 1
 321 432 l 2
 259 373 202 290 184 233 c 0
 161 151 167 -22 130 -22 c 0
 125 -22 119 -19 113 -14 c 0
 100 -3 95 22 95 86 c 0
EndSplineSet
Fore
SplineSet
95 95 m 0
 95 254 56 584 56 731 c 0
 56 766 58 791 64 800 c 0
 76 820 88 828 99 828 c 0
 144 828 139 764 164 413 c 2
 169 344 l 1
 207 410 357 537 403 537 c 0
 450 537 500 488 513 444 c 0
 519 423 522 302 522 209 c 2
 522 188 l 2
 522 133 518 -7 482 -7 c 0
 447 -7 450 59 445 202 c 0
 443 264 436 400 419 445 c 2
 408 476 l 1
 360 436 l 2
 290 378 231 295 212 242 c 1
 190 169 195 -23 143 -23 c 0
 136 -23 128 -19 118 -11 c 0
 98 5 95 41 95 95 c 0
EndSplineSet
EndChar

StartChar: i
Encoding: 73 105 84
Width: 303
Flags: W
HStem: 737 110<124.798 198.968>
VStem: 98 118<219.85 410.257> 108 103<753.548 833.051>
LayerCount: 2
Back
SplineSet
114 570 m 0x80
 123 578 131 582 138 582 c 0
 166 582 175 506 186 260 c 0
 189 194 190 140 190 101 c 0
 190 55 188 28 184 23 c 0
 176 13 165 8 154 8 c 0
 140 8 127 15 123 29 c 0
 117 46 98 395 98 495 c 0
 98 549 103 561 114 570 c 0x80
108 805 m 0x40
 108 825 129 847 140 847 c 0
 147 847 185 831 185 799 c 0
 185 780 173 763 154 763 c 0
 134 763 108 780 108 805 c 0x40
EndSplineSet
Fore
SplineSet
119 570 m 0xc0
 132 579 143 582 152 582 c 0
 164 582 173 576 179 569 c 1
 202 526 216 272 216 126 c 0
 216 72 214 32 210 24 c 1
 199 15 188 8 167 8 c 0
 141 8 128 19 124 29 c 0
 117 51 98 412 98 495 c 0
 98 542 103 559 119 570 c 0xc0
108 804 m 1xa0
 111 831 137 847 153 847 c 0
 165 847 211 832 211 799 c 0
 211 769 195 737 167 737 c 0
 141 737 108 764 108 804 c 1xa0
EndSplineSet
EndChar

StartChar: j
Encoding: 74 106 85
Width: 518
Flags: W
HStem: -243 88<158.364 314.251> 544 20G<290 329> 722 104<240.701 322.301>
VStem: 69 87<-146.771 -28.4842> 225 108<737.777 813.688> 331 84<-148.011 279.418>
LayerCount: 2
Back
SplineSet
293 259 m 0xd4
 266 372 253 489 253 540 c 0
 253 562 258 564 272 564 c 2
 274 564 l 2
 297 564 297 562 318 452 c 0
 350 286 363 190 363 69 c 0xe0
 363 44 362 18 361 -9 c 0xc4
 353 -221 339 -243 212 -243 c 0
 147 -243 99 -228 99 -208 c 0
 99 -202 92 -194 84 -191 c 0
 73 -188 69 -171 69 -130 c 0xe0
 69 -73 86 -41 101 -41 c 0
 113 -41 124 -61 125 -105 c 0
 125 -130 129 -156 133 -162 c 0
 140 -172 198 -181 240 -181 c 0
 258 -181 273 -179 278 -175 c 0
 302 -158 305 -47 305 43 c 0
 305 134 300 231 293 259 c 0xd4
218 789 m 0xc8
 218 811 242 826 252 826 c 0
 257 826 281 818 281 786 c 0
 281 767 273 748 261 748 c 0
 236 749 218 769 218 789 c 0xc8
EndSplineSet
Fore
SplineSet
303 -152 m 1xf4
 314 -152 331 -111 331 41 c 0
 331 159 322 236 317 253 c 0
 282 366 268 477 268 524 c 0
 268 551 271 564 309 564 c 0
 349 564 349 552 370 447 c 0
 402 288 415 195 415 78 c 0
 415 54 414 30 413 4 c 0
 405 -210 390 -243 237 -243 c 0
 80 -243 110 -196 93 -190 c 0
 79 -185 69 -178 69 -122 c 0
 69 -43 93 -15 114 -15 c 0
 155 -15 156 -141 156 -141 c 1
 166 -148 226 -155 268 -155 c 0
 283 -155 295 -154 303 -152 c 1xf4
225 776 m 0xf8
 225 810 262 826 282 826 c 0
 292 826 333 815 333 773 c 0
 333 736 311 722 289 722 c 0
 259 722 225 748 225 776 c 0xf8
EndSplineSet
EndChar

StartChar: k
Encoding: 75 107 86
Width: 571
Flags: W
HStem: 534 20G<417.5 440.5>
VStem: 51 76<603.287 788.419> 87 107<18.7897 148.062 232.75 278.65>
LayerCount: 2
Back
SplineSet
51 745 m 0
 51 758 47 793 74 793 c 0
 85 793 96 785 102 770 c 0
 115 737 131 489 146 394 c 2
 154 336 l 1
 268 450 l 2
 347 529 375 554 391 554 c 0
 400 554 415 538 415 524 c 0
 415 503 400 514 359 456 c 0
 332 415 272 357 201 300 c 0
 174 279 161 262 161 248 c 0
 161 239 167 231 179 225 c 2
 286 175 l 2
 384 129 458 76 458 51 c 0
 458 37 450 30 438 30 c 0
 405 30 362 79 341 79 c 0
 335 79 329 83 329 87 c 0
 329 95 301 108 207 143 c 2
 154 163 l 1
 161 80 l 2
 163 58 164 41 164 28 c 0
 164 -3 158 -14 143 -14 c 0
 99 -14 96 24 87 257 c 0
 84 341 78 435 72 467 c 0
 61 529 51 676 51 745 c 0
EndSplineSet
Fore
SplineSet
477 28 m 1xc0
 433 31 396 75 379 75 c 0
 355 75 352 91 352 91 c 1
 342 98 299 113 222 137 c 2
 184 149 l 1
 190 89 l 2
 192 72 194 55 194 40 c 0
 194 9 186 -14 156 -14 c 0
 96 -14 95 45 87 260 c 0xa0
 85 300 79 422 72 461 c 0
 59 528 51 667 51 741 c 0xc0
 51 762 54 793 87 793 c 0xa0
 102 793 118 785 127 762 c 0
 141 727 158 474 173 383 c 2
 178 351 l 1
 286 446 l 2
 353 505 405 554 430 554 c 1
 451 551 467 532 467 513 c 0
 467 486 447 493 409 441 c 0
 384 406 324 353 230 289 c 0
 203 271 191 258 190 250 c 0
 190 248 191 243 202 238 c 2
 323 190 l 2
 334 185 510 113 510 61 c 0
 510 41 497 28 477 28 c 1xc0
EndSplineSet
EndChar

StartChar: l
Encoding: 76 108 87
Width: 325
Flags: W
HStem: 959 20G<128 149.5>
VStem: 97 73<721.889 968.8>
LayerCount: 2
Back
SplineSet
97 799 m 0
 97 959 109 979 128 979 c 0
 134 979 140 976 144 970 c 0
 153 954 211 41 211 36 c 0
 211 19 204 14 185 14 c 0
 138 14 154 56 103 658 c 0
 99 701 97 751 97 799 c 0
EndSplineSet
Fore
SplineSet
97 807 m 0
 97 960 115 979 141 979 c 0
 158 979 168 967 170 959 c 0
 181 912 237 27 237 23 c 0
 237 2 228 -12 199 -12 c 0
 135 -12 154 43 103 644 c 0
 101 672 97 740 97 807 c 0
EndSplineSet
EndChar

StartChar: m
Encoding: 77 109 88
Width: 922
Flags: W
HStem: 465 85<345.882 386.991> 487 63<675.325 716.885> 541 20G<167 190>
VStem: 144 82<404.322 515.361> 159 80<-65.4196 234.82> 467 72<-17.2822 185.41> 746 65<-6.85938 230.097>
LayerCount: 2
Back
SplineSet
144 503 m 0
 144 535 150 561 160 561 c 0
 184 561 196 379 210 379 c 0
 216 379 228 429 238 439 c 1
 241 443 254 465 265 488 c 0
 293 545 298 550 336 550 c 0
 359 550 377 538 404 507 c 0
 435 470 442 453 455 371 c 2
 471 277 l 1
 488 337 l 2
 521 453 594 550 647 550 c 0
 680 550 711 508 723 449 c 0
 729 422 732 358 732 268 c 0
 732 -14 726 -9 709 -12 c 0
 706 -13 704 -13 702 -13 c 0
 689 -13 689 8 688 172 c 0
 688 384 673 487 640 487 c 0
 623 487 600 458 572 401 c 0
 525 306 491 161 484 22 c 0
 482 -11 477 -21 464 -21 c 0
 448 -21 446 -10 441 108 c 0
 432 324 420 384 373 454 c 0
 357 477 346 491 335 491 c 0
 316 491 296 446 248 325 c 0
 238 299 230 261 230 239 c 0
 230 169 216 241 210 53 c 0
 208 -40 210 -74 186 -74 c 0
 164 -74 159 -24 159 166 c 0
 159 368 144 419 144 503 c 0
EndSplineSet
Fore
SplineSet
811 218 m 0x56
 811 5 803 -13 769 -13 c 0
 759 -13 750 -8 746 5 c 0
 733 49 754 487 700 487 c 0x56
 670 487 554 300 539 34 c 0
 537 5 531 -21 504 -21 c 0
 470 -21 472 12 467 114 c 0
 457 319 444 372 394 435 c 0
 389 442 370 465 364 465 c 1
 348 461 308 375 280 315 c 0
 269 292 261 256 261 238 c 0
 261 168 245 238 239 60 c 0
 237 -10 243 -74 200 -74 c 0
 163 -74 159 -22 159 169 c 0x8e
 159 334 144 435 144 494 c 0
 144 551 161 561 173 561 c 0x36
 207 561 214 455 226 400 c 1
 243 443 237 415 273 481 c 0
 306 541 315 550 365 550 c 0x96
 400 550 423 531 451 502 c 1
 485 464 494 445 507 360 c 1
 514 323 l 1
 549 433 631 550 708 550 c 0
 756 550 789 498 801 444 c 0
 807 416 811 316 811 218 c 0x56
EndSplineSet
EndChar

StartChar: n
Encoding: 78 110 89
Width: 671
Flags: W
HStem: 468 98<433.852 483.678>
VStem: 508 77<-1.37429 428.047>
LayerCount: 2
Back
SplineSet
126 541 m 0
 126 573 142 575 146 575 c 0
 164 575 166 561 187 371 c 0
 198 282 207 209 208 207 c 1
 210 206 222 242 237 288 c 0
 264 378 274 397 321 465 c 0
 370 533 405 566 434 566 c 0
 452 566 468 554 483 531 c 0
 524 470 527 450 531 227 c 0
 532 173 533 131 533 99 c 0
 533 -1 525 -7 497 -8 c 0
 486 -8 482 -4 482 34 c 0
 482 70 486 121 486 182 c 0
 486 295 476 422 464 453 c 0
 459 466 442 494 427 494 c 0
 398 494 323 374 281 272 c 0
 240 177 231 145 222 57 c 0
 216 1 209 -45 206 -45 c 0
 203 -45 192 -38 183 -28 c 0
 158 -3 169 101 138 384 c 0
 131 451 126 513 126 541 c 0
EndSplineSet
Fore
SplineSet
126 523 m 0
 126 567 146 575 159 575 c 0
 192 574 192 548 213 360 c 1
 227 246 l 1
 238 279 l 2
 265 362 274 383 332 459 c 0
 379 521 425 566 469 566 c 0
 496 566 517 549 533 525 c 0
 575 465 579 444 583 229 c 0
 584 178 585 138 585 105 c 0
 585 21 578 -8 539 -8 c 0
 514 -8 508 3 508 45 c 0
 508 80 512 128 512 185 c 0
 512 303 500 413 489 437 c 0
 481 455 465 468 462 468 c 0
 441 468 359 360 313 264 c 0
 270 173 258 146 248 64 c 0
 238 -17 236 -45 219 -45 c 1
 212 -44 202 -41 187 -24 c 0
 156 10 171 87 138 377 c 0
 137 387 126 475 126 523 c 0
EndSplineSet
EndChar

StartChar: o
Encoding: 79 111 90
Width: 703
Flags: W
HStem: -19 83<244.894 409.749> 475 94<324.187 535.284>
VStem: 56 101<147.993 316.218> 561 85<270.618 450.457>
LayerCount: 2
Back
SplineSet
153 449 m 0
 259 549 313 569 420 569 c 0
 503 569 554 545 575 495 c 0
 588 465 594 427 594 387 c 0
 594 250 525 79 431 22 c 0
 387 -5 338 -19 290 -19 c 0
 226 -19 165 6 125 52 c 0
 68 119 56 150 56 235 c 0
 56 320 86 385 153 449 c 0
314 38 m 0
 426 38 535 220 535 415 c 0
 535 446 529 456 512 470 c 0
 488 490 459 501 433 501 c 0
 416 501 407 496 345 490 c 0
 299 484 279 474 238 435 c 0
 159 360 129 302 129 228 c 0
 129 117 205 39 314 38 c 0
EndSplineSet
Fore
SplineSet
159 451 m 0
 274 549 335 569 452 569 c 0
 544 569 602 545 626 491 c 0
 640 460 646 422 646 382 c 0
 646 251 577 81 471 22 c 0
 422 -5 368 -19 314 -19 c 0
 242 -19 171 5 128 53 c 0
 67 121 56 155 56 237 c 0
 56 323 87 389 159 451 c 0
340 64 m 0
 448 64 561 226 561 406 c 0
 561 434 555 439 542 449 c 0
 524 462 496 475 466 475 c 0
 451 475 431 470 374 465 c 0
 329 461 310 451 268 416 c 0
 187 348 157 296 157 230 c 0
 157 133 231 64 340 64 c 0
EndSplineSet
EndChar

StartChar: p
Encoding: 80 112 91
Width: 707
Flags: W
HStem: -247 21G<256.5 275> 37 75<277.132 383.362> 388 193<107 174> 483 98<288.259 524.809>
VStem: 549 94<321.653 468.496>
LayerCount: 2
Back
SplineSet
116 512 m 0xe8
 116 525 127 581 161 581 c 0xe8
 188 581 183 550 208 550 c 0
 240 550 311 581 396 581 c 0xd8
 426 581 455 577 487 570 c 0
 556 554 591 511 591 441 c 0
 591 386 570 316 529 228 c 0
 474 110 392 45 303 45 c 0
 294 45 284 45 274 47 c 2
 228 54 l 1
 239 0 l 2
 253 -66 275 -180 275 -213 c 0
 275 -242 265 -246 244 -246 c 0
 220 -246 213 -238 203 -202 c 0
 190 -155 163 -47 140 216 c 0
 125 399 121 414 92 414 c 0
 71 414 60 422 60 433 c 0
 60 458 116 478 116 512 c 0xe8
237 137 m 0
 267 137 278 112 306 112 c 0
 389 112 523 300 523 418 c 0
 523 464 497 499 486 502 c 0
 474 507 453 509 427 509 c 0xd8
 375 509 306 500 262 486 c 2
 195 464 l 1
 197 400 l 2
 198 365 203 291 208 237 c 0
 215 158 221 138 237 137 c 0
EndSplineSet
Fore
SplineSet
60 419 m 0xe8
 60 454 116 472 116 499 c 0
 116 513 127 581 174 581 c 0xe8
 209 581 209 550 224 550 c 0
 257 550 332 581 426 581 c 0xd8
 460 581 492 577 527 570 c 0
 605 553 643 505 643 433 c 0
 643 391 632 326 580 221 c 0
 522 104 429 37 326 37 c 0
 319 37 306 37 293 39 c 2
 263 43 l 1
 271 9 l 2
 276 -12 310 -154 310 -204 c 0
 310 -239 285 -247 265 -247 c 0
 248 -247 230 -240 222 -230 c 0
 201 -203 164 -56 140 210 c 0
 125 379 120 388 107 388 c 0
 67 388 60 408 60 419 c 0xe8
519 477 m 1
 519 477 507 483 460 483 c 0xd8
 406 483 332 474 287 461 c 2
 224 442 l 1
 226 387 l 2
 229 296 244 137 256 137 c 0
 293 137 306 112 330 112 c 0
 409 112 549 292 549 405 c 0
 549 449 523 475 519 477 c 1
EndSplineSet
EndChar

StartChar: q
Encoding: 81 113 92
Width: 714
Flags: W
HStem: -248 21G<465 516> 52 64<143.138 217.381> 497 77<306.429 410.849>
VStem: 42 82<132.136 330.6> 411 75<409.348 496.325> 538 75<-124.59 33.9224>
LayerCount: 2
Back
SplineSet
42 232 m 0
 42 417 184 574 349 574 c 0
 365 574 378 572 393 566 c 0
 422 555 434 540 434 498 c 0
 434 429 399 288 399 200 c 0
 399 174 403 161 411 161 c 0
 418 161 443 180 467 203 c 0
 515 250 573 285 599 285 c 0
 606 285 611 281 611 274 c 0
 611 261 479 130 466 130 c 2
 465 130 l 1
 465 129 489 121 504 106 c 0
 555 53 561 50 561 -1 c 0
 561 -16 560 -36 560 -63 c 0
 560 -127 554 -124 540 -165 c 0
 518 -226 498 -248 463 -248 c 0
 457 -248 l 0
 409 -248 384 -242 353 22 c 2
 334 178 l 1
 270 124 l 2
 217 80 184 62 150 62 c 0
 64 62 42 159 42 232 c 0
385 496 m 0
 385 518 369 523 360 523 c 0
 212 512 96 392 96 248 c 0
 96 164 118 116 155 116 c 0
 204 116 310 239 328 282 c 0
 355 340 366 446 380 474 c 0
 383 480 385 488 385 496 c 0
490 48 m 0
 472 71 453 81 438 81 c 0
 421 81 409 68 409 43 c 0
 409 -56 451 -185 469 -185 c 0
 481 -185 498 -115 510 -97 c 0
 512 -94 513 -93 513 -87 c 0
 513 -80 512 -67 509 -40 c 0
 501 36 513 19 490 48 c 0
EndSplineSet
Fore
SplineSet
538 -77 m 1
 538 -73 531 34 531 34 c 2
 530 43 497 81 473 81 c 0
 457 81 456 65 456 55 c 0
 456 -33 489 -126 505 -153 c 1
 514 -135 523 -100 538 -77 c 1
400 497 m 0
 302 497 125 410 124 235 c 0
 124 187 133 116 172 116 c 0
 214 116 324 230 350 274 c 1
 378 329 391 438 407 467 c 0
 409 471 411 477 411 483 c 0
 411 492 407 497 400 497 c 0
663 269 m 0
 663 247 555 149 529 129 c 1
 537 125 545 119 552 112 c 0
 604 60 613 54 613 -1 c 0
 613 -13 612 -29 612 -50 c 0
 612 -114 606 -113 591 -156 c 0
 562 -237 535 -248 497 -248 c 0
 433 -248 404 -242 369 25 c 2
 352 153 l 1
 304 116 l 2
 247 73 209 52 167 52 c 0
 66 52 42 155 42 230 c 0
 42 415 197 574 386 574 c 0
 405 574 420 571 437 565 c 0
 469 553 486 535 486 487 c 0
 486 420 451 278 446 195 c 0
 446 182 447 176 448 172 c 1
 480 190 579 291 638 291 c 0
 653 291 663 281 663 269 c 0
EndSplineSet
EndChar

StartChar: r
Encoding: 82 114 93
Width: 578
Flags: W
HStem: 412 76<423.308 501.424> 521 20G<142.5 154.5>
VStem: 100 77<333.567 529.995> 124 120<29.0221 193.558>
LayerCount: 2
Back
SplineSet
414 486 m 0xa0
 439 486 457 465 457 458 c 0
 457 449 445 441 419 431 c 0
 336 398 233 245 214 126 c 0
 193 -8 184 -38 162 -38 c 0
 131 -38 130 -11 124 47 c 0
 108 215 100 363 100 445 c 0xc0
 100 478 101 500 104 509 c 0
 111 530 123 541 132 541 c 0
 141 541 148 532 148 514 c 0
 148 454 174 269 183 269 c 0
 188 269 205 294 220 324 c 0
 267 412 359 486 414 486 c 0xa0
EndSplineSet
Fore
SplineSet
453 488 m 0xe0
 496 488 509 457 509 449 c 0
 509 434 495 424 463 412 c 0
 383 382 265 238 244 130 c 0
 220 6 209 -38 174 -38 c 0
 127 -38 128 17 124 55 c 0xd0
 120 94 100 291 100 448 c 0xe0
 100 484 101 512 124 532 c 0xd0
 131 538 139 541 146 541 c 0
 163 541 177 526 177 503 c 0
 177 450 196 337 207 293 c 1
 213 301 221 313 230 327 c 0
 280 409 388 488 453 488 c 0xe0
EndSplineSet
EndChar

StartChar: s
Encoding: 83 115 94
Width: 544
Flags: W
HStem: -56 72<202.377 327.199> 464 72<266.001 403.116>
VStem: 68 84<320.45 376.899> 383 70<78.3774 162.851>
LayerCount: 2
Back
SplineSet
181 235 m 0
 172 235 68 287 68 346 c 0
 68 381 133 500 242 527 c 0
 275.236 536.232 320.223 536 329 536 c 0
 360 536 368 531 393 503 c 0
 410 484 424 462 424 455 c 0
 424 447 419 443 411 443 c 0
 372 443 378 490 314 490 c 0
 269 490 211 464 168 418 c 0
 137 385 124 369 124 354 c 0
 124 337 146 301 237 269 c 0
 365 225 401 195 401 129 c 0
 401 121 398 76 385 45 c 0
 374 16 319 -56 267 -56 c 0
 232 -56 162 -43 132 -28 c 0
 108 -16 84 27 84 55 c 0
 84 68 91 83 103 83 c 0
 112 83 122 74 131 55 c 0
 147 22 206 -10 248 -10 c 0
 313 -10 357 95 357 122 c 0
 357 131 348 171 300 188 c 0
 250 205 193 235 181 235 c 0
EndSplineSet
Fore
SplineSet
84 67 m 0
 84 89 97 109 115 109 c 0
 129 109 146 98 159 74 c 0
 174 47 233 16 276 16 c 0
 337 16 383 107 383 129 c 0
 383 132 377 166 329 180 c 0
 261 200 235 216 196 225 c 0
 172 230 68 282 68 343 c 0
 68 384 141 500 266 527 c 0
 271 528 366 536 366 536 c 1
 400 536 413 532 442 499 c 0
 464 474 476 453 476 442 c 0
 476 427 466 417 450 417 c 0
 402 417 412 464 350 464 c 0
 251 464 152 367 152 346 c 0
 152 332 186 302 268 278 c 0
 402 238 453 208 453 133 c 0
 453 124 450 79 436 48 c 0
 421 14 361 -56 297 -56 c 0
 259 -56 178 -44 140 -27 c 0
 111 -13 84 32 84 67 c 0
EndSplineSet
EndChar

StartChar: t
Encoding: 84 116 95
Width: 597
Flags: MW
HStem: 526 21G<76.5 109.5>
VStem: 251 99<662.274 858.245> 298 116<-9.62844 161.229>
LayerCount: 2
Back
SplineSet
234 695 m 0xa0
 234 770 220 808 220 884 c 0
 220 894 220 903 221 909 c 0
 225 931 238 944 250 944 c 0
 257 944 263 941 267 933 c 0
 275 916 290 666 294 662 c 1
 294 662 295 661 297 661 c 0
 319 661 363 678 407 678 c 0
 427 678 457 674 457 656 c 0xc0
 457 640 428 627 347 607 c 2
 297 595 l 1
 303 426 l 2
 311 170 336 64 336 1 c 0
 336 -10 336 -30 313 -30 c 0
 289 -30 272 16 272 85 c 0x90
 272 169 261 226 244 448 c 0
 237 569 235 573 229 573 c 0
 198 573 106 551 76 551 c 0
 53 551 47 559 47 575 c 0xc0
 47 614 193 622 223 642 c 0
 230 647 234 665 234 695 c 0xa0
EndSplineSet
Fore
SplineSet
252 547 m 1xa0
 189 543 129 526 90 526 c 0
 63 526 47 534 47 560 c 0
 47 620 198 616 243 639 c 1
 249 645 251 670 251 682 c 0
 251 757 233 790 233 881 c 0
 233 928 266 944 287 944 c 0
 298 944 310 942 318 926 c 1
 327 900 342 710 350 662 c 1xc0
 382 665 432 678 473 678 c 0
 523 678 535 657 535 643 c 0
 535 618 505 603 415 581 c 1
 358 572 l 1
 366 420 l 2
 379 176 414 77 414 14 c 0
 414 -19 391 -30 368 -30 c 0
 352 -30 336 -26 328 -20 c 0
 298 7 298 80 298 93 c 0
 298 172 284 226 263 439 c 0
 256 511 255 533 252 547 c 1xa0
EndSplineSet
EndChar

StartChar: u
Encoding: 85 117 96
Width: 658
Flags: W
HStem: -40 80<193.827 259.928> 519 20G<101.5 126.5 526.5 553.5>
VStem: 76 88<148.193 528.812> 474 106<354 506.234>
LayerCount: 2
Back
SplineSet
76 352 m 0
 76 499 87 539 104 539 c 0
 108 539 136 536 136 488 c 0
 136 462 132 454 132 402 c 0
 132 296 147 102 160 53 c 0
 167 27 177 14 194 14 c 0
 210 14 233 28 264 55 c 0
 341 123 422 286 450 430 c 0
 461 488 476 539 483 543 c 0
 490 548 498 550 504 550 c 0
 518 550 528 539 528 522 c 0
 528 483 499 336 499 257 c 0
 499 147 550 36 550 -6 c 0
 550 -28 521 -31 520 -31 c 0
 478 -31 454 173 430 173 c 0
 421 173 411 154 390 121 c 0
 332 29 252 -40 202 -40 c 0
 122 -40 103 -3 83 197 c 0
 78 244 76 300 76 352 c 0
EndSplineSet
Fore
SplineSet
117 539 m 0
 136 539 164 524 164 478 c 0
 164 451 160 445 160 396 c 0
 160 382 167 70 203 43 c 0
 206 41 210 40 213 40 c 0
 222 40 242 47 279 76 c 0
 358 137 444 289 474 425 c 0
 497 531 512 550 541 550 c 0
 566 550 580 533 580 510 c 0
 580 472 551 333 551 257 c 0
 551 155 602 49 602 7 c 1
 601 0 602 -13 583 -24 c 0
 575 -29 568 -30 561 -30 c 0
 503 -30 491 128 465 169 c 1
 459 162 448 145 435 127 c 0
 377 41 286 -40 221 -40 c 0
 123 -40 104 6 83 198 c 0
 80 225 76 295 76 364 c 0
 76 486 86 539 117 539 c 0
EndSplineSet
EndChar

StartChar: v
Encoding: 86 118 97
Width: 642
Flags: W
HStem: 536 20G<536.5 560.5> 546 1<106.372 118.951>
VStem: 494 96<428.725 534.33>
LayerCount: 2
Back
SplineSet
468 487 m 0
 468 515 489 556 516 556 c 0
 523 556 538 554 538 530 c 0
 538 491 505 393 414 145 c 0
 381 53 318 -40 290 -40 c 0
 234 -40 199 138 144 317 c 0
 110 430 85 508 85 538 c 0
 85 545 87 547 93 547 c 0
 95 547 99 547 103 546 c 0
 169 535 276 49 292 49 c 0
 306 49 369 176 395 259 c 0
 432 376 468 453 468 487 c 0
EndSplineSet
Fore
SplineSet
494 474 m 0x60
 494 507 518 556 555 556 c 0xa0
 566 556 590 551 590 517 c 0
 590 482 568 414 462 145 c 0
 423 46 352 -40 313 -40 c 0
 238 -40 204 125 145 310 c 0
 120 389 85 492 85 525 c 0
 85 534 89 547 106 547 c 0
 114 547 118 546 119 546 c 0
 194 529 281 146 318 58 c 1
 341 89 389 177 414 250 c 0
 455 368 494 444 494 474 c 0x60
EndSplineSet
EndChar

StartChar: w
Encoding: 87 119 98
Width: 748
Flags: W
HStem: -27 360<220 354> 533 20G<74 87 661.5 676>
DStem2: 231 110 276 28 0.361067 0.93254<0 167.625>
LayerCount: 2
Back
SplineSet
47 517 m 0
 47 528 59 553 71 553 c 0
 79 553 87 547 98 533 c 0
 127 500 118 398 137 363 c 0
 154 334 203 75 214 75 c 0
 216 75 255 180 271 233 c 0
 288 289 309 320 331 320 c 0
 355 320 431 243 452 198 c 0
 462 176 478 150 488 138 c 2
 505 118 l 1
 515 147 l 2
 533 195 580 505 612 544 c 0
 616 549 622 551 628 551 c 0
 641 551 655 539 655 525 c 0
 655 514 631 463 608 323 c 0
 591 225 542 42 528 29 c 0
 524 25 512 23 502 25 c 0
 487 27 461 68 390 202 c 0
 383 216 350 254 341 254 c 0
 325 254 317 201 244 22 c 0
 233 -10 218 -27 203 -27 c 0
 199 -27 194 -25 189 -21 c 0
 159 3 118 249 91 342 c 0
 80 376 72 415 72 431 c 0
 72 470 47 497 47 517 c 0
EndSplineSet
Fore
SplineSet
47 506 m 1
 50 530 64 553 84 553 c 0
 90 553 97 551 103 547 c 0
 161 507 140 403 161 367 c 0
 178 337 211 177 231 110 c 1
 245 145 267 203 278 237 c 0
 281 246 307 333 354 333 c 0
 392 333 475 247 497 203 c 0
 508 180 525 156 536 144 c 1
 564 221 605 496 641 539 c 0
 648 547 657 551 666 551 c 0
 686 551 707 534 707 513 c 0
 706 491 687 468 660 317 c 0
 639 199 592 36 575 20 c 0
 569 14 557 11 547 11 c 0
 513 11 496 38 406 196 c 0
 397 211 377 230 367 238 c 1
 355 222 340 169 276 28 c 0
 271 16 253 -27 220 -27 c 0
 207 -27 196 -20 190 -13 c 0
 156 27 118 249 92 335 c 0
 82 370 72 406 72 424 c 0
 72 459 47 481 47 506 c 1
EndSplineSet
EndChar

StartChar: x
Encoding: 88 120 99
Width: 635
Flags: W
HStem: 506 20G<99.5 118>
VStem: 65 86<463.044 516.191>
LayerCount: 2
Back
SplineSet
65 481 m 0
 65 494 78 526 97 526 c 0
 107 526 117 517 124 499 c 0
 133 474 290 302 305 302 c 0
 308 302 330 334 355 374 c 2
 424 488 l 2
 439 512 452 524 464 524 c 0
 476 524 492 505 492 493 c 0
 492 471 450 441 438 402 c 0
 431 371 354 266 354 253 c 0
 354 240 522 101 530 75 c 0
 532 69 533 63 533 58 c 0
 533 43 524 34 511 34 c 0
 498 34 480 43 464 61 c 0
 429 99 325 189 315 189 c 0
 310 189 277 146 242 92 c 0
 197 23 173 -5 154 -5 c 0
 145 -5 130 6 130 16 c 0
 130 31 147 61 194 132 c 2
 266 241 l 1
 222 288 l 2
 176 338 65 436 65 481 c 0
EndSplineSet
Fore
SplineSet
173 -5 m 0
 166 -5 131 2 131 28 c 0
 131 51 169 101 202 145 c 2
 274 240 l 1
 234 278 l 2
 174 336 65 421 65 470 c 1
 67 500 88 526 111 526 c 0
 125 526 140 516 151 491 c 0
 160 470 293 334 331 306 c 1
 339 316 355 336 376 368 c 2
 451 482 l 2
 460 495 479 524 502 524 c 0
 521 524 544 502 544 482 c 0
 544 455 500 424 490 392 c 0
 480 358 414 278 402 255 c 1
 426 227 572 115 581 87 c 0
 583 80 585 74 585 68 c 0
 585 47 571 32 550 32 c 0
 527 32 505 49 493 62 c 0
 457 99 372 163 347 178 c 1
 304 140 222 -5 173 -5 c 0
EndSplineSet
EndChar

StartChar: y
Encoding: 89 121 100
Width: 578
Flags: W
HStem: 49 86<166.033 214.158> 515 20G<385 430.5>
VStem: 73 86<135.969 487.073> 210 92<-129.343 -34.0637> 352 94<-121.973 5>
LayerCount: 2
Back
SplineSet
128 288 m 0
 128 192 134 135 162 135 c 0
 187 135 262 215 286 270 c 0
 343 395 330 535 381 535 c 0
 395 535 410 523 410 503 c 0
 410 444 365 380 365 211 c 0
 365 189 366 169 368 150 c 2
 375 121 l 1
 407 137 l 2
 423 144 436 148 446 148 c 0
 463 148 472 140 472 129 c 0
 472 115 459 98 430 83 c 2
 389 62 l 1
 394 -50 l 2
 391 -146 386 -230 381 -237 c 0
 376 -245 368 -249 356 -249 c 0
 341 -249 321 -243 293 -231 c 0
 261 -217 246 -203 230 -169 c 0
 211 -130 202 -94 202 -67 c 0
 202 -32 214 -32 242 21 c 0
 258 51 281 49 297 67 c 0
 317 88 324 83 324 94 c 0
 324 95 318 173 303 173 c 0
 286 173 231 75 159 75 c 0
 133 75 111 90 93 122 c 0
 75 154 73 175 73 308 c 0
 74 457 82 504 110 504 c 0
 126 504 130 495 130 429 c 0
 130 387 128 345 128 288 c 0
260 -109 m 0
 260 -135 312 -186 329 -186 c 0
 338 -186 344 -176 344 -116 c 0
 343 -82 335 -63 331 -30 c 2
 325 30 l 1
 297 -13 l 2
 270 -55 260 -90 260 -109 c 0
EndSplineSet
Fore
SplineSet
123 504 m 0
 157 504 159 470 159 433 c 0
 159 349 157 333 157 266 c 0
 157 155 171 135 180 135 c 0
 196 135 275 203 304 262 c 0
 369 394 350 535 420 535 c 0
 441 535 462 518 462 492 c 0
 462 433 417 374 417 213 c 0
 417 193 418 173 420 156 c 1
 423 145 l 1
 441 153 l 2
 445 155 467 165 485 165 c 0
 509 165 524 152 524 135 c 0
 524 118 509 96 475 79 c 2
 441 63 l 1
 446 -37 l 1
 443 -126 439 -220 431 -231 c 0
 429 -234 422 -249 394 -249 c 0
 374 -249 351 -242 319 -230 c 0
 282 -215 263 -201 242 -162 c 0
 216 -113 210 -76 210 -54 c 0
 210 -18 227 -16 256 29 c 0
 276 59 304 60 318 72 c 0
 323 76 331 81 344 89 c 1
 344 93 340 129 333 144 c 1
 310 125 252 49 177 49 c 0
 143 49 115 67 95 103 c 0
 76 136 73 160 73 271 c 0
 73 410 74 504 123 504 c 0
362 -159 m 1
 366 -150 367 -138 367 -124 c 0
 367 -81 352 -22 352 -18 c 2
 350 5 l 1
 341 -7 l 1
 313 -46 302 -78 302 -96 c 0
 302 -115 349 -154 362 -159 c 1
EndSplineSet
EndChar

StartChar: z
Encoding: 90 122 101
Width: 605
Flags: W
HStem: -5 119<198 496> 234 68<445 506.16> 455 77<270.685 409.819>
VStem: 411 79<369.15 454.1>
LayerCount: 2
Back
SplineSet
88 394 m 0xec
 74 394 52 401 52 412 c 0xf0
 52 457 289 525 307 529 c 0
 316 531 326 532 336 532 c 0
 372 532 412 521 425 506 c 0
 434 496 438 478 438 457 c 0
 438 424 428 382 409 341 c 2
 387 295 l 1
 424 290 l 2
 438 289 469 284 469 276 c 0
 469 265 435 249 396 244 c 0
 360 239 346 231 314 197 c 0
 280 161 229 76 229 59 c 0xec
 229 56 230 55 234 55 c 0
 257 55 374 88 461 88 c 0
 495 88 514 82 514 70 c 0xf0
 514 55 493 48 413 32 c 0
 291 8 221 -5 184 -5 c 0
 161 -5 151 1 151 13 c 0
 151 40 215 157 239 186 c 0
 253 203 265 220 265 224 c 0
 265 227 246 231 224 231 c 0
 187 231 174 238 174 247 c 0
 174 263 209 275 257 275 c 0
 305 275 312 278 328 300 c 0
 360 348 385 415 385 456 c 0
 385 479 382 481 355 481 c 0
 290 480 141 434 116 408 c 0
 108 398 99 394 88 394 c 0xec
EndSplineSet
Fore
SplineSet
198 -5 m 0
 157 -5 151 12 151 24 c 0
 151 56 221 172 244 196 c 0
 248 200 256 208 263 216 c 1
 232 219 174 215 174 246 c 0
 174 286 260 288 282 288 c 0
 333 288 337 290 350 306 c 0
 389 354 411 413 411 443 c 0
 411 447 411 451 410 454 c 1
 406 455 401 455 395 455 c 0
 330 455 162 410 139 386 c 1
 129 373 113 368 98 368 c 0
 75 368 52 380 52 399 c 0
 52 405 54 411 59 417 c 0
 94 466 317 525 335 529 c 0
 346 531 359 532 371 532 c 0
 405 532 455 523 474 503 c 0
 488 488 490 464 490 448 c 0
 490 414 480 373 460 333 c 2
 445 304 l 1
 464 302 l 2
 504 298 522 288 522 276 c 0
 522 260 488 240 435 234 c 0
 399 230 386 225 351 194 c 0
 321 167 277 111 263 83 c 1
 304 90 421 114 496 114 c 0
 535 114 566 108 566 83 c 0
 566 56 531 45 455 32 c 0
 291 3 229 -5 198 -5 c 0
EndSplineSet
EndChar

StartChar: braceleft
Encoding: 91 123 102
Width: 315
Flags: W
HStem: -53 58<159.838 219.532> 579 58<165.188 197.297>
VStem: 103 55<5.6864 236.017 405.065 581.415> 110 56<295.428 550.162 551.702 582>
LayerCount: 2
Back
SplineSet
123 402 m 0xc0
 123 461 116 536 116 551 c 0
 116 565 118 576 125 595 c 2
 136 628 l 1
 158 624 l 2
 169 623 181 618 183 614 c 0
 190 601 187 592 177 592 c 0
 172 592 168 595 168 598 c 0
 168 602 167 604 165 604 c 0
 161 604 145 581 145 545 c 0
 145 517 153 474 153 402 c 0
 153 288 136 300 136 275 c 0xc0
 136 271 143 252 143 130 c 0xa0
 143 70 146 19 148 12 c 1
 154 0 172 -8 187 -8 c 0
 201 -8 201 -1 211 -1 c 0
 216 -1 219 -5 219 -11 c 0
 219 -42 198 -40 186 -40 c 0
 159 -40 134 -24 122 0 c 0x90
 119 5 116 63 114 128 c 2xa0
 112 247 l 1
 97 249 l 2
 86 251 81 256 81 262 c 0
 81 293 123 264 123 402 c 0xc0
EndSplineSet
Fore
SplineSet
186 5 m 0xd0
 197 5 198 12 211 12 c 0
 225 12 232 1 232 -11 c 0
 231 -40 221 -53 186 -53 c 0
 138 -53 112 -14 109 -1 c 0
 105 14 102 79 101 128 c 2
 99 236 l 1
 77 239 68 250 68 263 c 0
 68 304 110 265 110 402 c 0xd0
 110 460 103 534 103 551 c 0
 103 566 106 579 113 599 c 2
 127 643 l 1
 160 637 l 2
 176 635 200 629 200 601 c 0
 200 588 191 579 177 579 c 0
 173 579 169 580 165 582 c 1
 161 573 158 560 158 545 c 0xe0
 158 519 166 475 166 402 c 0
 166 294 150 292 149 276 c 1
 161 185 152 62 160 17 c 1
 164 10 177 5 186 5 c 0xd0
EndSplineSet
EndChar

StartChar: bar
Encoding: 92 124 103
Width: 364
Flags: W
VStem: 144 79<335.726 728.893> 161 62<-117.334 108.328>
LayerCount: 2
Back
SplineSet
181 727 m 0
 192 730 199 732 202 732 c 0
 204 732 205 732 205 731 c 1
 208 722 210 380 210 145 c 0
 210 28 209 -63 208 -71 c 0
 204 -96 194 -112 184 -112 c 0
 180 -112 177 -110 174 -107 c 0
 165 -95 160 563 157 580 c 1
 157 587 160 621 163 658 c 0
 167 709 171 725 181 727 c 0
EndSplineSet
Fore
SplineSet
202 745 m 2x80
 204 745 218 732 218 731 c 0
 221 700 223 316 223 145 c 2
 223 33 l 2
 223 -81 220 -107 196 -121 c 0
 192 -123 188 -125 184 -125 c 0
 173 -125 163 -117 161 -108 c 0x40
 152 -67 144 562 144 579 c 0
 144 582 148 708 164 730 c 0
 173 743 202 745 202 745 c 2x80
EndSplineSet
EndChar

StartChar: braceright
Encoding: 93 125 104
Width: 337
Flags: W
HStem: -63 66<109.584 148.906>
VStem: 117 60<376.672 612.865> 126 63<438.028 653.142>
LayerCount: 2
Back
SplineSet
116 664 m 0xa0
 116 670 122 673 129 673 c 0
 133 673 176 667 176 620 c 0xa0
 176 566 164 478 164 450 c 0
 164 414 171 379 183 368 c 0
 190 360 203 356 218 356 c 0
 237 356 247 351 247 342 c 0
 247 311 205 337 205 159 c 0
 205 111 207 82 207 62 c 0
 207 35 204 16 198 -4 c 0
 187 -39 177 -50 152 -50 c 0
 125 -50 121 -42 121 -30 c 0
 121 -18 126 -10 133 -10 c 0
 139 -10 145 -21 152 -21 c 0
 183 -21 164 248 184 298 c 2
 193 322 l 1
 175 331 l 2
 166 335 151 350 143 362 c 0
 134 377 130 392 130 430 c 0xc0
 130 484 139 574 139 610 c 0
 139 651 116 644 116 664 c 0xa0
EndSplineSet
Fore
SplineSet
260 342 m 0xc0
 260 302 218 337 218 159 c 0
 218 111 220 83 220 62 c 0
 220 41 218 19 210 -8 c 0
 199 -42 187 -63 152 -63 c 0
 126 -63 108 -56 108 -32 c 0
 108 -11 118 3 133 3 c 1
 145 0 147 -3 149 -5 c 1
 165 41 153 256 172 303 c 2
 177 316 l 1
 121 344 117 387 117 430 c 0xc0
 117 484 126 574 126 610 c 1
 124 647 103 638 103 662 c 0
 103 678 113 686 129 686 c 0
 143 686 189 673 189 620 c 0xa0
 189 566 177 494 177 441 c 0
 177 412 180 389 191 378 c 1
 192 378 l 1
 210 362 227 376 249 362 c 0
 257 357 260 350 260 342 c 0xc0
EndSplineSet
EndChar

StartChar: asciitilde
Encoding: 94 126 105
Width: 613
Flags: W
HStem: 615 152<403 493> 689 61<197.416 289.716>
VStem: 101 422<641 740>
LayerCount: 2
Back
SplineSet
114 644 m 0xa0
 114 662 184 737 236 737 c 0x60
 294 737 351 682 382 669 c 2
 404 659 l 1
 430 683 l 2
 473 717 471 754 493 754 c 0
 510 754 510 745 510 740 c 0
 510 712 450 628 403 628 c 0xa0
 357 628 282 702 234 702 c 0x60
 207 702 189 673 177 673 c 0
 167 673 145 628 125 628 c 0
 116 628 114 639 114 644 c 0xa0
EndSplineSet
Fore
SplineSet
101 641 m 0xa0
 101 675 181 750 236 750 c 0x60
 299 750 356 694 387 681 c 1
 402 674 l 1
 422 693 l 1
 467 730 460 767 493 767 c 1
 508 766 523 763 523 740 c 0
 523 705 458 615 403 615 c 0xa0
 352 615 276 689 234 689 c 1x60
 209 687 201 664 181 661 c 1
 172 654 151 615 125 615 c 1
 125 615 101 618 101 641 c 0xa0
EndSplineSet
EndChar

StartChar: uni0E01
Encoding: 250 3585 107
Width: 662
Flags: W
HStem: 482 74<322.991 463.736>
VStem: 180 70<40.4841 272.745> 510 90<23.056 424.586>
LayerCount: 2
Back
SplineSet
92 365 m 0
 92 390 266 543 383 543 c 0
 485 543 520 520 551 462 c 0
 574 420 576 399 583 228 c 0
 585 174 586 134 586 104 c 0
 586 54 583 34 576 27 c 0
 568 18 560 14 554 14 c 0
 548 14 544 18 544 27 c 0
 544 37.9141 537.384 35 532 35 c 0
 526 35 523 70 523 153 c 0
 523 211 524 290 524 340 c 0
 524 387.937 487.927 495 422 495 c 0
 340 495 201 427 201 393 c 0
 201 388 203 384 207 378 c 0
 225 351 237 211 237 110 c 0
 237 36 235 -2 204 -2 c 0
 189 -2 179 15 179 39 c 0
 179 70 193 78 193 126 c 0
 193 127 170.084 336 150 336 c 0
 140 336 121 299 97 299 c 0
 92 299 61 303 61 320 c 0
 61 337 92 345 92 365 c 0
EndSplineSet
Fore
SplineSet
600 106 m 0
 600 55 595 1 554 1 c 0
 542 1 533 10 531 23 c 1
 513 24 510 37 510 153 c 0
 510 211 511 290 511 340 c 0
 511 386 476 482 422 482 c 0
 343 482 215 417 215 392 c 1
 215 392 250 343 250 111 c 0
 250 50 250 -15 207 -15 c 0
 179 -15 166 9 166 39 c 0
 166 71 180 81 180 126 c 1
 180 126 163 277 147 318 c 1
 137 307 119 286 97 286 c 0
 66 286 48 303 48 320 c 0
 48 344 78 354 79 365 c 0
 82 406 266 556 383 556 c 0
 492 556 529 529 562 468 c 0
 586 423 589 399 596 229 c 0
 598 176 600 136 600 106 c 0
EndSplineSet
EndChar

StartChar: uni0E02
Encoding: 251 3586 108
Width: 655
Flags: W
HStem: -17 21G<441 482.5> 325 74<148 216.687> 470 78<184.217 233.968>
LayerCount: 2
Back
SplineSet
141 338 m 0
 102 338 67 357 67 399 c 0
 67 421 80 435 125 474 c 0
 172 514 210 535 243 535 c 0
 292 535 328 490 362 398 c 0
 374 366 388 323 392 304 c 0
 414 206 447 94 454 94 c 0
 464 94 492 152 497 183 c 0
 499 197 502 285 504 378 c 0
 507 534 504 558 548 558 c 0
 554 558 560 557 563 554 c 0
 568 549 571 505 571 448 c 0
 571 368 566 263 557 215 c 0
 550 178 490 -4 456 -4 c 0
 436 -4 407 19 394 47 c 0
 368 104 321 313 321 362 c 0
 321 372 330 382 312 388 c 0
 289 395 299 418 291 418 c 0
 276 418 231 338 141 338 c 0
247 447 m 0
 247 452 243 483 226 483 c 0
 179 483 134 413 134 395 c 0
 134 389 139 386 149 386 c 0
 165 386 247 398 247 447 c 0
EndSplineSet
Fore
SplineSet
234 447 m 0
 234 455 229 469 226 470 c 1
 193 470 155 421 148 399 c 1
 175 399 234 415 234 447 c 0
546 572 m 0
 582 572 584 548 584 448 c 0
 584 367 580 263 570 213 c 0
 568 204 509 -17 456 -17 c 0
 426 -17 394 15 382 42 c 0
 355 101 308 310 308 362 c 0
 308 367 309 372 310 375 c 1
 301 380 291 380 285 398 c 1
 263 377 217 325 141 325 c 0
 89 325 54 355 54 399 c 0
 54 428 72 446 117 484 c 0
 162 523 204 548 243 548 c 0
 381 548 412 227 457 116 c 1
 467 132 480 162 484 185 c 0
 495 254 482 513 506 552 c 0
 514 565 531 572 546 572 c 0
EndSplineSet
EndChar

StartChar: uni0E03
Encoding: 252 3587 109
Width: 670
Flags: W
HStem: 366 61<175.123 213.999> 373 192<308 407> 486 81<177.714 211.462> 508 20G<530.5 566.5>
VStem: 105 70<428.136 485.761> 511 81<227.75 329.373 332.708 521.528>
LayerCount: 2
Back
SplineSet
118 460 m 0
 118 484 163 554 202 554 c 0
 227 554 272 510 288 471 c 0
 294 455 302 442 305 442 c 1
 320 446 376 552 407 552 c 0
 453 552 464 460 481 244 c 0
 488 164 496 108 506 108 c 0
 509 108 509 118 509 144 c 2
 509 213 l 2
 509 261 513 260 518 260 c 0
 522 260 525 283 525 331 c 0
 525 368 524 368 524 424 c 0
 524 473 522 515 552 515 c 0
 568 515 579 494 579 465 c 2
 579 465 554 100 549 76 c 0
 543 50 507 3 492 3 c 0
 470 3 462 26 431 174 c 0
 420 224 418 476 404 476 c 0
 400 476 384 458 366 433 c 0
 340 397 327 386 308 386 c 0
 275 386 271 403 261 403 c 0
 247 403 243 379 215 379 c 0
 207 379 199 380 187 383 c 0
 155 389 145 397 130 425 c 0
 122 442 118 451 118 460 c 0
227 451 m 0
 227 481 208 499 195 499 c 0
 168 499 162 456 162 445 c 0
 162 425 178 414 208 414 c 0
 221 414 227 433 227 451 c 0
EndSplineSet
Fore
SplineSet
208 427 m 1xac
 212 429 214 438 214 447 c 0
 214 464 208 486 195 486 c 0
 184 486 175 464 175 448 c 0
 175 431 186 428 208 427 c 1xac
550 528 m 0x1c
 583 528 592 490 592 465 c 1
 583 336 566 92 562 73 c 1
 551 34 512 -10 492 -10 c 0
 460 -10 450 16 418 171 c 0
 408 218 405 396 397 453 c 1
 374 426 350 373 308 373 c 1x4c
 275 375 269 385 261 390 c 1
 255 386 243 366 215 366 c 0
 206 366 197 367 184 370 c 0
 144 378 132 392 118 419 c 0
 111 432 105 447 105 460 c 0
 105 491 155 567 202 567 c 0xac
 232 567 281 522 300 476 c 0
 302 470 305 465 307 461 c 1
 328 487 372 565 407 565 c 0x4c
 480 565 479 397 496 222 c 1
 496 244 496 265 509 271 c 1
 510 279 512 296 512 331 c 0
 512 368 511 368 511 424 c 0
 511 480 511 528 550 528 c 0x1c
EndSplineSet
EndChar

StartChar: uni0E04
Encoding: 253 3588 110
Width: 612
Flags: W
HStem: 465 74<299.557 375.254>
VStem: 91 123<203.963 332.402> 117 77<-21.8036 133.348> 286 84<277.206 328.705>
LayerCount: 2
Back
SplineSet
326 346 m 0xe8
 333 346 357 330 357 300 c 0
 357 257 305 214 231 206 c 0
 214 204 199 200 195 196 c 0
 192 193 189 151 188 103 c 0
 186 -16 186 -16 165 -16 c 0
 140 -16 135 -6 130 55 c 0
 125 129 112 136 125 142 c 0
 128 144 130 149 130 155 c 0xd8
 130 167 124 183 116 183 c 0
 108 183 104 209 104 239 c 0
 104 303 125 406 263 499 c 0
 290 517 317 526 344 526 c 0
 390 526 431 500 455 453 c 0
 501 360 487 115 502 59 c 0
 503 53 504 48 504 44 c 0
 504 27 495 16 480 16 c 0
 474 16 453 20 448 30 c 1
 439 41 434 325 434 328 c 0
 431 388 383 478 349 478 c 0
 330 478 281 451 253 426 c 2
 219 398 l 1
 253 385 l 2
 272 377 292 371 299 371 c 0
 305 371 311 364 311 358 c 0
 311 352 318 346 326 346 c 0xe8
299 302 m 0
 299 327 262 349 247 349 c 0
 229 349 201 336 201 311 c 0xe8
 201 307 201 301 202 294 c 0
 204 259 207 256 231 256 c 0
 271 256 299 279 299 302 c 0
EndSplineSet
Fore
SplineSet
286 302 m 0xd0
 286 318 257 336 247 336 c 0
 234 336 214 326 214 311 c 0
 214 295 216 273 218 270 c 1
 220 269 224 268 229 268 c 0
 250 268 286 281 286 302 c 0xd0
326 359 m 0
 348 356 370 332 370 300 c 0
 370 246 307 201 232 193 c 0
 219 192 211 189 206 187 c 1
 199 153 204 12 194 -13 c 0
 188 -27 178 -29 165 -29 c 0
 127 -29 121 -2 117 54 c 0
 113 112 106 120 106 134 c 0
 106 149 117 150 117 155 c 0xb0
 116 188 91 149 91 239 c 0
 91 347 150 439 256 510 c 0
 285 529 314 539 344 539 c 0
 395 539 442 510 467 459 c 0
 515 362 501 117 515 62 c 0
 516 58 517 50 517 44 c 0
 516 9 494 3 480 3 c 0
 474 3 442 7 435 28 c 0
 426 55 421 305 421 328 c 1
 417 389 371 465 349 465 c 0
 339 465 295 446 261 416 c 2
 245 402 l 1
 258 397 l 1
 300 379 322 388 324 360 c 1
 324 360 325 359 326 359 c 0
EndSplineSet
EndChar

StartChar: uni0E05
Encoding: 254 3589 111
Width: 670
Flags: W
HStem: 201 79<195.007 293.002> 336 54<202.921 272.054> 468 78<224.705 312.988> 507 20G<490 543>
VStem: 62 126<116.89 203> 78 115<19.9703 202.254> 294 59<281.903 313.932> 357 90<235.926 362.032> 529 82<1.04549 431.78>
LayerCount: 2
Back
SplineSet
258 533 m 0
 390 533 395 414 405 414 c 0
 416 414 464 500 488 508 c 0
 500 512 510 514 519 514 c 0
 553 514 573 487 587 427 c 0
 594 394 598 289 598 192 c 0
 598 103 595 21 588 15 c 0
 583 10 569 9 558 12 c 0
 538 18 536 27 536 196 c 0
 536 402 529 414 525 445 c 0
 525 451 523 453 520 453 c 0
 499 453 429 339 429 296 c 0
 429 260 419 242 398 242 c 0
 375 242 368 258 365 319 c 0
 360 381 358 358 335 422 c 0
 320 462 302 481 275 481 c 0
 197 481 166 374 166 374 c 1
 170 374 l 2
 189 374 209 377 235 377 c 0
 308 377 345 346 345 283 c 0
 345 243 342 239 306 225 c 0
 287 218 258 214 233 214 c 0
 221 214 l 2
 175 217 l 1
 178 100 l 2
 179 68 180 45 180 29 c 0
 180 -13 176 -21 153 -21 c 0
 96 -21 117 79 89 123 c 0
 83 131 75 183 75 241 c 0
 75 284 82 310 103 366 c 0
 138 463 156 490 201 515 c 0
 222 528 238 533 258 533 c 0
312 291 m 0
 312 315 251 349 237 349 c 0
 216 349 187 317 187 293 c 0
 187 282 189 267 255 267 c 0
 292 267 312 277 312 291 c 0
EndSplineSet
Fore
SplineSet
250 280 m 0xc380
 273 280 294 285 294 291 c 0
 294 302 247 336 231 336 c 0
 221 336 196 315 195 293 c 0
 195 285 205 280 250 280 c 0xc380
447 296 m 0
 447 277 445 229 403 229 c 0
 366 229 362 258 357 318 c 1
 353 379 353 350 328 418 c 0
 315 455 295 468 275 468 c 0
 226 468 197 416 185 388 c 1
 198 389 212 390 230 390 c 0
 312 390 353 352 353 283 c 0
 353 266 352 239 338 230 c 1
 323 217 284 201 228 201 c 0
 224 201 220 201 216 201 c 2
 188 203 l 1xeb80
 191 100 l 2
 192 68 193 46 193 29 c 2
 193 18 l 2
 193 -8 191 -34 153 -34 c 0
 83 -34 103 76 78 116 c 1xe780
 65 134 62 216 62 241 c 0
 62 286 70 314 91 370 c 0
 128 470 146 499 194 526 c 0
 217 539 236 546 258 546 c 0xeb80
 370 544 400 472 414 435 c 1
 448 481 461 527 519 527 c 0xdb80
 567 527 588 482 600 430 c 0
 610 384 611 240 611 192 c 0
 611 4 606 -3 571 -3 c 0
 560 -3 536 1 529 26 c 0
 523 49 523 109 523 196 c 0
 523 380 517 407 513 433 c 1
 490 408 447 328 447 296 c 0
EndSplineSet
EndChar

StartChar: uni0E06
Encoding: 255 3590 112
Width: 829
Flags: W
HStem: 485 76<161.405 195.757> 548 20G<676 720.5>
VStem: 77 83<409.297 484.486> 334 77<110.228 195.137> 410 89<345.424 449.754> 437 93<106 194.848> 654 98<272 552.203>
LayerCount: 2
Back
SplineSet
90 444 m 0
 90 496 172 548 187 548 c 0
 196 548 225 530 249 509 c 2
 295 469 l 1
 334 515 l 2
 359 545 378 559 396 559 c 0
 408 559 419 553 430 541 c 0
 449 520 486 403 486 361 c 0
 486 317 565 348 639 268 c 0
 650 257 661 248 665 248 c 0
 666 248 667 264 667 290 c 0
 667 354 662 439 662 481 c 0
 662 525 665 555 701 555 c 0
 726 555 731 544 739 328 c 0
 744 202 749 72 749 71 c 0
 749 45 737 39 729 39 c 0
 715 39 699 59 672 111 c 0
 627 198 559 270 523 270 c 0
 507 270 501 267 501 254 c 0
 501 243 517 146 517 99 c 0
 517 23 467 14 451 14 c 0
 416 14 422 53 403 42 c 0
 401 41 400 41 398 41 c 0
 377 41 347 106 347 190 c 0
 347 223 355 235 386 270 c 0
 412 300 423 318 423 336 c 0
 423 345 417 371 409 423 c 0
 404 454 398 469 388 469 c 0
 382 469 375 462 365 449 c 0
 347 425 312 407 289 407 c 0
 270 407 273 418 258 418 c 0
 243 418 227 404 227 386 c 0
 227 373 176 353 152 353 c 0
 135 353 133 371 133 376 c 0
 133 385 126 393 117 393 c 0
 102 393 90 419 90 444 c 0
200 443 m 0
 200 460 209 466 209 472 c 0
 209 484 188 498 172 498 c 0
 157 498 147 483 147 438 c 0
 147 404 154 396 166 396 c 0
 182 396 201 414 201 432 c 0
 201 436 200 436 200 443 c 0
398 150 m 0
 398 115 440 86 444 86 c 0
 450 86 450 99 450 132 c 0
 450 203 436 217 433 217 c 0
 427 217 398 179 398 150 c 0
EndSplineSet
Fore
SplineSet
174 485 m 0xa2
 165 485 160 473 160 436 c 0
 160 421 162 409 166 409 c 1
 166 409 186 413 188 432 c 0
 188 433 187 436 187 443 c 0
 187 459 194 468 196 472 c 1
 194 475 183 485 174 485 c 0xa2
430 196 m 1
 422 185 412 167 411 150 c 0
 411 134 425 117 437 106 c 1
 437 122 l 2x36
 437 146 435 178 430 196 c 1
291 394 m 0
 268 394 265 405 258 405 c 0
 239 405 242 382 235 373 c 0
 219 353 169 340 152 340 c 0
 133 340 120 356 120 376 c 0
 120 384 107 375 92 394 c 0
 86 402 77 419 77 444 c 1
 80 508 166 561 187 561 c 0
 201 561 232 542 258 519 c 2
 294 487 l 1
 324 523 l 2
 347 551 371 572 396 572 c 0
 405 572 421 570 440 550 c 0
 464 524 499 401 499 361 c 0xaa
 499 334 567 359 654 272 c 1
 654 290 l 2
 654 353 649 438 649 481 c 0
 649 523 651 568 701 568 c 0
 740 568 744 542 752 328 c 0
 759 146 762 91 762 70 c 0
 762 36 743 26 730 26 c 0
 716 26 700 29 660 105 c 0
 629 164 562 257 520 257 c 0
 514 257 514 257 514 254 c 0
 514 247 530 147 530 99 c 0
 530 13 471 1 451 1 c 1
 418 4 417 17 407 30 c 1
 404 29 400 28 397 28 c 0
 350 28 334 148 334 190 c 0x76
 334 225 342 240 376 279 c 0
 404 311 410 325 410 336 c 1x6a
 410 336 396 438 387 455 c 1
 384 453 344 394 291 394 c 0
EndSplineSet
EndChar

StartChar: uni0E07
Encoding: 256 3591 113
Width: 420
Flags: W
HStem: 475 85<172.455 240.775>
VStem: 283 85<119.328 404.928>
LayerCount: 2
Back
SplineSet
59 393 m 0
 59 423 141 547 229 547 c 0
 246 547 264 543 282 534 c 0
 332 509 355 405 355 209 c 0
 355 16 350 5 326 5 c 0
 295 5 284 29 219 69 c 0
 149 112 125 134 125 152 c 0
 125 159 129 175 147 175 c 0
 188 175 268 100 292 100 c 0
 293 100 294 101 294 102 c 0
 295 116 296 142 296 173 c 0
 296 260 291 389 287 405 c 2
 279 433 l 1
 254 403 l 2
 232 378 196 345 136 345 c 0
 96 345 59 368 59 393 c 0
256 464 m 0
 256 469 245 488 221 488 c 0
 167 488 126 424 126 400 c 0
 126 394 128 392 132 392 c 0
 148 392 208 422 208 432 c 0
 208 445 256 452 256 464 c 0
EndSplineSet
Fore
SplineSet
46 393 m 0
 46 432 135 560 229 560 c 0
 248 560 268 556 288 546 c 0
 350 515 368 390 368 210 c 0
 368 20 364 -8 326 -8 c 0
 290 -8 274 20 212 58 c 0
 150 96 112 123 112 152 c 0
 112 164 119 188 147 188 c 0
 192 188 251 133 282 117 c 1
 283 131 283 151 283 173 c 0
 283 243 279 385 273 406 c 1
 264 395 l 2
 242 368 201 332 136 332 c 0
 85 332 46 363 46 393 c 0
195 436 m 1
 199 453 229 460 241 466 c 1
 238 469 232 475 221 475 c 0
 180 475 147 429 140 407 c 1
 157 412 188 429 195 436 c 1
EndSplineSet
EndChar

StartChar: uni0E08
Encoding: 257 3592 114
Width: 451
Flags: W
HStem: 167 74<143.661 239.167> 301 68<167.025 247.63> 470 96<233.773 326.5>
LayerCount: 2
Back
SplineSet
111 397 m 0xe6
 97 397 91 405 91 410 c 0
 91 440 175 487 229 525 c 0
 256 544 275 553 292 553 c 0
 347 553 361 495 361 333 c 0xf0
 361 52 340 2 309 2 c 0xe2
 297 2 294 18 289 113 c 0
 286 162 279 206 273 211 c 0
 266 218 263 217 263 210 c 0
 263 204 256 198 248 198 c 0
 222 198 218 180 182 180 c 0
 134 180 69 211 69 242 c 0xf0
 69 262 84 288 95 288 c 0
 99 288 108 280 108 299 c 0
 108 328 167 356 212 356 c 0
 251 356 288 314 307 314 c 0
 308 314 309 315 309 319 c 0
 309 345 293 461 287 470 c 0
 282 479 274 483 265 483 c 0
 221 483 163 397 111 397 c 0xe6
261 281 m 0
 261 292 218 314 200 314 c 0
 168 314 129 253 129 244 c 0xe8
 129 231 168 228 180 228 c 0
 247 228 261 272 261 281 c 0
EndSplineSet
Fore
SplineSet
248 279 m 1
 241 287 214 301 200 301 c 0
 180 301 151 261 143 247 c 1
 150 244 163 241 177 241 c 0
 206 241 241 251 248 279 c 1
184 167 m 0
 116 167 56 208 56 241 c 0
 56 265 72 301 95 301 c 1
 98 340 165 369 212 369 c 0
 250 369 278 343 295 332 c 1
 292 371 280 456 276 464 c 0
 274 467 271 470 265 470 c 0
 228 470 169 384 111 384 c 0
 90 384 78 395 78 410 c 0
 78 447 144 481 222 536 c 0
 234 545 264 566 292 566 c 0
 361 566 374 490 374 335 c 0
 374 54 354 -11 311 -11 c 0
 262 -11 289 99 267 192 c 1
 260 186 252 185 248 185 c 0
 225 185 224 167 184 167 c 0
EndSplineSet
EndChar

StartChar: uni0E09
Encoding: 258 3593 115
Width: 636
Flags: W
HStem: 220 74<107 168.835> 337 72<127.199 178.263> 482 86<348.555 414.859>
VStem: 431 87<275.158 480.401> 510 81<149.844 189.023>
LayerCount: 2
Back
SplineSet
398 555 m 0
 408 555 419 550 439 541 c 0
 492 517 505 484 505 372 c 0
 505 278 506 274 529 265 c 0
 562 252 578 227 578 186 c 0
 578 153 566 51 502 51 c 0
 490 51 485 55 485 63 c 0
 485 71 478 80 469 83 c 0
 452 90 458 113 458 120 c 0
 458 130 455 135 450 135 c 0
 415 135 315 -8 261 -8 c 0
 254 -8 248 -6 243 -1 c 0
 206 36 217 284 211 284 c 1
 161 260 l 2
 138 248 115 243 96 243 c 0
 57 243 31 264 31 293 c 0
 31 339 107 406 161 406 c 0
 185 406 208 395 229 373 c 0
 249 352 256 333 261 274 c 0
 275 116 281 74 287 74 c 0
 290 74 328 111 369 155 c 2
 445 235 l 1
 444 340 l 2
 443 402 438 458 430 479 c 0
 423 497 416 507 416 501 c 1
 414 490 400 495 397 495 c 0
 369 495 276 430 258 430 c 0
 251 430 245 426 245 420 c 0
 245 413 238 410 230 410 c 0
 222 410 201 414 201 432 c 0
 201 441 207 452 218 462 c 0
 241 482 316 529 327 529 c 0
 344 529 378 555 398 555 c 0
192 322 m 0
 192 344 168 360 158 360 c 0
 139 360 91 312 91 300 c 0
 91 296 95 291 107 291 c 0
 132 291 148 309 170 309 c 0
 177 309 177 306 182 306 c 0
 188 306 192 314 192 322 c 0
503 105 m 0
 515 105 523 183 523 190 c 0
 523 203 519 206 511 206 c 0
 499 206 492 186 492 157 c 0
 492 135 496 105 503 105 c 0
EndSplineSet
Fore
SplineSet
505 149 m 1xe8
 508 167 510 185 510 190 c 1
 508 185 505 176 505 157 c 2
 505 149 l 1xe8
260 417 m 0
 255 417 254 397 230 397 c 0
 210 397 188 411 188 432 c 0
 188 449 199 464 209 472 c 0
 241 500 308 539 323 542 c 1
 345 542 372 568 398 568 c 0
 413 568 428 560 444 553 c 0
 502 527 518 490 518 372 c 0xf0
 518 274 520 284 534 277 c 1
 582 258 591 218 591 186 c 0xe8
 591 139 573 38 502 38 c 1
 496 39 472 39 472 63 c 0
 472 72 447 69 444 100 c 1
 444 116 445 116 445 120 c 1
 406 101 318 -21 261 -21 c 0
 245 -21 236 -12 234 -10 c 0
 196 33 202 194 200 254 c 1
 167 238 l 2
 142 225 117 220 96 220 c 0
 51 220 18 245 18 283 c 0
 18 336 99 409 161 409 c 0
 189 409 215 396 238 372 c 0
 288 320 268 229 293 96 c 1
 309 111 337 140 360 164 c 2
 432 240 l 1
 431 340 l 1xf0
 429 425 425 456 415 482 c 1
 412 481 409 481 406 481 c 0
 398 481 398 482 397 482 c 0
 371 480 284 419 260 417 c 0
179 312 m 2
 179 325 163 337 158 337 c 0
 149 337 118 309 107 294 c 1
 129 294 145 312 170 312 c 0
 174 312 176 311 179 310 c 1
 179 312 l 2
EndSplineSet
EndChar

StartChar: uni0E0A
Encoding: 259 3594 116
Width: 575
Flags: W
HStem: 322 78<73.026 170.64> 477 81<156.918 212.655>
VStem: 18 89<400.002 437.032> 232 80<123.815 359.754> 351 89<187.94 445.276>
LayerCount: 2
Back
SplineSet
212 545 m 0xde
 246 545 273 500 289 500 c 0
 318 500 388 599 480 652 c 0
 514 672 530 680 538 680 c 0
 546 680 551 671 551 667 c 0
 551 648 507 591 484 582 c 0
 473 578 446 554 424 530 c 2
 384 485 l 1
 407 457 l 2
 422 439 427 428 427 391 c 0
 427 202 370 18 314 3 c 0
 305 1 297 -0 290 -0 c 0
 250 -0 245 45 245 232 c 0
 245 325 240 377 233 377 c 0xbe
 210 377 194 335 110 335 c 0
 77 335 46 342 37 356 c 0
 33 363 31 370 31 379 c 0
 31 420 67 449 114 496 c 0
 138 522 186 545 212 545 c 0xde
229 439 m 0
 229 449 219 490 203 490 c 0
 194 490 180 483 153 468 c 0
 104 442 94 432 94 406 c 0
 94 394 110 387 128 387 c 0xde
 173 387 168 419 202 419 c 0
 220 419 229 425 229 439 c 0
317 93 m 0
 328 93 364 185 364 346 c 0
 364 386 361 418 353 432 c 0
 345 447 336 460 331 460 c 0
 299 460 299 419 299 338 c 0
 299 244 302 93 317 93 c 0
EndSplineSet
Fore
SplineSet
107 406 m 1
 108 403 116 400 129 400 c 0
 167 400 162 432 202 432 c 0
 215 432 216 434 216 439 c 0
 216 450 207 473 202 477 c 1
 202 477 196 477 159 457 c 0
 114 433 107 426 107 406 c 1
292 -13 m 0
 233 -13 232 52 232 216 c 2
 232 245 l 2
 232 272 231 335 226 361 c 1
 205 349 180 322 110 322 c 0
 39 322 18 345 18 379 c 0
 18 428 63 463 105 505 c 0
 133 533 182 558 212 558 c 1
 255 555 277 516 290 513 c 1
 315 519 384 611 473 663 c 0
 498 677 521 693 539 693 c 0
 554 693 564 680 564 667 c 0
 564 636 512 579 489 570 c 0
 483 568 458 548 434 521 c 2
 401 485 l 1
 417 465 l 2
 435 443 440 428 440 391 c 0
 440 226 391 9 317 -10 c 0
 312 -11 302 -13 292 -13 c 0
320 122 m 1
 339 169 351 273 351 347 c 0
 351 398 347 426 328 447 c 1
 315 445 312 424 312 338 c 0
 312 244 314 160 320 122 c 1
EndSplineSet
EndChar

StartChar: uni0E0B
Encoding: 260 3595 117
Width: 666
Flags: W
HStem: 368 204<126 215>
VStem: 9 77<419.961 483.886> 476 77<167.583 348.016>
LayerCount: 2
Back
SplineSet
394 438 m 0
 400 438 569 604 621 604 c 0
 638 604 642 590 642 584 c 0
 642 543 484 455 484 426 c 0
 484 415 512 394 512 382 c 0
 512 365 540 367 540 317 c 0
 540 274 529 197 522 169 c 2
 501 84 l 2
 487 27 451 -17 420 -17 c 0
 375 -17 350 98 332 380 c 2
 326 484 l 1
 278 429 l 2
 251 397 231 381 216 381 c 0
 205 381 197 391 191 410 c 2
 184 433 l 1
 167 407 l 2
 138 365 116 346 93 346 c 0
 36 346 22 426 22 460 c 0
 22 481 30 491 54 515 c 0
 96 559 119 559 128 559 c 0
 157 559 195 542 195 526 c 0
 195 519 203 503 213 490 c 2
 231 468 l 1
 270 516 l 2
 297 548 318 564 336 564 c 0
 385 564 384 438 394 438 c 0
84 399 m 0
 104 399 121 490 135 490 c 0
 141 490 144 494 144 500 c 0
 144 507 138 510 129 510 c 0
 113 510 90 500 81 486 c 0
 76 480 73 457 73 435 c 0
 73 411 77 399 84 399 c 0
472 344 m 0
 455 377 445 386 425 386 c 0
 402 386 400 382 400 337 c 0
 400 262 418 77 426 64 c 0
 428 61 430 59 432 59 c 0
 443 59 456 99 468 169 c 2
 488 274 l 2
 489 277 489 280 489 283 c 0
 489 300 483 322 472 344 c 0
EndSplineSet
Fore
SplineSet
434 83 m 1
 447 116 476 282 476 284 c 0
 476 296 470 319 460 338 c 0
 442 372 437 373 423 373 c 0
 414 373 413 373 413 354 c 2
 413 343 l 2
 413 278 426 129 434 83 c 1
180 403 m 1
 158 369 128 333 93 333 c 0
 26 333 9 420 9 460 c 0
 9 486 20 498 45 524 c 0
 85 565 109 572 126 572 c 0
 201 572 208 525 208 525 c 1
 210 519 216 508 223 498 c 1
 231 489 l 1
 260 524 l 2
 276 543 306 577 336 577 c 0
 388 577 393 497 400 460 c 1
 443 498 570 617 621 617 c 0
 647 617 655 596 655 585 c 0
 655 533 508 455 497 426 c 1
 502 415 525 400 525 382 c 1
 527 376 553 365 553 317 c 0
 553 272 542 195 535 166 c 2
 514 81 l 2
 498 16 456 -30 420 -30 c 0
 359 -30 335 100 319 379 c 2
 315 451 l 1
 288 421 l 2
 277 408 244 368 215 368 c 0
 201 368 189 377 180 403 c 1
121 496 m 1
 103 493 92 479 91 477 c 0
 88 470 86 451 86 435 c 0
 86 429 86 424 87 419 c 1
 97 437 108 480 121 496 c 1
EndSplineSet
EndChar

StartChar: uni0E0C
Encoding: 261 3596 118
Width: 817
Flags: W
HStem: 1 131<226.496 314.765> 477 83<272.93 440.211> 507 20G<717 740.5>
VStem: 410 80<58.9374 110.535>
LayerCount: 2
Back
SplineSet
119 1 m 0xf0
 119 20 163 52 163 67 c 1
 163 67 158 72 142 158 c 0
 108 335 101 357 75 374 c 0
 62 383 51 395 51 402 c 0
 51 417 202 512 260 532 c 0
 271 536 309 547 383 547 c 0
 432 547 448 541 482 517 c 0
 529 482 546 440 564 308 c 0
 579 201 584 226 647 182 c 2
 676 162 l 1xf0
 677 261 l 2
 677 316 681 395 685 436 c 0
 692 507 695 514 727 514 c 0
 749 514 757 504 757 473 c 0xe8
 757 441 740 361 736 174 c 0
 732 14 727 -18 703 -18 c 0
 694 -18 686 -9 686 8 c 0
 686 48 645 120 612 137 c 2
 584 151 l 1
 572 80 l 2
 560 9 534 -29 500 -29 c 0
 487 -29 473 -23 457 -11 c 0
 427 12 423 65 423 98 c 0
 423 113 425 120 431 120 c 0
 438 120 443 126 443 133 c 0
 443 140 460 162 481 181 c 2
 519 217 l 1
 507 289 l 2
 480 443 457 490 382 490 c 0
 301 490 187 440 155 410 c 0
 154 409 153 405 153 399 c 0
 153 369 168 287 195 171 c 0
 207 121 213 104 223 104 c 0
 225 104 241 112 285 118 c 0
 293 119 299 120 305 120 c 0
 320 120 330 112 330 88 c 0
 330 74 325 59 315 44 c 0
 297 19 286 14 249 14 c 0
 187 14 157 -22 139 -22 c 0
 128 -22 119 -5 119 1 c 0xf0
491 39 m 0
 506 39 516 91 516 126 c 0
 516 137 515 140 511 140 c 0
 499 140 477 94 477 71 c 0
 477 59 482 39 491 39 c 0
EndSplineSet
Fore
SplineSet
500 -42 m 0xb0
 464 -42 410 -11 410 92 c 0
 410 115 412 132 430 133 c 1
 431 148 450 171 472 191 c 2
 505 222 l 1
 494 287 l 2
 468 440 446 477 382 477 c 0
 308 477 200 432 166 403 c 1
 166 354 211 140 225 118 c 1
 257 127 283 132 302 132 c 0
 329 132 343 120 343 88 c 0
 343 71 337 53 326 37 c 0
 307 10 294 1 249 1 c 0
 185 1 165 -35 139 -35 c 0
 118 -35 106 -10 106 1 c 0
 106 30 143 52 149 66 c 1
 142 86 131 147 129 156 c 0
 97 325 90 349 68 363 c 0
 49 375 38 389 38 401 c 0
 38 405 40 410 43 414 c 0
 65 442 205 526 256 544 c 0
 268 548 307 560 383 560 c 0xd0
 438 560 456 553 490 528 c 0
 541 490 558 444 577 310 c 0
 591 209 591 235 654 193 c 2
 663 187 l 1
 664 261 l 2
 665 341 672 475 683 503 c 0
 692 525 707 527 727 527 c 0
 754 526 770 516 770 473 c 0
 770 438 753 361 749 174 c 0
 746 44 746 -31 705 -31 c 0
 685 -31 673 -16 673 8 c 0
 673 44 633 109 606 125 c 2
 594 132 l 1
 585 78 l 2
 566 -35 517 -42 500 -42 c 0xb0
491 57 m 1
 496 69 501 92 503 111 c 1
 497 99 490 82 490 68 c 0
 490 64 490 60 491 57 c 1
EndSplineSet
EndChar

StartChar: uni0E0D
Encoding: 262 3597 119
Width: 821
Flags: W
HStem: -257 98<613.215 667.929> -22 157<212.255 309.091> 442 84<283.074 388.396>
VStem: 145 224<37.2119 132.225> 520 92<-158.843 -98.2107> 622 127<340.67 488.285> 658 91<132.482 389.193>
LayerCount: 2
Back
SplineSet
533 -130 m 0x8f
 533 -84 565 -46 586 -46 c 0
 599 -46 632 -72 632 -79 c 0
 632 -91 599 -95 599 -132 c 0
 599 -163 622 -172 631 -172 c 0
 670 -172 725 -85 753 -85 c 0
 761 -85 766 -95 766 -102 c 0
 766 -120 738 -161 729 -187 c 0
 721 -210 665 -244 636 -244 c 0
 607 -244 533 -183 533 -130 c 0x8f
635 503 m 0xaf80
 635 548 669 554 677 554 c 0
 731 554 708 446 731 247 c 0xaf80
 734 216 736 191 736 171 c 0
 736 104 714 82 639 34 c 0
 588 1 552 -20 527 -20 c 0xaf40
 475 -20 463 66 442 313 c 0
 435 383 430 399 401 428 c 0
 383 446 369 455 350 455 c 0
 326 455 293 441 232 410 c 0
 185 386 165 370 165 358 c 0
 165 355 166 357 184 234 c 0
 196 150 204 122 229 122 c 0xcf40
 251 122 273 141 311 141 c 0x9f40
 356 141 356 114 356 96 c 0
 356 57 302 -9 269 -9 c 0
 238 -9 199 -31 174 -31 c 0xcf40
 146 -31 116 -10 116 4 c 0
 116 28 158 16 158 43 c 0
 158 46 119 316 84 344 c 0
 74 352 70 362 70 372 c 0
 70 387 82 404 106 418 c 0
 224 488 280 513 357 513 c 0
 474 513 500 463 518 215 c 0
 528 85 532 51 536 51 c 0
 542 51 573 69 606 93 c 0
 662 133 671 142 671 174 c 0xaf40
 671 288 635 462 635 503 c 0xaf80
249 44 m 0
 261 44 298 55 298 74 c 0
 298 77 296 79 293 79 c 0x9f
 281 79 241 57 241 48 c 0
 241 45 244 44 249 44 c 0
EndSplineSet
Fore
SplineSet
174 -44 m 1xfa
 129 -42 103 -13 103 3 c 0
 103 38 145 31 145 43 c 0
 145 46 105 311 76 334 c 0
 64 344 57 357 57 372 c 0
 57 394 73 414 99 429 c 0
 217 499 277 526 357 526 c 0
 489 526 513 458 531 216 c 0
 535 162 540 95 544 68 c 1
 555 74 574 87 598 104 c 0
 650 141 658 147 658 174 c 0xfa
 658 285 622 462 622 503 c 0xfc
 622 545 651 567 677 567 c 0
 746 567 721 450 744 248 c 0
 748 217 749 192 749 171 c 0
 749 100 726 74 646 23 c 0
 605 -4 559 -33 527 -33 c 0
 456 -33 448 94 429 312 c 0
 423 378 419 392 392 419 c 0
 379 432 367 442 350 442 c 0
 313 442 183 374 178 358 c 1
 205 198 206 135 229 135 c 0
 247 135 270 154 311 154 c 0
 369 154 369 114 369 97 c 0
 369 48 309 -22 269 -22 c 0
 243 -22 201 -44 174 -44 c 1xfa
753 -72 m 0
 770 -72 779 -90 779 -102 c 0
 779 -125 750 -164 741 -191 c 0
 730 -222 667 -257 636 -257 c 0
 600 -257 520 -191 520 -130 c 1
 522 -62 566 -33 584 -33 c 0
 606 -33 645 -63 645 -78 c 0
 645 -102 612 -101 612 -132 c 0
 612 -156 627 -159 631 -159 c 0
 663 -159 716 -72 753 -72 c 0
EndSplineSet
Substitution2: "Thai Descender Removal Single Substitution" uni0E0D.descless
EndChar

StartChar: uni0E0E
Encoding: 263 3598 120
Width: 598
Flags: W
HStem: -222 81<209.472 313.868> -84 76<221.801 327.996> -28 64<106.5 185.471> 125 63<135.986 196.773> 531 20G<391.5 466.5>
VStem: 50 76<36.1397 110.072> 69 57<65.8322 110.22> 123 86<-140.15 -96.6253> 253 79<184.78 295.014> 454 78<18 346.768>
AnchorPoint: "BelowBase" 416 -251 basechar 0
LayerCount: 2
Back
SplineSet
63 65 m 0xffb0
 63 96 82 78 82 115 c 0
 82 154 120 146 156 170 c 0
 162 173 175 175 189 175 c 0
 195 175 202 175 208 174 c 2
 243 168 l 1
 257 231 l 2
 263 256 266 278 266 291 c 0
 266 296 265 300 264 301 c 0
 260 305 231 309 201 309 c 0
 158 309 135 315 135 323 c 0xffb0
 135 333 156 334 196 388 c 0
 228 431 366 538 423 538 c 0
 438 538 450 532 460 520 c 0
 497 480 509 406 519 185 c 0xff70
 524 70 537 -159 537 -197 c 0
 537 -230 535 -246 509 -246 c 0
 459 -246 442 -137 405 -137 c 0
 382 -137 343 -209 254 -209 c 0
 222 -209 136 -194 136 -137 c 0xff68
 136 -114 151 -86 180 -56 c 0
 206 -28 215 -21 238 -21 c 0
 349 -21 352 -71 383 -71 c 0
 389 -71 393 -67 393 -58 c 0
 393 -49 410 -31 430 -16 c 2
 467 12 l 1
 461 142 l 2
 456 302 431 486 416 486 c 2
 415 486 l 1
 317 422 l 2
 260 384 238 369 238 363 c 0
 238 349 319 377 319 275 c 0
 319 192 285 147 275 100 c 0
 262 22 152 -15 120 -15 c 0
 109 -15 102 -12 102 -4 c 0
 102 1 95 6 87 6 c 0
 74 6 63 42 63 65 c 0xffb0
214 82 m 0
 214 90 206 138 187 138 c 0
 179 138 167 133 147 124 c 0
 117 111 113 104 113 68 c 0
 113 37 118 23 135 23 c 0
 145 23 214 40 214 82 c 0
456 -80 m 0
 456 -110 469 -127 472 -127 c 0
 475 -127 477 -116 477 -90 c 0xff28
 477 -63 475 -41 474 -41 c 0
 463 -41 456 -60 456 -80 c 0
349 -106 m 0
 349 -98 297 -71 263 -71 c 0
 209 -71 196 -130 196 -135 c 0xff60
 196 -149 211 -154 244 -154 c 0
 307 -154 301 -139 336 -119 c 0
 344 -113 349 -109 349 -106 c 0
EndSplineSet
Fore
SplineSet
126 68 m 0xbcc0
 126 37 130 36 135 36 c 0
 138 36 201 49 201 83 c 0
 201 93 193 121 186 125 c 1
 179 125 159 115 152 112 c 0
 129 102 126 101 126 68 c 0xbcc0
511 -259 m 0
 448 -259 431 -150 405 -150 c 0
 393 -150 344 -222 254 -222 c 0
 217 -222 123 -205 123 -137 c 0
 123 -108 143 -77 171 -47 c 0
 199 -17 211 -8 238 -8 c 0xd9c0
 345 -8 360 -54 380 -58 c 1
 380 -55 381 -37 422 -6 c 2
 454 18 l 1
 448 141 l 1
 443 280 425 427 412 468 c 1
 324 411 l 2
 293 390 274 378 262 369 c 1
 288 365 332 352 332 275 c 0
 332 188 298 145 288 98 c 1
 275 22 169 -28 120 -28 c 0
 93 -28 90 -12 89 -7 c 1
 86 -6 80 -8 73 -2 c 0
 56 12 50 51 50 64 c 0xbcc0
 50 104 69 85 69 115 c 0xbac0
 69 157 98 156 150 182 c 0
 160 187 177 188 189 188 c 0
 202 188 206 188 210 187 c 2
 233 183 l 1
 244 234 l 2
 250 258 253 280 253 291 c 2
 253 292 l 1
 216 302 122 286 122 322 c 0
 122 344 142 337 186 396 c 0
 220 441 360 551 423 551 c 0
 510 551 523 395 532 186 c 0
 540 4 550 -138 550 -200 c 0
 550 -224 550 -259 511 -259 c 0
209 -135 m 1
 209 -140 233 -141 248 -141 c 0
 291 -141 288 -137 331 -107 c 1
 317 -99 288 -85 263 -84 c 1
 218 -84 209 -135 209 -135 c 1
EndSplineSet
EndChar

StartChar: uni0E0F
Encoding: 264 3599 121
Width: 606
Flags: W
HStem: -207 91<51 97.8386> -54 92<81.3547 177.5> 48 89<155.5 210.34> 210 70<178.861 240.855> 499 95<357.702 448.768>
VStem: 89 82<137.33 192.223> 230 83<148.801 208.548> 288 85<266.17 396.453> 476 89<-102 262.26>
AnchorPoint: "BelowBase" 424 -251 basechar 0
LayerCount: 2
Back
SplineSet
228 400 m 0x97f8
 228 384 198 374 176 374 c 0
 162 374 156 380 156 389 c 0
 156 421 229 496 324 545 c 0
 361 565 403 581 418 581 c 2
 420 581 l 2
 462 581 510 542 523 496 c 0
 541 434 552 199 552 12 c 0
 552 -240 540 -243 515 -243 c 0
 495 -243 471 -227 466 -205 c 0
 463 -190 443 -177 436 -169 c 0
 419 -152 387 -85 377 -85 c 0xd7f8
 362 -85 340 -240 310 -240 c 0
 283 -240 259 -125 239 -101 c 0
 233 -94 223 -90 213 -90 c 0
 196 -90 178 -99 172 -114 c 0
 153 -156 63 -194 4 -194 c 0
 -45 -194 -54 -166 -54 -157 c 0
 -54 -116 47 -0 83 14 c 0
 103 21 130 25 154 25 c 0xa7f8
 205 25 199 11 211 11 c 0
 234 11 270 56 302 56 c 0
 309 56 316 51 316 44 c 0
 316 23 276 -17 276 -42 c 0
 276 -55 294 -84 304 -84 c 0
 325 -84 320 -14 367 -14 c 0
 430 -14 466 -130 484 -130 c 0
 487 -130 489 -126 489 -91 c 0
 489 -64 488 -20 486 54 c 0
 477 449 476 451 460 485 c 0
 451 505 445 512 431 512 c 0
 397 512 316 479 316 467 c 0
 316 454 360 440 360 371 c 0
 360 314 321 219 307 198 c 0
 299 185 291 166 291 158 c 0
 291 143 237 95 220 95 c 0xcff8
 205 95 188 51 161 51 c 0
 140 51 92 87 92 141 c 0
 92 218 171 257 211 257 c 0
 234 257 245 242 258 242 c 0
 271 242 277 262 292 324 c 0
 298 349 301 364 301 375 c 0
 301 400 264 414 248 414 c 0
 236 414 228 410 228 400 c 0x97f8
245 200 m 0
 245 205 241 213 223 213 c 0
 196 213 155 196 155 178 c 0
 155 162 134 114 166 114 c 0
 190 114 233 140 233 159 c 0
 233 161 227 181 238 188 c 0
 243 191 245 196 245 200 c 0
134 -91 m 0
 134 -70 165 -69 165 -53 c 0
 165 -46 149 -41 129 -41 c 0xa7f8
 100 -41 86 -49 60 -82 c 0
 43 -104 35 -115 35 -120 c 0
 35 -126 48 -129 59 -129 c 0
 89 -129 134 -107 134 -91 c 0
EndSplineSet
Fore
SplineSet
267 265 m 1xfe80
 267 265 288 368 288 375 c 0
 288 390 261 401 248 401 c 0
 241 401 242 401 241 400 c 1
 241 375 205 361 179 361 c 0
 159 361 143 367 143 389 c 0
 143 461 355 594 420 594 c 0
 470 594 521 549 535 500 c 0
 554 434 565 188 565 12 c 0
 565 -235 555 -256 515 -256 c 0
 492 -256 460 -238 453 -208 c 0
 451 -198 437 -189 427 -178 c 0
 412 -161 391 -124 379 -106 c 1
 361 -155 349 -253 310 -253 c 0
 269 -253 251 -134 229 -109 c 0
 225 -104 218 -103 213 -103 c 0
 201 -103 188 -110 184 -119 c 0
 163 -165 70 -207 4 -207 c 1
 -26 -206 -59 -197 -66 -164 c 0
 -66 -163 -67 -161 -67 -157 c 0
 -67 -109 39 11 78 26 c 0
 106 36 139 38 154 38 c 0
 201 37 202 30 212 24 c 1
 213 24 l 1
 214 25 l 1
 235 31 267 69 302 69 c 0
 311 69 329 62 329 44 c 0
 329 18 289 -22 289 -41 c 0
 289 -52 302 -67 304 -69 c 1
 312 -54 320 -1 367 -1 c 0
 425 -1 456 -69 476 -102 c 1
 476 -91 l 2
 476 -64 475 -20 473 54 c 0
 463 440 464 459 440 495 c 0
 437 499 435 499 431 499 c 0
 398 498 348 475 332 465 c 1
 343 454 373 430 373 371 c 0xfd80
 373 308 342 222 328 201 c 0
 318 186 313 167 313 162 c 1
 307 140 255 93 231 92 c 1
 222 88 202 48 171 48 c 0
 140 48 89 93 89 151 c 0
 89 234 172 280 221 280 c 0
 248 280 257 268 266 265 c 1
 267 265 l 1xfe80
51 -116 m 1
 59 -116 l 2
 84 -116 117 -99 121 -90 c 1
 122 -70 138 -61 147 -56 c 1
 143 -55 138 -54 129 -54 c 0
 110 -54 89 -55 51 -116 c 1
228 182 m 0
 228 198 233 203 241 209 c 1
 240 210 238 210 233 210 c 0
 204 210 178 192 178 188 c 0
 178 178 171 156 171 144 c 0
 171 137 172 137 176 137 c 0
 196 137 230 161 230 169 c 0xfe80
 230 170 228 168 228 182 c 0
EndSplineSet
EndChar

StartChar: uni0E10
Encoding: 265 3600 122
Width: 606
Flags: W
HStem: -245 163<30.0528 96.8145> 169 68<215.354 314.614> 293 70<240.279 315.74> 487 80<368.931 426.971>
VStem: 324 104<-143.184 -58.3516> 344 98<-22.6734 200.214> 469 87<537.686 591.704>
LayerCount: 2
Back
SplineSet
110 -86 m 0xb9a0
 182 -86 199 -41 240 -41 c 0
 246 -41 249 -43 249 -49 c 0
 249 -65 198 -110 198 -138 c 0
 198 -145 199 -149 201 -149 c 0
 209 -149 238 -105 273 -105 c 0
 280 -105 285 -108 285 -114 c 0
 285 -126 345 -186 357 -186 c 0x7990
 364 -186 358 -172 349 -163 c 0
 341 -155 337 -146 337 -133 c 0
 337 -125 338 -116 340 -105 c 0
 345 -74 348 -60 381 -60 c 0
 397 -60 402 -67 410 -98 c 0
 413 -109 415 -121 415 -134 c 0
 415 -167 404 -203 387 -225 c 0
 381 -233 371 -237 360 -237 c 0
 311 -237 278 -173 263 -173 c 0x79a0
 251 -173 230 -234 200 -234 c 0
 188 -234 176 -222 161 -199 c 2
 144 -172 l 1
 126 -198 l 2
 111 -220 86 -232 66 -232 c 0
 33 -232 25 -199 25 -172 c 0
 25 -141 37 -106 57 -93 c 0
 63 -89 87 -86 110 -86 c 0xb9a0
84 -160 m 0
 84 -166 85 -169 92 -169 c 0xb980
 103 -169 121 -157 121 -146 c 0
 121 -138 115 -134 107 -134 c 0
 95 -134 84 -143 84 -160 c 0
470 520 m 0x3dd0
 488 520 495 605 522 605 c 0
 530 605 543 600 543 575 c 0
 543 558 524 441 488 441 c 0x3dd0
 457 441 435 500 366 500 c 0
 353 500 345 497 345 492 c 0
 345 472 385 507 414 309 c 0
 424 242 429 163 429 101 c 0
 429 -15 416 -19 394 -19 c 0
 367 -19 365 -11 357 104 c 0
 351 183 346 214 332 214 c 0
 308 214 320 182 240 182 c 0
 183 182 152 203 152 235 c 0
 152 277 217 350 283 350 c 0
 317 350 337 329 351 329 c 0
 352 329 352 330 352 330 c 1
 352 333 347 356 341 383 c 0
 334 414 327 429 313 429 c 0
 290 429 250 387 234 387 c 0
 227 387 209 400 209 420 c 0
 209 462 296 554 382 554 c 0x3bd0
 437 554 462 520 470 520 c 0x3dd0
332 267 m 0
 332 281 296 306 284 306 c 0
 263 306 202 268 202 243 c 0
 202 235 212 224 241 224 c 0
 280 224 332 243 332 267 c 0
EndSplineSet
Fore
SplineSet
215 244 m 1xf2
 218 239 226 237 238 237 c 0
 268 237 316 250 319 266 c 1
 317 273 292 293 284 293 c 0
 269 293 218 261 215 244 c 1xf2
442 104 m 0xf6
 442 -5 432 -32 395 -32 c 0
 353 -32 352 -11 344 103 c 0
 339 164 336 192 330 201 c 1
 320 199 316 169 240 169 c 0
 179 169 139 193 139 235 c 0
 139 285 211 363 283 363 c 0
 310 363 324 355 335 349 c 1
 328 380 l 2
 327 384 320 416 313 416 c 0
 293 416 258 374 234 374 c 0
 219 374 196 394 196 420 c 0
 196 469 289 567 382 567 c 0
 433 567 456 544 469 535 c 1
 479 553 489 618 521 618 c 0
 535 618 556 609 556 576 c 0
 556 567 541 428 487 428 c 0
 450 428 431 486 368 487 c 1
 418 444 442 239 442 104 c 0xf6
362 -250 m 0
 310 -250 279 -200 264 -188 c 1
 249 -208 232 -247 199 -247 c 0
 175 -247 153 -210 150 -206 c 2
 143 -196 l 1
 137 -205 l 2
 122 -226 94 -245 66 -245 c 0
 23 -245 12 -204 12 -172 c 0
 12 -142 23 -99 50 -82 c 0
 59 -76 86 -73 110 -73 c 0
 178 -73 193 -28 240 -28 c 0
 258 -28 262 -41 262 -49 c 0
 260 -70 241 -85 221 -115 c 1
 235 -104 253 -92 273 -92 c 0
 287 -92 297 -100 298 -112 c 1
 300 -117 312 -131 325 -145 c 1
 324 -141 324 -137 324 -133 c 0
 324 -66 347 -47 379 -47 c 0
 405 -47 412 -55 423 -95 c 0
 426 -107 428 -120 428 -134 c 0xfa
 428 -170 411 -250 362 -250 c 0
98 -154 m 1
 102 -152 105 -149 107 -147 c 1
 104 -147 100 -148 98 -154 c 1
EndSplineSet
Substitution2: "Thai Descender Removal Single Substitution" uni0E10.descless
EndChar

StartChar: uni0E11
Encoding: 266 3601 123
Width: 772
Flags: W
HStem: 524 20G<337.5 378.5 595.5 619.5>
VStem: 638 82<-9.83203 262.318>
LayerCount: 2
Back
SplineSet
43 412 m 0xdc
 43 485 116 509 142 509 c 0xbc
 165 509 186 497 207 473 c 2
 239 436 l 1
 272 474 l 2
 305 512 331 531 352 531 c 0
 388 531 408 474 416 355 c 2
 423 254 l 1
 448 322 l 2
 481 415 536 508 573 533 c 0
 593 547 603 552 613 552 c 0
 620 552 628 549 639 543 c 0
 678 522 695 449 701 275 c 0
 704 193 706 134 706 92 c 0
 706 17 700 -2 683 -2 c 0
 678 -2 672 -0 665 2 c 0
 647 8 646 22 645 170 c 0
 643 430 624 472 610 472 c 0
 595 472 570 434 525 341 c 0
 484 258 469 211 436 58 c 0
 425 7 406 -25 389 -25 c 0
 385 -25 381 -23 377 -19 c 0
 361 -3 352 440 339 453 c 0
 338 454 337 454 335 454 c 0
 308 454 252 314 244 314 c 0
 223 314 206 331 206 353 c 0
 206 371 198 379 184 379 c 0
 147 379 109 329 82 329 c 0
 51 329 43 401 43 412 c 0xdc
101 383 m 0
 101 378 103 374 107 374 c 0
 120 374 153 416 153 438 c 0
 153 451 145 471 133 471 c 0
 114 471 101 398 101 383 c 0
EndSplineSet
Fore
SplineSet
82 316 m 0
 40 316 30 395 30 412 c 0
 30 496 113 522 142 522 c 0
 170 522 195 507 217 482 c 2
 239 456 l 1
 262 483 l 2
 293 518 323 544 352 544 c 0
 405 544 422 461 429 356 c 2
 432 316 l 1
 436 326 l 2
 515 523 578 565 613 565 c 0
 626 565 639 557 645 554 c 0
 695 527 708 435 714 275 c 0
 717 199 720 139 720 93 c 0
 720 21 712 -15 683 -15 c 0
 671 -15 645 -11 638 15 c 0
 626 61 639 407 608 458 c 1
 601 453 584 431 537 335 c 0
 442 141 463 17 410 -29 c 0
 404 -34 397 -38 389 -38 c 0
 381 -37 368 -35 363 -21 c 0
 348 19 340 365 330 436 c 1
 309 413 268 324 257 309 c 0
 253 303 249 301 244 301 c 0
 216 301 193 324 193 353 c 0
 193 366 189 366 184 366 c 0
 153 366 116 316 82 316 c 0
134 457 m 1
 126 448 118 416 115 395 c 1
 124 404 140 423 140 440 c 0
 140 446 138 452 134 457 c 1
EndSplineSet
EndChar

StartChar: uni0E12
Encoding: 267 3602 124
Width: 730
Flags: W
HStem: 542 20G<408 432>
VStem: 49 73<77.6685 142.703> 365 171<43.0344 148.354> 591 106<312.25 484.098> 603 82<186 362.75>
LayerCount: 2
Back
SplineSet
190 491 m 0xfe80
 246 491 280 376 295 376 c 0
 305 376 329 458 377 515 c 0
 392 534 410 549 415 549 c 0
 435 549 489 512 513 273 c 0
 516 253 524 237 532 237 c 0
 539 237 562 216 581 192 c 2
 617 147 l 1xfe80
 611 313 l 1
 604 479 l 1
 631.003 486.876 634.716 488 638 488 c 0
 663 488 684 460 684 428 c 0xff
 684 415 678 411 672 192 c 0
 666 -23 665 -31 644 -31 c 0
 581 -31 577 167 527 170 c 0
 519 170 522 44 506 0 c 0
 498 -24 483 -38 471 -38 c 0
 454 -38 454 -9 432 -9 c 0
 412 -9 410 36 390 56 c 0
 382 65 378 77 378 92 c 0
 378 161 452 223 452 274 c 0
 452 284 450 296 447 312 c 0
 426 436 422 454 413 454 c 0
 400 454 315 275 297 251 c 0
 272 215 274 75 221 3 c 0
 203 -20 186 -32 169 -32 c 0
 126 -32 62 56 62 195 c 0
 62 359.7 155.15 491 190 491 c 0xfe80
242 341 m 0
 242 368 208 415 193 415 c 0
 181 415 139 333 139 311 c 0
 139 294 170 324 199 324 c 0
 211 324 213 320 223 320 c 0
 235 320 242 328 242 341 c 0
170 214 m 0
 190 214 223 225 223 246 c 0
 223 256 208 274 201 274 c 0
 189 274 157 224 157 220 c 0
 157 216 163 214 170 214 c 0
227 161 m 0
 227 172 223 180 219 180 c 1
 200 176 114 148 111 144 c 0
 110 142 109 140 109 136 c 0
 109 108 151 25 169 25 c 0
 180 25 226 134 227 161 c 0
446 42 m 0
 457 42 465 131 465 150 c 0
 465 161 463 166 460 166 c 0
 451 166 437 146 437 88 c 0
 437 50 444 42 446 42 c 0
EndSplineSet
Fore
SplineSet
167 41 m 1xe0
 185 69 217 148 214 165 c 1
 187 158 136 141 122 135 c 1
 123 115 151 57 167 41 c 1xe0
201 260 m 1
 194 254 183 238 176 227 c 1
 192 229 209 235 209 246 c 0
 209 250 207 255 201 260 c 1
155 324 m 1
 176 334 190 337 200 337 c 0
 212 337 219 333 223 333 c 0
 225 333 229 333 229 341 c 0
 229 359 207 393 195 401 c 1
 184 389 163 348 155 324 c 1
591 489 m 1xf0
 615 494 629 501 638 501 c 0
 673 501 697 464 697 428 c 0xf0
 697 411 691 412 685 192 c 0xe8
 679 -30 678 -44 644 -44 c 0
 576 -44 567 113 536 150 c 1
 532 110 537 -51 471 -51 c 1
 439 -46 446 -22 432 -22 c 0
 399 -21 400 27 381 47 c 0
 370 58 365 75 365 92 c 0
 365 166 439 228 439 274 c 0
 439 290 415 416 411 432 c 1
 385 392 323 264 308 243 c 0
 286 212 286 69 231 -5 c 0
 214 -27 194 -45 169 -45 c 0
 121 -45 49 43 49 195 c 1
 51 376 149 504 189 504 c 0
 246 504 279 420 294 396 c 1
 306 420 329 478 367 523 c 0
 384 543 399 562 417 562 c 0
 447 562 502 513 526 275 c 1
 534 230 530 271 591 200 c 2xf0
 603 186 l 1xe8
 591 489 l 1xf0
EndSplineSet
EndChar

StartChar: uni0E13
Encoding: 268 3603 125
Width: 779
Flags: W
HStem: -39 173<180.621 268.352> 466 89<274.35 370.48>
VStem: 46 135<322.529 392> 92 81<110.217 321.269> 629 118<30.2231 98.1538>
LayerCount: 2
Back
SplineSet
93 336 m 0xbc
 88 336 84 334 78 334 c 0
 66 334 59 344 59 358 c 0
 59 366 61 375 66 384 c 0
 91 435 278 542 347 542 c 0
 506 542 493 121 507 121 c 0
 511 121 578 177 608 206 c 0
 643 241 612 479 645 504 c 0
 650 508 658 509 665 509 c 0
 690 509 693 493 693 460 c 0
 693 414 687 335 687 304 c 0
 687 266 692 254 704 236 c 0
 724 208 734 169 734 130 c 0
 734 75 710 6 686 6 c 0
 670 6 655 31 641 79 c 2
 623 142 l 1
 560 84 l 2
 522 49 497 28 480 28 c 0xdc
 422 28 450 321 401 420 c 0
 376 472 366 479 344 479 c 0
 320 479 284 466 238 440 c 2
 168 400 l 1
 163 253 l 2
 161 201 160 153 160 124 c 0
 160 101 159 95 165 95 c 0
 183 95 208 121 244 121 c 0
 274 121 295 101 295 69 c 0
 295 27 262 -26 214 -26 c 0
 128 -26 105 22 105 210 c 0
 105 317 104 336 93 336 c 0xbc
206 11 m 0
 220 11 240 52 240 60 c 0
 240 66 238 69 234 69 c 0xbc
 223 69 194 39 194 25 c 0
 194 18 202 11 206 11 c 0
EndSplineSet
Fore
SplineSet
666 522 m 0xe8
 705 522 706 487 706 460 c 0
 706 413 700 335 700 304 c 0
 700 268 705 257 715 243 c 0
 738 210 747 169 747 130 c 0
 747 59 717 -7 687 -7 c 0
 662 -7 644 23 629 75 c 2
 616 118 l 1
 569 74 l 2
 533 41 502 15 479 15 c 0
 401 15 441 309 389 414 c 0
 366 461 360 466 344 466 c 0
 324 466 290 455 244 429 c 2
 181 392 l 1xe8
 176 253 l 2
 174 201 173 153 173 124 c 2
 173 110 l 1
 187 116 212 134 244 134 c 0
 282 134 308 106 308 69 c 0
 308 21 270 -39 214 -39 c 0
 116 -39 92 21 92 210 c 2
 92 226 l 2xd8
 92 253 92 307 89 322 c 1
 86 321 83 321 78 321 c 0
 59 321 46 336 46 358 c 0
 46 368 48 378 54 390 c 0
 82 446 274 555 347 555 c 0
 503 555 504 230 515 143 c 1
 537 160 578 194 599 215 c 1
 630 250 596 484 637 514 c 0
 642 518 654 522 666 522 c 0xe8
220 44 m 1
 214 37 208 30 207 26 c 1
 211 30 216 37 220 44 c 1
EndSplineSet
EndChar

StartChar: uni0E14
Encoding: 269 3604 126
Width: 511
Flags: W
HStem: 213 68<160.828 184> 478 82<276.748 349.745>
VStem: 34 69<38.8552 104.773> 206 73<79.4094 212.5> 373 87<-5.89062 352.067>
LayerCount: 2
Back
SplineSet
159 268 m 0
 173 268 180 271 194 271 c 0
 241 271 266 236 266 182 c 0
 266 143 253 96 227 44 c 0
 205 0 192 -13 162 -23 c 0
 148 -28 136 -30 126 -30 c 0
 98 -30 80 -12 61 32 c 0
 52 54 47 73 47 98 c 0
 47 130 55 172 72 241 c 0
 94 331 204 499 263 530 c 0
 284 542 305 547 325 547 c 0
 346 547 366 541 382 527 c 0
 432 485 447 441 447 99 c 0
 447 23 443 10 432 4 c 0
 425 -0 419 -3 414 -3 c 0
 393 -3 389 47 386 226 c 0
 383 419 381 437 362 463 c 0
 349 481 334 491 318 491 c 0
 284 491 243 450 195 370 c 0
 162 314 146 288 146 276 c 0
 146 270 150 268 159 268 c 0
183 226 m 0
 141 226 109 196 109 178 c 0
 109 172 113 169 122 169 c 0
 144 169 196 192 196 201 c 0
 196 217 198 215 198 219 c 0
 198 224 192 226 183 226 c 0
219 125 m 0
 219 133 214 146 207 146 c 0
 190 146 170 118 121 118 c 0
 96 118 90 114 90 98 c 0
 90 67 117 16 133 16 c 0
 161 16 219 93 219 125 c 0
EndSplineSet
Fore
SplineSet
134 29 m 1
 154 33 206 97 206 125 c 0
 206 128 205 130 204 132 c 1
 188 126 171 106 121 105 c 1
 109 105 l 2
 103 105 103 104 103 98 c 0
 103 73 124 33 134 29 c 1
126 -43 m 0
 65 -43 34 47 34 98 c 0
 34 132 42 175 59 244 c 0
 82 339 195 508 257 541 c 0
 275 551 298 560 325 560 c 0
 348 560 371 553 390 537 c 0
 445 490 460 440 460 103 c 2
 460 75 l 2
 460 35 456 -16 414 -16 c 0
 381 -16 376 29 373 226 c 0
 370 420 367 434 351 455 c 0
 339 471 328 478 318 478 c 0
 256 478 161 283 160 281 c 1
 173 281 177 284 194 284 c 0
 249 284 279 243 279 182 c 0
 279 140 266 91 239 38 c 0
 215 -10 199 -24 166 -35 c 0
 151 -40 138 -43 126 -43 c 0
184 213 m 1
 183 213 l 2
 151 213 128 193 123 182 c 1
 136 183 173 196 183 205 c 1
 183 208 184 211 184 213 c 1
EndSplineSet
EndChar

StartChar: uni0E15
Encoding: 270 3605 127
Width: 549
Flags: W
HStem: -14 80<128.631 185.869> 262 67<178.289 218.999> 510 20G<154 231 416 447.5>
VStem: 46 79<76.6745 168.391> 432 92<18.3728 413.426>
LayerCount: 2
Back
SplineSet
59 164 m 0x9ec0
 59 366 119 517 200 517 c 0
 230 517 243 502 273 445 c 0
 295 403 304 387 311 387 c 0
 314 387 317 392 321 400 c 0
 338 434 400 522 418 537 c 0
 424 542 430 544 436 544 c 0
 454 544 472 529 481 505 c 0
 500 454 511 293 511 168 c 0
 511 85 506 18 495 13 c 0
 493 12 491 12 489 12 c 0
 447 12 447 62 445 233 c 0
 442 378 438 437 428 437 c 0
 422 437 414 429 405 416 c 0
 372 364 309 296 294 296 c 0
 291 296 288 299 285 299 c 0
 283 299 282 298 282 296 c 0
 282 281 295 277 295 249 c 0
 295 204 275 112 258 88 c 0
 216 28 182 -1 156 -1 c 0
 127 -1 82 36 82 60 c 0x9dc0
 82 67 77 75 70 78 c 0
 62 81 59 105 59 164 c 0x9ec0
129 291 m 0
 129 276 134 273 137 273 c 0
 143 273 153 281 161 292 c 0
 175 311 189 316 223 316 c 2
 267 316 l 1
 237 385 l 2
 220 423 201 454 195 454 c 0
 172 454 129 336 129 291 c 0
169 229 m 0xdcc0
 177 229 188 239 210 239 c 2
 214 239 l 2xbcc0
 224 239 232 245 232 253 c 0
 232 264 228 275 214 275 c 0
 194 275 162 263 162 236 c 0
 162 232 164 229 169 229 c 0xdcc0
93 171 m 0xdec0
 93 157 112 139 112 104 c 0
 112 75 129 53 153 53 c 0
 189 53 252 143 252 195 c 0
 252 200 250 203 245 203 c 0xbdc0
 225 203 177 169 149 169 c 0
 133 169 118 182 104 182 c 0
 97 182 93 178 93 171 c 0xdec0
EndSplineSet
Fore
SplineSet
142 290 m 1
 159 307 160 329 223 329 c 2
 247 329 l 1
 225 380 l 2
 211 410 199 429 193 438 c 1
 176 419 142 334 142 290 c 1
524 172 m 0
 524 5 509 -2 487 -2 c 0
 429 -2 435 100 432 233 c 0
 430 333 428 393 423 418 c 1
 423 418 340 297 300 284 c 1
 304 277 308 267 308 249 c 0
 308 202 287 107 269 81 c 0
 231 27 192 -14 156 -14 c 0
 114 -14 76 28 70 52 c 0
 64 75 64 58 54 76 c 0
 46 90 46 129 46 164 c 0
 46 370 108 530 200 530 c 0
 262 530 273 459 309 406 c 1
 318 424 396 557 436 557 c 0
 459 557 482 540 493 510 c 0
 512 458 524 298 524 172 c 0
239 189 m 1
 219 183 178 156 149 156 c 0
 132 156 116 167 106 169 c 1
 110 156 124 143 125 104 c 0
 126 83 136 66 154 66 c 0
 178 66 233 137 239 189 c 1
178 246 m 1
 184 249 193 251 210 252 c 0
 214 252 217 252 219 254 c 1
 219 262 217 262 214 262 c 0
 201 262 184 256 178 246 c 1
EndSplineSet
EndChar

StartChar: uni0E16
Encoding: 271 3606 128
Width: 538
Flags: W
HStem: 472 82<292.579 364.885>
VStem: 57 124<317.826 397.758> 107 80<88.5319 296.222> 415 83<-2.02176 312.989>
LayerCount: 2
Back
SplineSet
350 541 m 0xf6
 431 541 485 448 485 67 c 0
 485 24 485 4 458 4 c 0
 440 4 428 22 428 52 c 0
 428 59 429 65 429 84 c 0
 429 177 411 392 399 418 c 0
 396 425 368 485 347 485 c 0
 322 485 244 443 220 429 c 0
 180 406 168 396 168 382 c 0
 168 376 174 368 174 210 c 2
 174 65 l 1
 219 90 l 2
 249 107 270 115 285 115 c 0
 300 115 307 106 307 86 c 0
 307 19 263 -47 219 -47 c 0
 204 -47 177 -40 160 -31 c 0
 134 -18 120 -18 120 127 c 0xee
 120 159 121 195 123 226 c 2
 130 329 l 1
 100 329 l 2
 76 329 70 334 70 350 c 0
 70 406 243 541 350 541 c 0xf6
234 34 m 0
 227 34 196 27 196 -3 c 0
 196 -16 202 -27 212 -27 c 0
 220 -27 241 14 241 30 c 0
 241 33 238 34 234 34 c 0
EndSplineSet
Fore
SplineSet
459 -9 m 0xd0
 432 -9 415 15 415 52 c 0
 415 60 416 65 416 84 c 0
 416 172 398 389 387 413 c 0
 375 440 354 472 347 472 c 0
 324 472 181 400 181 382 c 0xd0
 181 378 187 359 187 210 c 2
 187 87 l 1
 213 101 l 2
 224 107 259 128 286 128 c 0
 305 128 320 118 320 86 c 0
 320 10 270 -60 219 -60 c 0
 206 -60 177 -55 154 -43 c 0
 123 -27 107 -23 107 127 c 0xb0
 107 159 108 196 110 227 c 2
 116 316 l 1
 100 316 l 2
 81 316 57 317 57 350 c 0
 57 417 239 554 350 554 c 0
 446 554 498 442 498 67 c 0
 498 22 498 -9 459 -9 c 0xd0
210 -11 m 1
 215 -4 222 8 226 19 c 1
 216 15 209 6 209 -4 c 0
 209 -6 209 -9 210 -11 c 1
EndSplineSet
EndChar

StartChar: uni0E17
Encoding: 272 3607 129
Width: 617
Flags: W
HStem: 298 69<129.461 157.649> 528 20G<463.5 484>
VStem: 16 81<356 395.692> 170 106<6.07866 151.33> 175 74<223 297.985> 474 71<-13.309 237.087> 490 74<130.946 453.103>
LayerCount: 2
Back
SplineSet
144 459 m 0xfa
 268 459 222 193 242 193 c 0
 246 193 268 231 277 240 c 1
 281 243 289 264 295 288 c 0
 310 344 370 448 413 496 c 0
 436 522 456 535 477 535 c 0
 488 535 499 531 511 524 c 0
 541 507 551 484 551 386 c 0xfa
 551 278 537 17 533 8 c 0
 531 2 522 -2 512 -2 c 0
 486 -2 487 15 487 50 c 0xfc
 487 203 503 292 503 347 c 0
 503 423 488 469 479 469 c 0
 464 469 394 398 394 383 c 0
 394 371 342 285 312 209 c 0
 286 137 274 159 263 82 c 0
 257 27 240 -3 218 -3 c 0
 189 -3 183 81 183 134 c 0
 183 190 188 201 188 246 c 0
 188 294 178 311 157 311 c 0
 119 311 142 281 94 281 c 0
 70 281 29 292 29 334 c 0
 29 381 93 459 144 459 c 0xfa
171 372 m 0
 171 396 137 422 132 422 c 0
 126 422 103 416 103 391 c 0
 103 381 99 372 94 372 c 0
 88 372 84 365 84 356 c 0
 84 347 87 343 95 343 c 0
 106 343 135 354 155 354 c 0
 166 355 171 362 171 372 c 0
EndSplineSet
Fore
SplineSet
97 356 m 1xe0
 109 357 132 367 154 367 c 0
 157 367 158 368 158 372 c 0
 158 386 137 404 130 409 c 1
 104 403 128 367 98 360 c 0
 98 359 97 357 97 356 c 1xe0
474 37 m 2xe4
 474 50 l 2xe4
 474 203 490 293 490 346 c 0
 490 411 479 445 475 454 c 1
 456 442 413 396 407 383 c 1
 405 358 362 300 324 204 c 0
 295 132 286 154 276 80 c 0
 273 55 262 -16 220 -16 c 0
 190 -16 170 19 170 134 c 0xf2
 170 171 175 216 175 249 c 0
 175 278 171 298 157 298 c 0
 130 298 148 268 94 268 c 0
 67 268 16 281 16 334 c 0
 16 388 86 472 144 472 c 0
 260 472 246 294 249 223 c 1
 258 237 263 245 268 250 c 1
 273 258 281 287 282 291 c 0
 298 351 360 457 403 505 c 0
 427 532 450 548 477 548 c 0
 491 548 504 543 517 535 c 0
 552 515 564 487 564 387 c 0xea
 564 281 550 12 545 3 c 0
 539 -9 524 -16 510 -16 c 0
 476 -16 474 17 474 37 c 2xe4
EndSplineSet
EndChar

StartChar: uni0E18
Encoding: 273 3608 130
Width: 492
Flags: W
HStem: 394 140<126.641 194.402> 430 127<180.343 303.5>
VStem: 156 100<130.657 241.688> 278 80<151.319 414.679> 355 99<548.718 621.055>
LayerCount: 2
Back
SplineSet
291 544 m 0x90
 351 544 352 531 357 531 c 0
 370 531 379 592 393 628 c 1
 396 633 404 635 413 635 c 0
 424 635 441 632 441 617 c 0xc0
 441 597 429 573 421 522 c 0
 417 501 406 474 396 461 c 2
 378 438 l 1
 348 461 l 2
 331 473 310 483 301 483 c 0
 294 483 290 482 290 479 c 0
 290 466 345 444 345 324 c 0
 345 242 302 -20 246 -20 c 0
 200 -20 170 162 170 270 c 0
 170 347 174 361 203 361 c 0
 216 361 217 351 217 300 c 0
 217 237 246 90 258 90 c 0
 266 90 291 234 291 285 c 0xb0
 291 313 286 356 279 385 c 0
 265 437 261 443 238 443 c 0
 194 443 181 407 113 407 c 0
 96 407 81 412 81 429 c 0xc0
 81 455 117 497 166 522 c 0
 193 536 248 544 291 544 c 0x90
EndSplineSet
Fore
SplineSet
200 375 m 0x70
 252 375 208 306 256 128 c 1
 265 171 278 246 278 285 c 0
 278 334 265 399 253 423 c 0
 250 429 248 430 238 430 c 0x70
 201 430 183 394 113 394 c 0
 75 394 68 415 68 429 c 0
 68 466 115 511 160 534 c 0xb0
 187 548 243 557 290 557 c 0
 317 557 341 554 355 547 c 1
 367 573 373 630 388 641 c 0
 394 646 403 648 413 648 c 0
 433 648 454 638 454 617 c 0x68
 454 592 444 579 434 520 c 0
 429 492 414 464 406 453 c 2
 380 420 l 1
 340 451 l 2
 331 457 323 461 317 464 c 1
 334 443 358 404 358 325 c 0
 358 279 325 -33 247 -33 c 0
 174 -33 156 210 156 282 c 0
 156 321 157 375 200 375 c 0x70
EndSplineSet
EndChar

StartChar: uni0E19
Encoding: 274 3609 131
Width: 681
Flags: W
HStem: 485 91<150.192 191.66> 545 20G<516 550>
VStem: 491 81<403.962 561.508> 553 80<132.763 210>
LayerCount: 2
Back
SplineSet
118 380 m 0
 79 380 55 400 55 414 c 0
 55 422 72 499 125 537 c 0
 149 554 165 563 182 563 c 0
 197 563 212 557 235 545 c 0
 269 527 272 521 276 466 c 0
 298 178 309 93 318 93 c 0
 333 93 369 178 437 255 c 2
 481 304 l 1
 488 416 l 2
 492 478 499 534 503 541 c 0
 506 548 518 552 529 552 c 0
 558 552 559 539 559 510 c 0
 559 478 556 424 556 403 c 0
 556 365 562 358 586 337 c 0
 613 313 620 302 620 238 c 0
 620 172 604 91 586 69 c 0
 580 61 552 46 534 46 c 0
 505 46 493 74 493 136 c 0
 493 163 488 200 482 200 c 0
 457 200 330 -21 289 -21 c 0
 263 -21 255 17 246 109 c 0
 222 325 242 417 211 417 c 0
 191 417 176 380 118 380 c 0
135 442 m 0
 141 442 205 457 205 486 c 0
 205 496 197 498 173 498 c 0
 149 498 137 494 137 483 c 0
 137 462 130 453 130 446 c 0
 130 443 131 442 135 442 c 0
566 187 m 2
 566 241 561 270 555 270 c 0
 542 270 537 162 528 134 c 0
 527 132 527 130 527 129 c 0
 527 122 533 119 545 119 c 0
 562 119 566 124 566 169 c 2
 566 187 l 2
EndSplineSet
Fore
SplineSet
119 367 m 0x50
 68 367 42 394 42 414 c 0
 42 428 62 509 117 548 c 0
 141 565 160 576 182 576 c 0x90
 201 576 218 569 241 557 c 0
 282 535 285 521 289 467 c 0
 304 268 315 155 323 115 c 1
 341 140 373 205 427 264 c 2
 468 309 l 1
 475 417 l 2
 478 466 486 540 491 547 c 0
 495 553 503 565 529 565 c 0
 571 565 572 539 572 510 c 0x60
 572 477 569 423 569 403 c 0
 569 369 574 366 595 347 c 0
 625 320 633 306 633 238 c 0
 633 181 619 90 596 61 c 0
 589 52 559 33 534 33 c 0
 468 33 485 134 476 181 c 1
 436 141 336 -34 289 -34 c 0
 244 -34 240 40 233 108 c 0
 214 291 222 388 210 404 c 1
 198 402 177 367 119 367 c 0x50
541 132 m 1
 543 132 l 2
 552 132 553 133 553 154 c 2
 553 210 l 1
 550 183 546 152 541 132 c 1
192 484 m 1
 191 484 182 485 173 485 c 0
 164 485 154 484 150 482 c 1
 150 472 148 464 146 458 c 1
 175 466 190 477 192 484 c 1
EndSplineSet
EndChar

StartChar: uni0E1A
Encoding: 275 3610 132
Width: 624
Flags: W
HStem: -29 93<350.437 399.334> 478 81<153.361 204.856> 550 20G<512.5 543>
VStem: 234 84<141.486 390.946> 496 87<168.634 478.611>
LayerCount: 2
Back
SplineSet
480 508 m 0
 480 530 511 557 526 557 c 0
 561 557 570 440 570 328 c 0
 570 221 554 165 508 92 c 0
 492 67 443 -16 330 -16 c 0
 313 -16 305 -10 296 6 c 0
 268 55 253 142 247 284 c 2
 241 428 l 1
 212 390 l 2
 188 359 157 343 123 343 c 0
 111 343 98 345 85 349 c 0
 70 353 51 358 51 400 c 0
 51 476 157 546 212 546 c 0
 247 546 232 524 263 524 c 0
 278 524 284 510 294 449 c 0
 300 408 305 351 305 324 c 0
 305 258 335 67 348 54 c 0
 350 52 353 51 357 51 c 0
 378 51 423 80 458 118 c 0
 484 146 509 185 509 333 c 0
 509 403 502 472 492 483 c 0
 484 491 480 500 480 508 c 0
220 462 m 0
 220 468 206 491 186 491 c 0
 153 491 110 430 110 404 c 0
 110 398 112 394 117 394 c 0
 123 394 176 429 182 438 c 1
 194 450 220 453 220 462 c 0
EndSplineSet
Fore
SplineSet
526 570 m 0xb8
 560 570 583 516 583 328 c 0
 583 217 566 159 519 85 c 0
 502 58 450 -29 330 -29 c 0
 310 -29 297 -21 285 -0 c 0
 255 53 240 144 234 283 c 2
 230 392 l 1
 222 382 l 1
 185 334 140 330 123 330 c 0
 110 330 95 333 81 337 c 0
 66 341 38 348 38 400 c 0
 38 483 147 559 211 559 c 0xd8
 251 559 242 538 263 537 c 0
 290 536 298 510 307 451 c 0
 313 409 318 352 318 324 c 0
 318 258 345 90 357 64 c 1
 369 64 409 84 448 127 c 0
 473 154 496 191 496 331 c 0
 496 429 486 470 482 475 c 0
 472 485 467 496 467 508 c 0
 467 537 499 570 526 570 c 0xb8
125 412 m 1
 193 453 149 438 205 465 c 1
 202 470 195 477 186 478 c 1
 164 478 132 435 125 412 c 1
EndSplineSet
EndChar

